CutiveMono-Regular.ufo
<glyph name="quotedbl" format="1">
  <advance width="1240"/>
  <unicode hex="0022"/>
  <outline>
    <contour>
      <point x="535" y="721" type="line" smooth="yes"/>
      <point x="534" y="707"/>
      <point x="523" y="701"/>
      <point x="511" y="701" type="curve" smooth="yes"/>
      <point x="499" y="701"/>
      <point x="487" y="707"/>
      <point x="486" y="721" type="curve" smooth="yes"/>
      <point x="454" y="1117" type="line" smooth="yes"/>
      <point x="451" y="1154"/>
      <point x="481" y="1172"/>
      <point x="511" y="1172" type="curve" smooth="yes"/>
      <point x="540" y="1172"/>
      <point x="569" y="1155"/>
      <point x="569" y="1122" type="curve" smooth="yes"/>
      <point x="569" y="1116" type="line" smooth="yes"/>
    </contour>
    <contour>
      <point x="752" y="721" type="line" smooth="yes"/>
      <point x="751" y="707"/>
      <point x="740" y="701"/>
      <point x="728" y="701" type="curve" smooth="yes"/>
      <point x="716" y="701"/>
      <point x="704" y="707"/>
      <point x="703" y="721" type="curve" smooth="yes"/>
      <point x="671" y="1117" type="line" smooth="yes"/>
      <point x="668" y="1154"/>
      <point x="698" y="1172"/>
      <point x="728" y="1172" type="curve" smooth="yes"/>
      <point x="757" y="1172"/>
      <point x="786" y="1155"/>
      <point x="786" y="1122" type="curve" smooth="yes"/>
      <point x="786" y="1116" type="line" smooth="yes"/>
    </contour>
  </outline>
</glyph>
<glyph name="numbersign" format="1">
  <advance width="1240"/>
  <unicode hex="0023"/>
  <outline>
    <contour>
      <point x="468" y="470" type="line" smooth="no"/>
      <point x="725" y="470" type="line" smooth="no"/>
      <point x="780" y="689" type="line" smooth="no"/>
      <point x="524" y="689" type="line" smooth="no"/>
    </contour>
    <contour>
      <point x="584" y="-94" type="curve" smooth="yes"/>
      <point x="584" y="-91"/>
      <point x="584" y="-89"/>
      <point x="585" y="-86" type="curve" smooth="yes"/>
      <point x="704" y="385" type="line" smooth="no"/>
      <point x="447" y="385" type="line" smooth="no"/>
      <point x="325" y="-94" type="line" smooth="yes"/>
      <point x="320" y="-114"/>
      <point x="302" y="-123"/>
      <point x="284" y="-123" type="curve" smooth="yes"/>
      <point x="265" y="-123"/>
      <point x="247" y="-112"/>
      <point x="247" y="-94" type="curve" smooth="yes"/>
      <point x="247" y="-91"/>
      <point x="247" y="-89"/>
      <point x="248" y="-86" type="curve" smooth="yes"/>
      <point x="367" y="385" type="line" smooth="no"/>
      <point x="250" y="385" type="line" smooth="yes"/>
      <point x="230" y="385"/>
      <point x="219" y="406"/>
      <point x="219" y="428" type="curve" smooth="yes"/>
      <point x="219" y="449"/>
      <point x="230" y="470"/>
      <point x="250" y="470" type="curve" smooth="yes"/>
      <point x="388" y="470" type="line" smooth="no"/>
      <point x="443" y="689" type="line" smooth="no"/>
      <point x="292" y="689" type="line" smooth="yes"/>
      <point x="272" y="689"/>
      <point x="261" y="710"/>
      <point x="261" y="732" type="curve" smooth="yes"/>
      <point x="261" y="753"/>
      <point x="272" y="774"/>
      <point x="292" y="774" type="curve" smooth="yes"/>
      <point x="465" y="774" type="line" smooth="no"/>
      <point x="593" y="1282" type="line" smooth="yes"/>
      <point x="598" y="1300"/>
      <point x="614" y="1308"/>
      <point x="631" y="1308" type="curve" smooth="yes"/>
      <point x="651" y="1308"/>
      <point x="672" y="1296"/>
      <point x="672" y="1277" type="curve" smooth="yes"/>
      <point x="672" y="1275"/>
      <point x="672" y="1272"/>
      <point x="671" y="1270" type="curve" smooth="yes"/>
      <point x="545" y="774" type="line" smooth="no"/>
      <point x="802" y="774" type="line" smooth="no"/>
      <point x="930" y="1282" type="line" smooth="yes"/>
      <point x="935" y="1300"/>
      <point x="951" y="1308"/>
      <point x="968" y="1308" type="curve" smooth="yes"/>
      <point x="988" y="1308"/>
      <point x="1009" y="1296"/>
      <point x="1009" y="1277" type="curve" smooth="yes"/>
      <point x="1009" y="1275"/>
      <point x="1009" y="1272"/>
      <point x="1008" y="1270" type="curve" smooth="yes"/>
      <point x="882" y="774" type="line" smooth="no"/>
      <point x="1001" y="774" type="line" smooth="yes"/>
      <point x="1022" y="774"/>
      <point x="1032" y="752"/>
      <point x="1032" y="731" type="curve" smooth="yes"/>
      <point x="1032" y="710"/>
      <point x="1022" y="689"/>
      <point x="1002" y="689" type="curve" smooth="yes"/>
      <point x="861" y="689" type="line" smooth="no"/>
      <point x="805" y="470" type="line" smooth="no"/>
      <point x="959" y="470" type="line" smooth="yes"/>
      <point x="980" y="470"/>
      <point x="990" y="449"/>
      <point x="990" y="428" type="curve" smooth="yes"/>
      <point x="990" y="406"/>
      <point x="980" y="385"/>
      <point x="959" y="385" type="curve" smooth="yes"/>
      <point x="784" y="385" type="line" smooth="no"/>
      <point x="662" y="-94" type="line" smooth="yes"/>
      <point x="657" y="-114"/>
      <point x="639" y="-123"/>
      <point x="621" y="-123" type="curve" smooth="yes"/>
      <point x="602" y="-123"/>
      <point x="584" y="-112"/>
    </contour>
  </outline>
</glyph>
<glyph name="percent" format="1">
  <advance width="1240"/>
  <unicode hex="0025"/>
  <outline>
    <contour>
      <point x="887" y="44" type="curve" smooth="yes"/>
      <point x="969" y="44"/>
      <point x="1026" y="183"/>
      <point x="1026" y="301" type="curve" smooth="yes"/>
      <point x="1026" y="372"/>
      <point x="1006" y="435"/>
      <point x="957" y="435" type="curve" smooth="yes"/>
      <point x="870" y="435"/>
      <point x="813" y="291"/>
      <point x="813" y="181" type="curve" smooth="yes"/>
      <point x="813" y="109"/>
      <point x="835" y="44"/>
    </contour>
    <contour>
      <point x="878" y="-13" type="curve" smooth="yes"/>
      <point x="782" y="-13"/>
      <point x="739" y="78"/>
      <point x="739" y="184" type="curve" smooth="yes"/>
      <point x="739" y="329"/>
      <point x="820" y="501"/>
      <point x="964" y="501" type="curve" smooth="yes"/>
      <point x="1053" y="501"/>
      <point x="1099" y="406"/>
      <point x="1099" y="308" type="curve" smooth="no"/>
      <point x="1097" y="137"/>
      <point x="1017" y="-13"/>
    </contour>
    <contour>
      <point x="282" y="531" type="curve" smooth="yes"/>
      <point x="364" y="531"/>
      <point x="417" y="673"/>
      <point x="417" y="777" type="curve" smooth="yes"/>
      <point x="417" y="839"/>
      <point x="394" y="913"/>
      <point x="346" y="913" type="curve" smooth="yes"/>
      <point x="263" y="913"/>
      <point x="205" y="802"/>
      <point x="205" y="661" type="curve" smooth="yes"/>
      <point x="205" y="591"/>
      <point x="231" y="531"/>
    </contour>
    <contour>
      <point x="277" y="472" type="curve" smooth="yes"/>
      <point x="193" y="472"/>
      <point x="133" y="557"/>
      <point x="133" y="657" type="curve" smooth="yes"/>
      <point x="133" y="833"/>
      <point x="228" y="986"/>
      <point x="361" y="986" type="curve" smooth="yes"/>
      <point x="403" y="986" type="line" smooth="yes"/>
      <point x="619" y="986"/>
      <point x="799" y="992"/>
      <point x="869" y="1143" type="curve" smooth="yes"/>
      <point x="875" y="1156"/>
      <point x="886" y="1162"/>
      <point x="898" y="1162" type="curve" smooth="yes"/>
      <point x="916" y="1162"/>
      <point x="935" y="1147"/>
      <point x="935" y="1124" type="curve" smooth="yes"/>
      <point x="935" y="1118"/>
      <point x="934" y="1111"/>
      <point x="931" y="1104" type="curve" smooth="yes"/>
      <point x="370" y="-215" type="line" smooth="yes"/>
      <point x="362" y="-234"/>
      <point x="346" y="-243"/>
      <point x="331" y="-243" type="curve" smooth="yes"/>
      <point x="312" y="-243"/>
      <point x="296" y="-230"/>
      <point x="296" y="-207" type="curve" smooth="yes"/>
      <point x="296" y="-200"/>
      <point x="297" y="-192"/>
      <point x="301" y="-183" type="curve" smooth="yes"/>
      <point x="800" y="985" type="line" smooth="no"/>
      <point x="738" y="940"/>
      <point x="640" y="915"/>
      <point x="535" y="915" type="curve" smooth="yes"/>
      <point x="495" y="915"/>
      <point x="455" y="919"/>
      <point x="415" y="926" type="curve" smooth="no"/>
      <point x="466" y="895"/>
      <point x="487" y="826"/>
      <point x="489" y="767" type="curve" smooth="no"/>
      <point x="489" y="632"/>
      <point x="404" y="472"/>
    </contour>
  </outline>
</glyph>
<glyph name="ampersand" format="1">
  <advance width="1240"/>
  <unicode hex="0026"/>
  <outline>
    <contour>
      <point x="673" y="931" type="curve" smooth="yes"/>
      <point x="673" y="1062"/>
      <point x="592" y="1107"/>
      <point x="521" y="1107" type="curve" smooth="yes"/>
      <point x="453" y="1107"/>
      <point x="371" y="1063"/>
      <point x="371" y="944" type="curve" smooth="yes"/>
      <point x="371" y="859"/>
      <point x="431" y="753"/>
      <point x="487" y="678" type="curve" smooth="no"/>
      <point x="559" y="730"/>
      <point x="673" y="826"/>
    </contour>
    <contour>
      <point x="283" y="311" type="curve" smooth="yes"/>
      <point x="282" y="301"/>
      <point x="282" y="291"/>
      <point x="282" y="282" type="curve" smooth="yes"/>
      <point x="282" y="125"/>
      <point x="391" y="65"/>
      <point x="517" y="65" type="curve" smooth="yes"/>
      <point x="632" y="65"/>
      <point x="737" y="121"/>
      <point x="797" y="192" type="curve" smooth="no"/>
      <point x="693" y="277"/>
      <point x="521" y="492"/>
      <point x="469" y="564" type="curve" smooth="no"/>
      <point x="415" y="522"/>
      <point x="290" y="403"/>
    </contour>
    <contour>
      <point x="847" y="135" type="curve" smooth="no"/>
      <point x="765" y="44"/>
      <point x="664" y="-16"/>
      <point x="506" y="-16" type="curve" smooth="yes"/>
      <point x="314" y="-16"/>
      <point x="186" y="86"/>
      <point x="186" y="272" type="curve" smooth="yes"/>
      <point x="186" y="282"/>
      <point x="186" y="292"/>
      <point x="187" y="303" type="curve" smooth="yes"/>
      <point x="198" y="455"/>
      <point x="366" y="588"/>
      <point x="419" y="632" type="curve" smooth="no"/>
      <point x="360" y="710"/>
      <point x="275" y="825"/>
      <point x="275" y="936" type="curve" smooth="yes"/>
      <point x="275" y="1086"/>
      <point x="366" y="1189"/>
      <point x="511" y="1189" type="curve" smooth="yes"/>
      <point x="665" y="1189"/>
      <point x="760" y="1083"/>
      <point x="760" y="933" type="curve" smooth="yes"/>
      <point x="760" y="778"/>
      <point x="625" y="685"/>
      <point x="534" y="612" type="curve" smooth="no"/>
      <point x="610" y="503"/>
      <point x="759" y="328"/>
      <point x="849" y="254" type="curve" smooth="no"/>
      <point x="907" y="310"/>
      <point x="973" y="453"/>
      <point x="978" y="544" type="curve" smooth="no"/>
      <point x="846" y="544" type="line" smooth="yes"/>
      <point x="824" y="544"/>
      <point x="812" y="566"/>
      <point x="812" y="587" type="curve" smooth="yes"/>
      <point x="812" y="607"/>
      <point x="822" y="626"/>
      <point x="844" y="626" type="curve" smooth="yes"/>
      <point x="1118" y="626" type="line" smooth="yes"/>
      <point x="1141" y="626"/>
      <point x="1153" y="605"/>
      <point x="1153" y="585" type="curve" smooth="yes"/>
      <point x="1153" y="564"/>
      <point x="1141" y="544"/>
      <point x="1116" y="544" type="curve" smooth="yes"/>
      <point x="1057" y="544" type="line" smooth="no"/>
      <point x="1051" y="416"/>
      <point x="964" y="288"/>
      <point x="905" y="203" type="curve" smooth="no"/>
      <point x="957" y="158"/>
      <point x="1055" y="77"/>
      <point x="1092" y="51" type="curve" smooth="yes"/>
      <point x="1110" y="39"/>
      <point x="1116" y="25"/>
      <point x="1116" y="12" type="curve" smooth="yes"/>
      <point x="1116" y="-11"/>
      <point x="1094" y="-32"/>
      <point x="1070" y="-32" type="curve" smooth="yes"/>
      <point x="1063" y="-32"/>
      <point x="1057" y="-30"/>
      <point x="1051" y="-27" type="curve" smooth="yes"/>
      <point x="1002" y="-1"/>
      <point x="918" y="77"/>
    </contour>
  </outline>
</glyph>
<glyph name="quotesingle" format="1">
  <advance width="1240"/>
  <unicode hex="0027"/>
  <outline>
    <contour>
      <point x="644" y="721" type="line" smooth="yes"/>
      <point x="643" y="707"/>
      <point x="632" y="701"/>
      <point x="620" y="701" type="curve" smooth="yes"/>
      <point x="608" y="701"/>
      <point x="596" y="707"/>
      <point x="595" y="721" type="curve" smooth="yes"/>
      <point x="563" y="1117" type="line" smooth="yes"/>
      <point x="560" y="1154"/>
      <point x="590" y="1172"/>
      <point x="620" y="1172" type="curve" smooth="yes"/>
      <point x="649" y="1172"/>
      <point x="678" y="1155"/>
      <point x="678" y="1122" type="curve" smooth="yes"/>
      <point x="678" y="1116" type="line" smooth="yes"/>
    </contour>
  </outline>
</glyph>
<glyph name="parenleft" format="1">
  <advance width="1240"/>
  <unicode hex="0028"/>
  <outline>
    <contour>
      <point x="484" y="570" type="curve" smooth="yes"/>
      <point x="484" y="853"/>
      <point x="549" y="1079"/>
      <point x="692" y="1267" type="curve" smooth="yes"/>
      <point x="701" y="1279"/>
      <point x="712" y="1284"/>
      <point x="723" y="1284" type="curve" smooth="yes"/>
      <point x="747" y="1284"/>
      <point x="770" y="1259"/>
      <point x="770" y="1238" type="curve" smooth="yes"/>
      <point x="770" y="1232"/>
      <point x="768" y="1227"/>
      <point x="764" y="1222" type="curve" smooth="yes"/>
      <point x="638" y="1074"/>
      <point x="578" y="826"/>
      <point x="578" y="570" type="curve" smooth="yes"/>
      <point x="578" y="314"/>
      <point x="638" y="66"/>
      <point x="764" y="-82" type="curve" smooth="yes"/>
      <point x="768" y="-87"/>
      <point x="770" y="-92"/>
      <point x="770" y="-98" type="curve" smooth="yes"/>
      <point x="770" y="-119"/>
      <point x="747" y="-144"/>
      <point x="723" y="-144" type="curve" smooth="yes"/>
      <point x="712" y="-144"/>
      <point x="701" y="-139"/>
      <point x="692" y="-127" type="curve" smooth="yes"/>
      <point x="549" y="61"/>
      <point x="484" y="287"/>
    </contour>
  </outline>
</glyph>
<glyph name="parenright" format="1">
  <advance width="1240"/>
  <unicode hex="0029"/>
  <outline>
    <contour>
      <point x="770" y="570" type="curve" smooth="yes"/>
      <point x="770" y="287"/>
      <point x="705" y="61"/>
      <point x="562" y="-127" type="curve" smooth="yes"/>
      <point x="553" y="-139"/>
      <point x="542" y="-144"/>
      <point x="531" y="-144" type="curve" smooth="yes"/>
      <point x="507" y="-144"/>
      <point x="484" y="-119"/>
      <point x="484" y="-98" type="curve" smooth="yes"/>
      <point x="484" y="-92"/>
      <point x="486" y="-87"/>
      <point x="490" y="-82" type="curve" smooth="yes"/>
      <point x="616" y="66"/>
      <point x="676" y="314"/>
      <point x="676" y="570" type="curve" smooth="yes"/>
      <point x="676" y="826"/>
      <point x="616" y="1074"/>
      <point x="490" y="1222" type="curve" smooth="yes"/>
      <point x="486" y="1227"/>
      <point x="484" y="1232"/>
      <point x="484" y="1238" type="curve" smooth="yes"/>
      <point x="484" y="1259"/>
      <point x="507" y="1284"/>
      <point x="531" y="1284" type="curve" smooth="yes"/>
      <point x="542" y="1284"/>
      <point x="553" y="1279"/>
      <point x="562" y="1267" type="curve" smooth="yes"/>
      <point x="705" y="1079"/>
      <point x="770" y="853"/>
    </contour>
  </outline>
</glyph>
<glyph name="period" format="1">
  <advance width="1240"/>
  <unicode hex="002e"/>
  <outline>
    <contour>
      <point x="620" y="-16" type="curve" smooth="yes"/>
      <point x="559" y="-16"/>
      <point x="514" y="28"/>
      <point x="514" y="89" type="curve" smooth="yes"/>
      <point x="514" y="150"/>
      <point x="560" y="195"/>
      <point x="620" y="195" type="curve" smooth="yes"/>
      <point x="680" y="195"/>
      <point x="726" y="149"/>
      <point x="726" y="89" type="curve" smooth="yes"/>
      <point x="726" y="28"/>
      <point x="680" y="-16"/>
    </contour>
  </outline>
</glyph>
<glyph name="four" format="1">
  <advance width="1240"/>
  <unicode hex="0034"/>
  <outline>
    <contour>
      <point x="420" y="0" type="line" smooth="yes"/>
      <point x="404" y="0"/>
      <point x="395" y="17"/>
      <point x="395" y="34" type="curve" smooth="yes"/>
      <point x="395" y="50"/>
      <point x="403" y="65"/>
      <point x="419" y="65" type="curve" smooth="yes"/>
      <point x="707" y="65" type="line" smooth="no"/>
      <point x="707" y="371" type="line" smooth="no"/>
      <point x="245" y="371" type="line" smooth="yes"/>
      <point x="226" y="371"/>
      <point x="207" y="392"/>
      <point x="207" y="415" type="curve" smooth="yes"/>
      <point x="207" y="424"/>
      <point x="210" y="434"/>
      <point x="217" y="443" type="curve" smooth="yes"/>
      <point x="728" y="1167" type="line" smooth="yes"/>
      <point x="731" y="1171"/>
      <point x="747" y="1179"/>
      <point x="764" y="1179" type="curve" smooth="yes"/>
      <point x="783" y="1179"/>
      <point x="803" y="1168"/>
      <point x="803" y="1125" type="curve" smooth="yes"/>
      <point x="803" y="449" type="line" smooth="no"/>
      <point x="1005" y="449" type="line" smooth="yes"/>
      <point x="1028" y="449"/>
      <point x="1040" y="431"/>
      <point x="1040" y="410" type="curve" smooth="yes"/>
      <point x="1040" y="390"/>
      <point x="1028" y="371"/>
      <point x="1003" y="371" type="curve" smooth="yes"/>
      <point x="803" y="371" type="line" smooth="no"/>
      <point x="803" y="65" type="line" smooth="no"/>
      <point x="961" y="65" type="line" smooth="yes"/>
      <point x="977" y="65"/>
      <point x="985" y="50"/>
      <point x="985" y="34" type="curve" smooth="yes"/>
      <point x="985" y="17"/>
      <point x="976" y="0"/>
      <point x="960" y="0" type="curve" smooth="yes"/>
    </contour>
    <contour>
      <point x="707" y="1019" type="line" smooth="no"/>
      <point x="322" y="449" type="line" smooth="no"/>
      <point x="707" y="449" type="line" smooth="no"/>
    </contour>
  </outline>
</glyph>
<glyph name="six" format="1">
  <advance width="1240"/>
  <unicode hex="0036"/>
  <outline>
    <contour>
      <point x="648" y="65" type="curve" smooth="yes"/>
      <point x="831" y="65"/>
      <point x="931" y="199"/>
      <point x="931" y="354" type="curve" smooth="yes"/>
      <point x="931" y="510"/>
      <point x="855" y="659"/>
      <point x="671" y="659" type="curve" smooth="yes"/>
      <point x="472" y="659"/>
      <point x="353" y="519"/>
      <point x="353" y="364" type="curve" smooth="yes"/>
      <point x="353" y="207"/>
      <point x="437" y="65"/>
    </contour>
    <contour>
      <point x="1027" y="357" type="curve" smooth="yes"/>
      <point x="1027" y="129"/>
      <point x="874" y="-17"/>
      <point x="648" y="-17" type="curve" smooth="yes"/>
      <point x="381" y="-17"/>
      <point x="257" y="160"/>
      <point x="257" y="426" type="curve" smooth="yes"/>
      <point x="257" y="806"/>
      <point x="450" y="1052"/>
      <point x="659" y="1241" type="curve" smooth="yes"/>
      <point x="668" y="1249"/>
      <point x="678" y="1253"/>
      <point x="687" y="1253" type="curve" smooth="yes"/>
      <point x="711" y="1253"/>
      <point x="733" y="1229"/>
      <point x="733" y="1207" type="curve" smooth="yes"/>
      <point x="733" y="1198"/>
      <point x="729" y="1190"/>
      <point x="721" y="1183" type="curve" smooth="yes"/>
      <point x="566" y="1054"/>
      <point x="397" y="844"/>
      <point x="361" y="591" type="curve" smooth="no"/>
      <point x="438" y="694"/>
      <point x="559" y="741"/>
      <point x="668" y="741" type="curve" smooth="yes"/>
      <point x="893" y="741"/>
      <point x="1027" y="583"/>
    </contour>
  </outline>
</glyph>
<glyph name="eight" format="1">
  <advance width="1240"/>
  <unicode hex="0038"/>
  <outline>
    <contour>
      <point x="628" y="1101" type="curve" smooth="yes"/>
      <point x="505" y="1101"/>
      <point x="382" y="1047"/>
      <point x="382" y="906" type="curve" smooth="yes"/>
      <point x="382" y="770"/>
      <point x="496" y="716"/>
      <point x="642" y="635" type="curve" smooth="no"/>
      <point x="773" y="710"/>
      <point x="878" y="784"/>
      <point x="878" y="905" type="curve" smooth="yes"/>
      <point x="878" y="1050"/>
      <point x="773" y="1101"/>
    </contour>
    <contour>
      <point x="648" y="69" type="curve" smooth="yes"/>
      <point x="778" y="69"/>
      <point x="926" y="101"/>
      <point x="926" y="266" type="curve" smooth="yes"/>
      <point x="926" y="422"/>
      <point x="739" y="497"/>
      <point x="626" y="560" type="curve" smooth="no"/>
      <point x="532" y="507"/>
      <point x="356" y="409"/>
      <point x="356" y="282" type="curve" smooth="yes"/>
      <point x="356" y="109"/>
      <point x="512" y="69"/>
    </contour>
    <contour>
      <point x="620" y="1187" type="curve" smooth="yes"/>
      <point x="823" y="1187"/>
      <point x="970" y="1103"/>
      <point x="970" y="913" type="curve" smooth="yes"/>
      <point x="970" y="756"/>
      <point x="833" y="668"/>
      <point x="728" y="595" type="curve" smooth="no"/>
      <point x="855" y="523"/>
      <point x="1022" y="436"/>
      <point x="1022" y="268" type="curve" smooth="yes"/>
      <point x="1022" y="58"/>
      <point x="852" y="-17"/>
      <point x="642" y="-17" type="curve" smooth="yes"/>
      <point x="450" y="-17"/>
      <point x="260" y="53"/>
      <point x="260" y="274" type="curve" smooth="yes"/>
      <point x="260" y="435"/>
      <point x="437" y="536"/>
      <point x="544" y="599" type="curve" smooth="no"/>
      <point x="435" y="666"/>
      <point x="290" y="746"/>
      <point x="290" y="897" type="curve" smooth="yes"/>
      <point x="290" y="1083"/>
      <point x="434" y="1187"/>
    </contour>
  </outline>
</glyph>
<glyph name="colon" format="1">
  <advance width="1240"/>
  <unicode hex="003a"/>
  <outline>
    <contour>
      <point x="644" y="600" type="curve" smooth="yes"/>
      <point x="583" y="600"/>
      <point x="539" y="644"/>
      <point x="539" y="705" type="curve" smooth="yes"/>
      <point x="539" y="766"/>
      <point x="584" y="811"/>
      <point x="644" y="811" type="curve" smooth="yes"/>
      <point x="704" y="811"/>
      <point x="750" y="765"/>
      <point x="750" y="705" type="curve" smooth="yes"/>
      <point x="750" y="644"/>
      <point x="704" y="600"/>
    </contour>
    <contour>
      <point x="644" y="-16" type="curve" smooth="yes"/>
      <point x="583" y="-16"/>
      <point x="539" y="28"/>
      <point x="539" y="89" type="curve" smooth="yes"/>
      <point x="539" y="150"/>
      <point x="584" y="195"/>
      <point x="644" y="195" type="curve" smooth="yes"/>
      <point x="704" y="195"/>
      <point x="750" y="149"/>
      <point x="750" y="89" type="curve" smooth="yes"/>
      <point x="750" y="28"/>
      <point x="704" y="-16"/>
    </contour>
  </outline>
</glyph>
<glyph name="equal" format="1">
  <advance width="1240"/>
  <unicode hex="003d"/>
  <outline>
    <contour>
      <point x="900" y="347" type="line" smooth="yes"/>
      <point x="930" y="347"/>
      <point x="945" y="324"/>
      <point x="945" y="302" type="curve" smooth="yes"/>
      <point x="945" y="279"/>
      <point x="930" y="256"/>
      <point x="900" y="256" type="curve" smooth="yes"/>
      <point x="341" y="256" type="line" smooth="yes"/>
      <point x="311" y="256"/>
      <point x="296" y="279"/>
      <point x="296" y="302" type="curve" smooth="yes"/>
      <point x="296" y="324"/>
      <point x="311" y="347"/>
      <point x="341" y="347" type="curve" smooth="yes"/>
    </contour>
    <contour>
      <point x="900" y="689" type="line" smooth="yes"/>
      <point x="930" y="689"/>
      <point x="945" y="666"/>
      <point x="945" y="644" type="curve" smooth="yes"/>
      <point x="945" y="621"/>
      <point x="930" y="598"/>
      <point x="900" y="598" type="curve" smooth="yes"/>
      <point x="341" y="598" type="line" smooth="yes"/>
      <point x="311" y="598"/>
      <point x="296" y="621"/>
      <point x="296" y="644" type="curve" smooth="yes"/>
      <point x="296" y="666"/>
      <point x="311" y="689"/>
      <point x="341" y="689" type="curve" smooth="yes"/>
    </contour>
  </outline>
</glyph>
<glyph name="greater" format="1">
  <advance width="1240"/>
  <unicode hex="003e"/>
  <outline>
    <contour>
      <point x="1130" y="603" type="line" smooth="yes"/>
      <point x="1147" y="596"/>
      <point x="1156" y="573"/>
      <point x="1156" y="550" type="curve" smooth="yes"/>
      <point x="1156" y="526"/>
      <point x="1146" y="502"/>
      <point x="1130" y="495" type="curve" smooth="yes"/>
      <point x="262" y="134" type="line" smooth="yes"/>
      <point x="259" y="133"/>
      <point x="255" y="132"/>
      <point x="252" y="132" type="curve" smooth="yes"/>
      <point x="229" y="132"/>
      <point x="208" y="161"/>
      <point x="208" y="186" type="curve" smooth="yes"/>
      <point x="208" y="200"/>
      <point x="214" y="212"/>
      <point x="229" y="218" type="curve" smooth="yes"/>
      <point x="1038" y="546" type="line" smooth="no"/>
      <point x="219" y="879" type="line" smooth="yes"/>
      <point x="200" y="887"/>
      <point x="192" y="901"/>
      <point x="192" y="917" type="curve" smooth="yes"/>
      <point x="192" y="942"/>
      <point x="212" y="968"/>
      <point x="236" y="968" type="curve" smooth="yes"/>
      <point x="241" y="968"/>
      <point x="245" y="967"/>
      <point x="250" y="965" type="curve" smooth="yes"/>
    </contour>
  </outline>
</glyph>
<glyph name="question" format="1">
  <advance width="1240"/>
  <unicode hex="003f"/>
  <outline>
    <contour>
      <point x="549" y="-9" type="curve" smooth="yes"/>
      <point x="492" y="-9"/>
      <point x="447" y="36"/>
      <point x="447" y="93" type="curve" smooth="yes"/>
      <point x="447" y="150"/>
      <point x="492" y="194"/>
      <point x="549" y="194" type="curve" smooth="yes"/>
      <point x="606" y="194"/>
      <point x="650" y="151"/>
      <point x="650" y="94" type="curve" smooth="yes"/>
      <point x="650" y="37"/>
      <point x="606" y="-9"/>
    </contour>
    <contour>
      <point x="905" y="906" type="curve" smooth="yes"/>
      <point x="905" y="644"/>
      <point x="575" y="571"/>
      <point x="575" y="394" type="curve" smooth="yes"/>
      <point x="575" y="360"/>
      <point x="571" y="338"/>
      <point x="543" y="338" type="curve" smooth="yes"/>
      <point x="510" y="338"/>
      <point x="509" y="363"/>
      <point x="509" y="393" type="curve" smooth="yes"/>
      <point x="509" y="615"/>
      <point x="751" y="655"/>
      <point x="784" y="874" type="curve" smooth="yes"/>
      <point x="786" y="887"/>
      <point x="787" y="900"/>
      <point x="787" y="912" type="curve" smooth="yes"/>
      <point x="787" y="1030"/>
      <point x="704" y="1111"/>
      <point x="570" y="1111" type="curve" smooth="yes"/>
      <point x="526" y="1111"/>
      <point x="476" y="1107"/>
      <point x="421" y="1082" type="curve" smooth="no"/>
      <point x="415" y="1000"/>
      <point x="416" y="891"/>
      <point x="349" y="891" type="curve" smooth="yes"/>
      <point x="313" y="891"/>
      <point x="300" y="928"/>
      <point x="300" y="971" type="curve" smooth="yes"/>
      <point x="300" y="1106"/>
      <point x="411" y="1188"/>
      <point x="573" y="1188" type="curve" smooth="yes"/>
      <point x="764" y="1188"/>
      <point x="905" y="1092"/>
    </contour>
  </outline>
</glyph>
<glyph name="at" format="1">
  <advance width="1240"/>
  <unicode hex="0040"/>
  <outline>
    <contour>
      <point x="189" y="436" type="curve" smooth="yes"/>
      <point x="189" y="194"/>
      <point x="342" y="-33"/>
      <point x="648" y="-33" type="curve" smooth="yes"/>
      <point x="768" y="-33"/>
      <point x="876" y="9"/>
      <point x="938" y="40" type="curve" smooth="yes"/>
      <point x="946" y="44"/>
      <point x="954" y="45"/>
      <point x="961" y="45" type="curve" smooth="yes"/>
      <point x="984" y="45"/>
      <point x="997" y="26"/>
      <point x="997" y="7" type="curve" smooth="yes"/>
      <point x="997" y="-6"/>
      <point x="991" y="-18"/>
      <point x="978" y="-26" type="curve" smooth="yes"/>
      <point x="863" y="-98"/>
      <point x="766" y="-116"/>
      <point x="651" y="-116" type="curve" smooth="yes"/>
      <point x="649" y="-116" type="line" smooth="yes"/>
      <point x="274" y="-116"/>
      <point x="83" y="154"/>
      <point x="83" y="439" type="curve" smooth="yes"/>
      <point x="83" y="760"/>
      <point x="317" y="1099"/>
      <point x="695" y="1099" type="curve" smooth="yes"/>
      <point x="989" y="1099"/>
      <point x="1205" y="907"/>
      <point x="1205" y="585" type="curve" smooth="yes"/>
      <point x="1205" y="374"/>
      <point x="1133" y="194"/>
      <point x="923" y="194" type="curve" smooth="yes"/>
      <point x="855" y="194"/>
      <point x="819" y="230"/>
      <point x="799" y="304" type="curve" smooth="no"/>
      <point x="752" y="225"/>
      <point x="686" y="189"/>
      <point x="622" y="189" type="curve" smooth="yes"/>
      <point x="515" y="189"/>
      <point x="414" y="291"/>
      <point x="414" y="466" type="curve" smooth="yes"/>
      <point x="414" y="660"/>
      <point x="506" y="776"/>
      <point x="647" y="776" type="curve" smooth="yes"/>
      <point x="786" y="776"/>
      <point x="851" y="681"/>
      <point x="880" y="642" type="curve" smooth="no"/>
      <point x="851" y="342" type="line" smooth="yes"/>
      <point x="850" y="337"/>
      <point x="850" y="332"/>
      <point x="850" y="327" type="curve" smooth="yes"/>
      <point x="854" y="286"/>
      <point x="881" y="269"/>
      <point x="926" y="269" type="curve" smooth="yes"/>
      <point x="1081" y="269"/>
      <point x="1107" y="455"/>
      <point x="1107" y="618" type="curve" smooth="yes"/>
      <point x="1107" y="864"/>
      <point x="928" y="1012"/>
      <point x="699" y="1012" type="curve" smooth="yes"/>
      <point x="384" y="1012"/>
      <point x="189" y="714"/>
    </contour>
    <contour>
      <point x="795" y="550" type="curve" smooth="yes"/>
      <point x="795" y="651"/>
      <point x="772" y="700"/>
      <point x="652" y="700" type="curve" smooth="yes"/>
      <point x="541" y="700"/>
      <point x="500" y="585"/>
      <point x="500" y="460" type="curve" smooth="yes"/>
      <point x="500" y="354"/>
      <point x="545" y="263"/>
      <point x="631" y="263" type="curve" smooth="yes"/>
      <point x="632" y="263" type="line" smooth="yes"/>
      <point x="760" y="263"/>
      <point x="795" y="378"/>
    </contour>
  </outline>
</glyph>
<glyph name="A" format="1">
  <advance width="1240"/>
  <unicode hex="0041"/>
  <outline>
    <contour>
      <point x="90" y="0" type="line" smooth="yes"/>
      <point x="57" y="0"/>
      <point x="40" y="21"/>
      <point x="40" y="43" type="curve" smooth="yes"/>
      <point x="40" y="64"/>
      <point x="56" y="86"/>
      <point x="89" y="86" type="curve" smooth="yes"/>
      <point x="174" y="86" type="line" smooth="no"/>
      <point x="559" y="1085" type="line" smooth="no"/>
      <point x="342" y="1085" type="line" smooth="yes"/>
      <point x="309" y="1085"/>
      <point x="292" y="1106"/>
      <point x="292" y="1128" type="curve" smooth="yes"/>
      <point x="292" y="1149"/>
      <point x="308" y="1171"/>
      <point x="341" y="1171" type="curve" smooth="yes"/>
      <point x="644" y="1171" type="line" smooth="yes"/>
      <point x="690" y="1171"/>
      <point x="713" y="1140"/>
      <point x="725" y="1106" type="curve" smooth="yes"/>
      <point x="1087" y="86" type="line" smooth="no"/>
      <point x="1166" y="86" type="line" smooth="yes"/>
      <point x="1198" y="86"/>
      <point x="1214" y="65"/>
      <point x="1214" y="44" type="curve" smooth="yes"/>
      <point x="1214" y="22"/>
      <point x="1197" y="0"/>
      <point x="1164" y="0" type="curve" smooth="yes"/>
      <point x="798" y="0" type="line" smooth="yes"/>
      <point x="764" y="0"/>
      <point x="747" y="22"/>
      <point x="747" y="44" type="curve" smooth="yes"/>
      <point x="747" y="65"/>
      <point x="763" y="86"/>
      <point x="796" y="86" type="curve" smooth="yes"/>
      <point x="982" y="86" type="line" smooth="no"/>
      <point x="875" y="392" type="line" smooth="no"/>
      <point x="392" y="392" type="line" smooth="no"/>
      <point x="280" y="86" type="line" smooth="no"/>
      <point x="439" y="86" type="line" smooth="yes"/>
      <point x="472" y="86"/>
      <point x="489" y="64"/>
      <point x="489" y="43" type="curve" smooth="yes"/>
      <point x="489" y="21"/>
      <point x="472" y="0"/>
      <point x="438" y="0" type="curve" smooth="yes"/>
    </contour>
    <contour>
      <point x="425" y="475" type="line" smooth="no"/>
      <point x="845" y="475" type="line" smooth="no"/>
      <point x="646" y="1072" type="line" smooth="no"/>
    </contour>
  </outline>
</glyph>
<glyph name="B" format="1">
  <advance width="1240"/>
  <unicode hex="0042"/>
  <outline>
    <contour>
      <point x="921" y="885" type="curve" smooth="yes"/>
      <point x="921" y="1036"/>
      <point x="793" y="1085"/>
      <point x="605" y="1085" type="curve" smooth="yes"/>
      <point x="499" y="1085" type="line" smooth="no"/>
      <point x="499" y="673" type="line" smooth="no"/>
      <point x="629" y="673" type="line" smooth="yes"/>
      <point x="776" y="673"/>
      <point x="921" y="733"/>
    </contour>
    <contour>
      <point x="1008" y="363" type="curve" smooth="yes"/>
      <point x="1008" y="575"/>
      <point x="826" y="597"/>
      <point x="629" y="597" type="curve" smooth="yes"/>
      <point x="499" y="597" type="line" smooth="no"/>
      <point x="499" y="86" type="line" smooth="no"/>
      <point x="605" y="86" type="line" smooth="yes"/>
      <point x="841" y="86"/>
      <point x="1008" y="153"/>
    </contour>
    <contour>
      <point x="1104" y="348" type="curve" smooth="yes"/>
      <point x="1104" y="99"/>
      <point x="881" y="0"/>
      <point x="602" y="0" type="curve" smooth="yes"/>
      <point x="244" y="0" type="line" smooth="yes"/>
      <point x="210" y="0"/>
      <point x="193" y="21"/>
      <point x="193" y="43" type="curve" smooth="yes"/>
      <point x="193" y="64"/>
      <point x="210" y="86"/>
      <point x="243" y="86" type="curve" smooth="yes"/>
      <point x="403" y="86" type="line" smooth="no"/>
      <point x="403" y="1085" type="line" smooth="no"/>
      <point x="237" y="1085" type="line" smooth="yes"/>
      <point x="204" y="1085"/>
      <point x="188" y="1107"/>
      <point x="188" y="1129" type="curve" smooth="yes"/>
      <point x="188" y="1150"/>
      <point x="204" y="1171"/>
      <point x="236" y="1171" type="curve" smooth="yes"/>
      <point x="592" y="1171" type="line" smooth="yes"/>
      <point x="817" y="1171"/>
      <point x="1007" y="1106"/>
      <point x="1007" y="889" type="curve" smooth="yes"/>
      <point x="1007" y="766"/>
      <point x="932" y="686"/>
      <point x="843" y="660" type="curve" smooth="no"/>
      <point x="985" y="639"/>
      <point x="1104" y="548"/>
    </contour>
  </outline>
</glyph>
<glyph name="E" format="1">
  <advance width="1240"/>
  <unicode hex="0045"/>
  <outline>
    <contour>
      <point x="837" y="437" type="line" smooth="yes"/>
      <point x="837" y="402"/>
      <point x="818" y="386"/>
      <point x="799" y="386" type="curve" smooth="yes"/>
      <point x="780" y="386"/>
      <point x="761" y="401"/>
      <point x="759" y="429" type="curve" smooth="yes"/>
      <point x="746" y="577" type="line" smooth="no"/>
      <point x="420" y="577" type="line" smooth="no"/>
      <point x="420" y="85" type="line" smooth="no"/>
      <point x="1035" y="85" type="line" smooth="no"/>
      <point x="1051" y="336" type="line" smooth="yes"/>
      <point x="1052" y="360"/>
      <point x="1074" y="375"/>
      <point x="1095" y="375" type="curve" smooth="yes"/>
      <point x="1116" y="375"/>
      <point x="1137" y="359"/>
      <point x="1137" y="323" type="curve" smooth="yes"/>
      <point x="1137" y="53" type="line" smooth="yes"/>
      <point x="1137" y="19"/>
      <point x="1114" y="0"/>
      <point x="1081" y="0" type="curve" smooth="yes"/>
      <point x="155" y="0" type="line" smooth="yes"/>
      <point x="121" y="0"/>
      <point x="104" y="22"/>
      <point x="104" y="43" type="curve" smooth="yes"/>
      <point x="104" y="64"/>
      <point x="121" y="85"/>
      <point x="154" y="85" type="curve" smooth="yes"/>
      <point x="324" y="85" type="line" smooth="no"/>
      <point x="324" y="1085" type="line" smooth="no"/>
      <point x="189" y="1085" type="line" smooth="yes"/>
      <point x="157" y="1085"/>
      <point x="141" y="1106"/>
      <point x="141" y="1127" type="curve" smooth="yes"/>
      <point x="141" y="1149"/>
      <point x="158" y="1171"/>
      <point x="191" y="1171" type="curve" smooth="yes"/>
      <point x="1069" y="1171" type="line" smooth="yes"/>
      <point x="1102" y="1171"/>
      <point x="1125" y="1151"/>
      <point x="1125" y="1117" type="curve" smooth="yes"/>
      <point x="1125" y="847" type="line" smooth="yes"/>
      <point x="1125" y="817"/>
      <point x="1105" y="803"/>
      <point x="1085" y="803" type="curve" smooth="yes"/>
      <point x="1065" y="803"/>
      <point x="1044" y="816"/>
      <point x="1043" y="841" type="curve" smooth="yes"/>
      <point x="1029" y="1085" type="line" smooth="no"/>
      <point x="420" y="1085" type="line" smooth="no"/>
      <point x="420" y="654" type="line" smooth="no"/>
      <point x="746" y="654" type="line" smooth="no"/>
      <point x="759" y="787" type="line" smooth="yes"/>
      <point x="762" y="817"/>
      <point x="781" y="832"/>
      <point x="799" y="832" type="curve" smooth="yes"/>
      <point x="818" y="832"/>
      <point x="837" y="816"/>
      <point x="837" y="779" type="curve" smooth="yes"/>
    </contour>
  </outline>
</glyph>
<glyph name="G" format="1">
  <advance width="1240"/>
  <unicode hex="0047"/>
  <outline>
    <contour>
      <point x="1083" y="510" type="line" smooth="no"/>
      <point x="1083" y="49" type="line" smooth="yes"/>
      <point x="1083" y="11"/>
      <point x="1060" y="-8"/>
      <point x="1036" y="-8" type="curve" smooth="yes"/>
      <point x="1012" y="-8"/>
      <point x="987" y="12"/>
      <point x="987" y="51" type="curve" smooth="yes"/>
      <point x="987" y="175" type="line" smooth="no"/>
      <point x="937" y="62"/>
      <point x="784" y="-17"/>
      <point x="606" y="-17" type="curve" smooth="yes"/>
      <point x="298" y="-17"/>
      <point x="89" y="225"/>
      <point x="89" y="607" type="curve" smooth="yes"/>
      <point x="89" y="954"/>
      <point x="297" y="1187"/>
      <point x="605" y="1187" type="curve" smooth="yes"/>
      <point x="764" y="1187"/>
      <point x="905" y="1113"/>
      <point x="959" y="1015" type="curve" smooth="no"/>
      <point x="959" y="1121" type="line" smooth="yes"/>
      <point x="959" y="1154"/>
      <point x="984" y="1171"/>
      <point x="1008" y="1171" type="curve" smooth="yes"/>
      <point x="1033" y="1171"/>
      <point x="1057" y="1154"/>
      <point x="1057" y="1120" type="curve" smooth="yes"/>
      <point x="1057" y="827" type="line" smooth="yes"/>
      <point x="1057" y="795"/>
      <point x="1034" y="780"/>
      <point x="1011" y="780" type="curve" smooth="yes"/>
      <point x="987" y="780"/>
      <point x="968" y="797"/>
      <point x="963" y="827" type="curve" smooth="yes"/>
      <point x="932" y="991"/>
      <point x="787" y="1101"/>
      <point x="608" y="1101" type="curve" smooth="yes"/>
      <point x="333" y="1101"/>
      <point x="185" y="890"/>
      <point x="185" y="600" type="curve" smooth="yes"/>
      <point x="185" y="263"/>
      <point x="372" y="69"/>
      <point x="607" y="69" type="curve" smooth="yes"/>
      <point x="815" y="69"/>
      <point x="939" y="182"/>
      <point x="987" y="332" type="curve" smooth="no"/>
      <point x="987" y="510" type="line" smooth="no"/>
      <point x="863" y="510" type="line" smooth="yes"/>
      <point x="830" y="510"/>
      <point x="813" y="532"/>
      <point x="813" y="554" type="curve" smooth="yes"/>
      <point x="813" y="575"/>
      <point x="829" y="596"/>
      <point x="862" y="596" type="curve" smooth="yes"/>
      <point x="1146" y="596" type="line" smooth="yes"/>
      <point x="1179" y="596"/>
      <point x="1195" y="575"/>
      <point x="1195" y="554" type="curve" smooth="yes"/>
      <point x="1195" y="532"/>
      <point x="1178" y="510"/>
      <point x="1144" y="510" type="curve" smooth="yes"/>
    </contour>
  </outline>
</glyph>
<glyph name="I" format="1">
  <advance width="1240"/>
  <unicode hex="0049"/>
  <outline>
    <contour>
      <point x="310" y="0" type="line" smooth="yes"/>
      <point x="277" y="0"/>
      <point x="259" y="21"/>
      <point x="259" y="43" type="curve" smooth="yes"/>
      <point x="259" y="64"/>
      <point x="276" y="86"/>
      <point x="309" y="86" type="curve" smooth="yes"/>
      <point x="614" y="86" type="line" smooth="no"/>
      <point x="614" y="1085" type="line" smooth="no"/>
      <point x="309" y="1085" type="line" smooth="yes"/>
      <point x="276" y="1085"/>
      <point x="259" y="1106"/>
      <point x="259" y="1127" type="curve" smooth="yes"/>
      <point x="259" y="1149"/>
      <point x="277" y="1171"/>
      <point x="310" y="1171" type="curve" smooth="yes"/>
      <point x="995" y="1171" type="line" smooth="yes"/>
      <point x="1028" y="1171"/>
      <point x="1045" y="1149"/>
      <point x="1045" y="1127" type="curve" smooth="yes"/>
      <point x="1045" y="1106"/>
      <point x="1029" y="1085"/>
      <point x="996" y="1085" type="curve" smooth="yes"/>
      <point x="710" y="1085" type="line" smooth="no"/>
      <point x="710" y="86" type="line" smooth="no"/>
      <point x="996" y="86" type="line" smooth="yes"/>
      <point x="1029" y="86"/>
      <point x="1045" y="64"/>
      <point x="1045" y="43" type="curve" smooth="yes"/>
      <point x="1045" y="21"/>
      <point x="1028" y="0"/>
      <point x="995" y="0" type="curve" smooth="yes"/>
    </contour>
  </outline>
</glyph>
<glyph name="K" format="1">
  <advance width="1240"/>
  <unicode hex="004b"/>
  <outline>
    <contour>
      <point x="84" y="0" type="line" smooth="yes"/>
      <point x="50" y="0"/>
      <point x="33" y="21"/>
      <point x="33" y="43" type="curve" smooth="yes"/>
      <point x="33" y="64"/>
      <point x="50" y="86"/>
      <point x="83" y="86" type="curve" smooth="yes"/>
      <point x="242" y="86" type="line" smooth="no"/>
      <point x="242" y="1084" type="line" smooth="no"/>
      <point x="83" y="1084" type="line" smooth="yes"/>
      <point x="50" y="1084"/>
      <point x="33" y="1105"/>
      <point x="33" y="1127" type="curve" smooth="yes"/>
      <point x="33" y="1149"/>
      <point x="50" y="1171"/>
      <point x="84" y="1171" type="curve" smooth="yes"/>
      <point x="529" y="1171" type="line" smooth="yes"/>
      <point x="562" y="1171"/>
      <point x="579" y="1148"/>
      <point x="579" y="1126" type="curve" smooth="yes"/>
      <point x="579" y="1105"/>
      <point x="564" y="1084"/>
      <point x="531" y="1084" type="curve" smooth="yes"/>
      <point x="338" y="1084" type="line" smooth="no"/>
      <point x="338" y="558" type="line" smooth="no"/>
      <point x="914" y="1078" type="line" smooth="yes"/>
      <point x="917" y="1081"/>
      <point x="921" y="1085"/>
      <point x="921" y="1088" type="curve" smooth="yes"/>
      <point x="921" y="1091"/>
      <point x="917" y="1094"/>
      <point x="902" y="1094" type="curve" smooth="yes"/>
      <point x="813" y="1094" type="line" smooth="yes"/>
      <point x="780" y="1094"/>
      <point x="764" y="1112"/>
      <point x="764" y="1131" type="curve" smooth="yes"/>
      <point x="764" y="1151"/>
      <point x="782" y="1171"/>
      <point x="814" y="1171" type="curve" smooth="yes"/>
      <point x="1176" y="1171" type="line" smooth="yes"/>
      <point x="1209" y="1171"/>
      <point x="1225" y="1149"/>
      <point x="1225" y="1127" type="curve" smooth="yes"/>
      <point x="1225" y="1105"/>
      <point x="1209" y="1084"/>
      <point x="1177" y="1084" type="curve" smooth="yes"/>
      <point x="1039" y="1084" type="line" smooth="no"/>
      <point x="601" y="676" type="line" smooth="no"/>
      <point x="1122" y="86" type="line" smooth="no"/>
      <point x="1259" y="86" type="line" smooth="yes"/>
      <point x="1291" y="86"/>
      <point x="1307" y="64"/>
      <point x="1307" y="43" type="curve" smooth="yes"/>
      <point x="1307" y="21"/>
      <point x="1291" y="0"/>
      <point x="1258" y="0" type="curve" smooth="yes"/>
      <point x="840" y="0" type="line" smooth="yes"/>
      <point x="807" y="0"/>
      <point x="790" y="21"/>
      <point x="790" y="43" type="curve" smooth="yes"/>
      <point x="790" y="64"/>
      <point x="806" y="86"/>
      <point x="839" y="86" type="curve" smooth="yes"/>
      <point x="1005" y="86" type="line" smooth="no"/>
      <point x="527" y="621" type="line" smooth="no"/>
      <point x="342" y="465" type="line" smooth="no"/>
      <point x="342" y="86" type="line" smooth="no"/>
      <point x="586" y="86" type="line" smooth="yes"/>
      <point x="619" y="86"/>
      <point x="635" y="64"/>
      <point x="635" y="43" type="curve" smooth="yes"/>
      <point x="635" y="21"/>
      <point x="618" y="0"/>
      <point x="585" y="0" type="curve" smooth="yes"/>
    </contour>
  </outline>
</glyph>
<glyph name="L" format="1">
  <advance width="1240"/>
  <unicode hex="004c"/>
  <outline>
    <contour>
      <point x="640" y="1171" type="line" smooth="yes"/>
      <point x="674" y="1171"/>
      <point x="691" y="1149"/>
      <point x="691" y="1127" type="curve" smooth="yes"/>
      <point x="691" y="1106"/>
      <point x="674" y="1085"/>
      <point x="641" y="1085" type="curve" smooth="yes"/>
      <point x="489" y="1085" type="line" smooth="no"/>
      <point x="489" y="86" type="line" smooth="no"/>
      <point x="946" y="86" type="line" smooth="no"/>
      <point x="968" y="88"/>
      <point x="984" y="92"/>
      <point x="987" y="123" type="curve" smooth="yes"/>
      <point x="1021" y="399" type="line" smooth="yes"/>
      <point x="1025" y="428"/>
      <point x="1048" y="442"/>
      <point x="1071" y="442" type="curve" smooth="yes"/>
      <point x="1097" y="442"/>
      <point x="1122" y="425"/>
      <point x="1122" y="393" type="curve" smooth="yes"/>
      <point x="1122" y="387" type="line" smooth="no"/>
      <point x="1092" y="66" type="line" smooth="no"/>
      <point x="1087" y="29"/>
      <point x="1063" y="0"/>
      <point x="1020" y="0" type="curve" smooth="yes"/>
      <point x="125" y="0" type="line" smooth="yes"/>
      <point x="91" y="0"/>
      <point x="74" y="21"/>
      <point x="74" y="43" type="curve" smooth="yes"/>
      <point x="74" y="64"/>
      <point x="91" y="86"/>
      <point x="124" y="86" type="curve" smooth="yes"/>
      <point x="393" y="86" type="line" smooth="no"/>
      <point x="393" y="1085" type="line" smooth="no"/>
      <point x="166" y="1085" type="line" smooth="yes"/>
      <point x="133" y="1085"/>
      <point x="117" y="1106"/>
      <point x="117" y="1127" type="curve" smooth="yes"/>
      <point x="117" y="1149"/>
      <point x="134" y="1171"/>
      <point x="167" y="1171" type="curve" smooth="yes"/>
    </contour>
  </outline>
</glyph>
<glyph name="N" format="1">
  <advance width="1240"/>
  <unicode hex="004e"/>
  <outline>
    <contour>
      <point x="129" y="1085" type="line" smooth="yes"/>
      <point x="96" y="1085"/>
      <point x="80" y="1106"/>
      <point x="80" y="1127" type="curve" smooth="yes"/>
      <point x="80" y="1149"/>
      <point x="97" y="1171"/>
      <point x="130" y="1171" type="curve" smooth="yes"/>
      <point x="417" y="1171" type="line" smooth="yes"/>
      <point x="439" y="1171"/>
      <point x="449" y="1163"/>
      <point x="457" y="1147" type="curve" smooth="yes"/>
      <point x="943" y="194" type="line" smooth="no"/>
      <point x="943" y="1085" type="line" smooth="no"/>
      <point x="794" y="1085" type="line" smooth="yes"/>
      <point x="761" y="1085"/>
      <point x="745" y="1106"/>
      <point x="745" y="1127" type="curve" smooth="yes"/>
      <point x="745" y="1149"/>
      <point x="762" y="1171"/>
      <point x="796" y="1171" type="curve" smooth="yes"/>
      <point x="1133" y="1171" type="line" smooth="yes"/>
      <point x="1166" y="1171"/>
      <point x="1183" y="1149"/>
      <point x="1183" y="1127" type="curve" smooth="yes"/>
      <point x="1183" y="1106"/>
      <point x="1167" y="1085"/>
      <point x="1135" y="1085" type="curve" smooth="yes"/>
      <point x="1039" y="1085" type="line" smooth="no"/>
      <point x="1039" y="47" type="line" smooth="yes"/>
      <point x="1039" y="4"/>
      <point x="1016" y="-16"/>
      <point x="990" y="-16" type="curve" smooth="yes"/>
      <point x="969" y="-16"/>
      <point x="947" y="-3"/>
      <point x="934" y="22" type="curve" smooth="yes"/>
      <point x="381" y="1084" type="line" smooth="no"/>
      <point x="381" y="86" type="line" smooth="no"/>
      <point x="519" y="86" type="line" smooth="yes"/>
      <point x="552" y="86"/>
      <point x="568" y="64"/>
      <point x="568" y="43" type="curve" smooth="yes"/>
      <point x="568" y="21"/>
      <point x="551" y="0"/>
      <point x="518" y="0" type="curve" smooth="yes"/>
      <point x="160" y="0" type="line" smooth="yes"/>
      <point x="127" y="0"/>
      <point x="110" y="21"/>
      <point x="110" y="43" type="curve" smooth="yes"/>
      <point x="110" y="64"/>
      <point x="126" y="86"/>
      <point x="159" y="86" type="curve" smooth="yes"/>
      <point x="285" y="86" type="line" smooth="no"/>
      <point x="285" y="1085" type="line" smooth="no"/>
    </contour>
  </outline>
</glyph>
<glyph name="O" format="1">
  <advance width="1240"/>
  <unicode hex="004f"/>
  <outline>
    <contour>
      <point x="620" y="-17" type="curve" smooth="yes"/>
      <point x="279" y="-17"/>
      <point x="108" y="281"/>
      <point x="108" y="582" type="curve" smooth="yes"/>
      <point x="108" y="883"/>
      <point x="279" y="1187"/>
      <point x="620" y="1187" type="curve" smooth="yes"/>
      <point x="961" y="1187"/>
      <point x="1132" y="883"/>
      <point x="1132" y="582" type="curve" smooth="yes"/>
      <point x="1132" y="281"/>
      <point x="961" y="-17"/>
    </contour>
    <contour>
      <point x="620" y="1101" type="curve" smooth="yes"/>
      <point x="344" y="1101"/>
      <point x="204" y="842"/>
      <point x="204" y="582" type="curve" smooth="yes"/>
      <point x="204" y="326"/>
      <point x="340" y="69"/>
      <point x="620" y="69" type="curve" smooth="yes"/>
      <point x="900" y="69"/>
      <point x="1036" y="326"/>
      <point x="1036" y="582" type="curve" smooth="yes"/>
      <point x="1036" y="842"/>
      <point x="896" y="1101"/>
    </contour>
  </outline>
</glyph>
<glyph name="P" format="1">
  <advance width="1240"/>
  <unicode hex="0050"/>
  <outline>
    <contour>
      <point x="1068" y="847" type="curve" smooth="yes"/>
      <point x="1068" y="540"/>
      <point x="815" y="527"/>
      <point x="558" y="527" type="curve" smooth="yes"/>
      <point x="442" y="527" type="line" smooth="no"/>
      <point x="442" y="86" type="line" smooth="no"/>
      <point x="771" y="86" type="line" smooth="yes"/>
      <point x="804" y="86"/>
      <point x="820" y="64"/>
      <point x="820" y="43" type="curve" smooth="yes"/>
      <point x="820" y="21"/>
      <point x="803" y="0"/>
      <point x="770" y="0" type="curve" smooth="yes"/>
      <point x="174" y="0" type="line" smooth="yes"/>
      <point x="140" y="0"/>
      <point x="123" y="21"/>
      <point x="123" y="43" type="curve" smooth="yes"/>
      <point x="123" y="64"/>
      <point x="140" y="86"/>
      <point x="173" y="86" type="curve" smooth="yes"/>
      <point x="346" y="86" type="line" smooth="no"/>
      <point x="346" y="1085" type="line" smooth="no"/>
      <point x="187" y="1085" type="line" smooth="yes"/>
      <point x="154" y="1085"/>
      <point x="138" y="1106"/>
      <point x="138" y="1127" type="curve" smooth="yes"/>
      <point x="138" y="1149"/>
      <point x="155" y="1171"/>
      <point x="188" y="1171" type="curve" smooth="yes"/>
      <point x="532" y="1171" type="line" smooth="yes"/>
      <point x="802" y="1171"/>
      <point x="1068" y="1154"/>
    </contour>
    <contour>
      <point x="972" y="843" type="curve" smooth="yes"/>
      <point x="972" y="1085"/>
      <point x="742" y="1085"/>
      <point x="552" y="1085" type="curve" smooth="yes"/>
      <point x="442" y="1085" type="line" smooth="no"/>
      <point x="442" y="607" type="line" smooth="no"/>
      <point x="594" y="607" type="line" smooth="yes"/>
      <point x="788" y="607"/>
      <point x="972" y="616"/>
    </contour>
  </outline>
</glyph>
<glyph name="R" format="1">
  <advance width="1240"/>
  <unicode hex="0052"/>
  <outline>
    <contour>
      <point x="658" y="41" type="curve" smooth="yes"/>
      <point x="658" y="21"/>
      <point x="642" y="0"/>
      <point x="608" y="0" type="curve" smooth="yes"/>
      <point x="209" y="0" type="line" smooth="yes"/>
      <point x="175" y="0"/>
      <point x="158" y="21"/>
      <point x="158" y="41" type="curve" smooth="yes"/>
      <point x="158" y="62"/>
      <point x="175" y="82"/>
      <point x="208" y="82" type="curve" smooth="yes"/>
      <point x="333" y="82" type="line" smooth="no"/>
      <point x="333" y="1085" type="line" smooth="no"/>
      <point x="236" y="1085" type="line" smooth="yes"/>
      <point x="203" y="1085"/>
      <point x="186" y="1106"/>
      <point x="186" y="1127" type="curve" smooth="yes"/>
      <point x="186" y="1149"/>
      <point x="203" y="1171"/>
      <point x="237" y="1171" type="curve" smooth="yes"/>
      <point x="557" y="1171" type="line" smooth="yes"/>
      <point x="847" y="1171"/>
      <point x="1047" y="1124"/>
      <point x="1047" y="853" type="curve" smooth="yes"/>
      <point x="1047" y="699"/>
      <point x="945" y="616"/>
      <point x="841" y="578" type="curve" smooth="no"/>
      <point x="1045" y="82" type="line" smooth="no"/>
      <point x="1129" y="82" type="line" smooth="yes"/>
      <point x="1179" y="82"/>
      <point x="1193" y="62"/>
      <point x="1193" y="42" type="curve" smooth="yes"/>
      <point x="1193" y="21"/>
      <point x="1177" y="0"/>
      <point x="1130" y="0" type="curve" smooth="yes"/>
      <point x="895" y="0" type="line" smooth="yes"/>
      <point x="861" y="0"/>
      <point x="844" y="21"/>
      <point x="844" y="42" type="curve" smooth="yes"/>
      <point x="844" y="62"/>
      <point x="860" y="82"/>
      <point x="893" y="82" type="curve" smooth="yes"/>
      <point x="944" y="82" type="line" smooth="no"/>
      <point x="764" y="556" type="line" smooth="no"/>
      <point x="750" y="551"/>
      <point x="651" y="542"/>
      <point x="604" y="542" type="curve" smooth="yes"/>
      <point x="429" y="542" type="line" smooth="no"/>
      <point x="429" y="82" type="line" smooth="no"/>
      <point x="609" y="82" type="line" smooth="yes"/>
      <point x="642" y="82"/>
      <point x="658" y="62"/>
    </contour>
    <contour>
      <point x="429" y="619" type="line" smooth="no"/>
      <point x="536" y="619" type="line" smooth="yes"/>
      <point x="784" y="619"/>
      <point x="951" y="647"/>
      <point x="951" y="846" type="curve" smooth="yes"/>
      <point x="951" y="1050"/>
      <point x="838" y="1085"/>
      <point x="556" y="1085" type="curve" smooth="yes"/>
      <point x="429" y="1085" type="line" smooth="no"/>
    </contour>
  </outline>
</glyph>
<glyph name="S" format="1">
  <advance width="1240"/>
  <unicode hex="0053"/>
  <outline>
    <contour>
      <point x="650" y="1101" type="curve" smooth="yes"/>
      <point x="479" y="1101"/>
      <point x="378" y="1018"/>
      <point x="378" y="886" type="curve" smooth="yes"/>
      <point x="378" y="748"/>
      <point x="453" y="724"/>
      <point x="615" y="668" type="curve" smooth="yes"/>
      <point x="751" y="621" type="line" smooth="yes"/>
      <point x="945" y="554"/>
      <point x="1057" y="479"/>
      <point x="1057" y="308" type="curve" smooth="yes"/>
      <point x="1057" y="71"/>
      <point x="881" y="-17"/>
      <point x="689" y="-17" type="curve" smooth="yes"/>
      <point x="582" y="-17"/>
      <point x="437" y="27"/>
      <point x="363" y="105" type="curve" smooth="no"/>
      <point x="363" y="28"/>
      <point x="347" y="-17"/>
      <point x="316" y="-17" type="curve" smooth="yes"/>
      <point x="283" y="-17"/>
      <point x="268" y="0"/>
      <point x="268" y="57" type="curve" smooth="yes"/>
      <point x="268" y="371" type="line" smooth="yes"/>
      <point x="268" y="403"/>
      <point x="288" y="418"/>
      <point x="312" y="418" type="curve" smooth="yes"/>
      <point x="336" y="418"/>
      <point x="358" y="402"/>
      <point x="358" y="369" type="curve" smooth="yes"/>
      <point x="358" y="250" type="line" smooth="yes"/>
      <point x="358" y="164"/>
      <point x="526" y="69"/>
      <point x="692" y="69" type="curve" smooth="yes"/>
      <point x="838" y="69"/>
      <point x="961" y="133"/>
      <point x="961" y="304" type="curve" smooth="yes"/>
      <point x="961" y="433"/>
      <point x="877" y="480"/>
      <point x="731" y="530" type="curve" smooth="yes"/>
      <point x="567" y="586" type="line" smooth="yes"/>
      <point x="410" y="640"/>
      <point x="282" y="697"/>
      <point x="282" y="881" type="curve" smooth="yes"/>
      <point x="282" y="1081"/>
      <point x="439" y="1187"/>
      <point x="627" y="1187" type="curve" smooth="yes"/>
      <point x="723" y="1187"/>
      <point x="848" y="1171"/>
      <point x="917" y="1095" type="curve" smooth="no"/>
      <point x="917" y="1154"/>
      <point x="931" y="1187"/>
      <point x="969" y="1187" type="curve" smooth="yes"/>
      <point x="996" y="1187"/>
      <point x="1009" y="1169"/>
      <point x="1009" y="1117" type="curve" smooth="yes"/>
      <point x="1009" y="864" type="line" smooth="yes"/>
      <point x="1009" y="828"/>
      <point x="988" y="811"/>
      <point x="963" y="811" type="curve" smooth="yes"/>
      <point x="940" y="811"/>
      <point x="918" y="827"/>
      <point x="918" y="858" type="curve" smooth="yes"/>
      <point x="918" y="949" type="line" smooth="no"/>
      <point x="906" y="1053"/>
      <point x="767" y="1101"/>
    </contour>
  </outline>
</glyph>
<glyph name="U" format="1">
  <advance width="1240"/>
  <unicode hex="0055"/>
  <outline>
    <contour>
      <point x="654" y="-17" type="curve" smooth="yes"/>
      <point x="415" y="-17"/>
      <point x="249" y="142"/>
      <point x="249" y="413" type="curve" smooth="yes"/>
      <point x="249" y="1085" type="line" smooth="no"/>
      <point x="104" y="1085" type="line" smooth="yes"/>
      <point x="71" y="1085"/>
      <point x="55" y="1106"/>
      <point x="55" y="1127" type="curve" smooth="yes"/>
      <point x="55" y="1149"/>
      <point x="72" y="1171"/>
      <point x="105" y="1171" type="curve" smooth="yes"/>
      <point x="506" y="1171" type="line" smooth="yes"/>
      <point x="539" y="1171"/>
      <point x="556" y="1149"/>
      <point x="556" y="1127" type="curve" smooth="yes"/>
      <point x="556" y="1106"/>
      <point x="540" y="1085"/>
      <point x="507" y="1085" type="curve" smooth="yes"/>
      <point x="345" y="1085" type="line" smooth="no"/>
      <point x="345" y="413" type="line" smooth="yes"/>
      <point x="345" y="195"/>
      <point x="455" y="69"/>
      <point x="654" y="69" type="curve" smooth="yes"/>
      <point x="840" y="69"/>
      <point x="960" y="211"/>
      <point x="960" y="411" type="curve" smooth="yes"/>
      <point x="960" y="1085" type="line" smooth="no"/>
      <point x="839" y="1085" type="line" smooth="yes"/>
      <point x="806" y="1085"/>
      <point x="789" y="1106"/>
      <point x="789" y="1127" type="curve" smooth="yes"/>
      <point x="789" y="1149"/>
      <point x="806" y="1171"/>
      <point x="840" y="1171" type="curve" smooth="yes"/>
      <point x="1173" y="1171" type="line" smooth="yes"/>
      <point x="1220" y="1171"/>
      <point x="1243" y="1149"/>
      <point x="1243" y="1127" type="curve" smooth="yes"/>
      <point x="1243" y="1106"/>
      <point x="1220" y="1085"/>
      <point x="1174" y="1085" type="curve" smooth="yes"/>
      <point x="1056" y="1085" type="line" smooth="no"/>
      <point x="1056" y="411" type="line" smooth="yes"/>
      <point x="1056" y="157"/>
      <point x="893" y="-17"/>
    </contour>
  </outline>
</glyph>
<glyph name="V" format="1">
  <advance width="1240"/>
  <unicode hex="0056"/>
  <outline>
    <contour>
      <point x="1131" y="1171" type="line" smooth="yes"/>
      <point x="1164" y="1171"/>
      <point x="1181" y="1150"/>
      <point x="1181" y="1128" type="curve" smooth="yes"/>
      <point x="1181" y="1107"/>
      <point x="1165" y="1085"/>
      <point x="1132" y="1085" type="curve" smooth="yes"/>
      <point x="1046" y="1085" type="line" smooth="no"/>
      <point x="730" y="20" type="line" smooth="no"/>
      <point x="714" y="-16"/>
      <point x="702" y="-36"/>
      <point x="666" y="-36" type="curve" smooth="yes"/>
      <point x="630" y="-36"/>
      <point x="613" y="-13"/>
      <point x="602" y="20" type="curve" smooth="yes"/>
      <point x="260" y="1085" type="line" smooth="no"/>
      <point x="156" y="1085" type="line" smooth="yes"/>
      <point x="124" y="1085"/>
      <point x="108" y="1106"/>
      <point x="108" y="1127" type="curve" smooth="yes"/>
      <point x="108" y="1149"/>
      <point x="125" y="1171"/>
      <point x="158" y="1171" type="curve" smooth="yes"/>
      <point x="498" y="1171" type="line" smooth="yes"/>
      <point x="531" y="1171"/>
      <point x="548" y="1150"/>
      <point x="548" y="1128" type="curve" smooth="yes"/>
      <point x="548" y="1107"/>
      <point x="532" y="1085"/>
      <point x="499" y="1085" type="curve" smooth="yes"/>
      <point x="368" y="1085" type="line" smooth="no"/>
      <point x="671" y="119" type="line" smooth="no"/>
      <point x="946" y="1085" type="line" smooth="no"/>
      <point x="826" y="1085" type="line" smooth="yes"/>
      <point x="793" y="1085"/>
      <point x="776" y="1107"/>
      <point x="776" y="1128" type="curve" smooth="yes"/>
      <point x="776" y="1150"/>
      <point x="793" y="1171"/>
      <point x="827" y="1171" type="curve" smooth="yes"/>
    </contour>
  </outline>
</glyph>
<glyph name="X" format="1">
  <advance width="1240"/>
  <unicode hex="0058"/>
  <outline>
    <contour>
      <point x="1094" y="1171" type="line" smooth="yes"/>
      <point x="1127" y="1171"/>
      <point x="1134" y="1149"/>
      <point x="1134" y="1127" type="curve" smooth="yes"/>
      <point x="1134" y="1106"/>
      <point x="1128" y="1085"/>
      <point x="1095" y="1085" type="curve" smooth="yes"/>
      <point x="1022" y="1085" type="line" smooth="no"/>
      <point x="686" y="589" type="line" smooth="no"/>
      <point x="1027" y="82" type="line" smooth="no"/>
      <point x="1100" y="82" type="line" smooth="yes"/>
      <point x="1133" y="82"/>
      <point x="1139" y="62"/>
      <point x="1139" y="42" type="curve" smooth="yes"/>
      <point x="1139" y="21"/>
      <point x="1132" y="0"/>
      <point x="1098" y="0" type="curve" smooth="yes"/>
      <point x="766" y="0" type="line" smooth="yes"/>
      <point x="733" y="0"/>
      <point x="716" y="20"/>
      <point x="716" y="41" type="curve" smooth="yes"/>
      <point x="716" y="61"/>
      <point x="732" y="82"/>
      <point x="765" y="82" type="curve" smooth="yes"/>
      <point x="921" y="82" type="line" smooth="no"/>
      <point x="632" y="510" type="line" smooth="no"/>
      <point x="342" y="82" type="line" smooth="no"/>
      <point x="491" y="82" type="line" smooth="yes"/>
      <point x="524" y="82"/>
      <point x="530" y="61"/>
      <point x="530" y="41" type="curve" smooth="yes"/>
      <point x="530" y="20"/>
      <point x="523" y="0"/>
      <point x="490" y="0" type="curve" smooth="yes"/>
      <point x="142" y="0" type="line" smooth="yes"/>
      <point x="109" y="0"/>
      <point x="102" y="20"/>
      <point x="102" y="41" type="curve" smooth="yes"/>
      <point x="102" y="61"/>
      <point x="108" y="82"/>
      <point x="141" y="82" type="curve" smooth="yes"/>
      <point x="226" y="82" type="line" smooth="no"/>
      <point x="574" y="596" type="line" smooth="no"/>
      <point x="245" y="1085" type="line" smooth="no"/>
      <point x="163" y="1085" type="line" smooth="yes"/>
      <point x="130" y="1085"/>
      <point x="124" y="1106"/>
      <point x="124" y="1127" type="curve" smooth="yes"/>
      <point x="124" y="1149"/>
      <point x="131" y="1171"/>
      <point x="164" y="1171" type="curve" smooth="yes"/>
      <point x="500" y="1171" type="line" smooth="yes"/>
      <point x="533" y="1171"/>
      <point x="540" y="1149"/>
      <point x="540" y="1127" type="curve" smooth="yes"/>
      <point x="540" y="1106"/>
      <point x="534" y="1085"/>
      <point x="501" y="1085" type="curve" smooth="yes"/>
      <point x="353" y="1085" type="line" smooth="no"/>
      <point x="628" y="676" type="line" smooth="no"/>
      <point x="905" y="1085" type="line" smooth="no"/>
      <point x="804" y="1085" type="line" smooth="yes"/>
      <point x="771" y="1085"/>
      <point x="765" y="1106"/>
      <point x="765" y="1127" type="curve" smooth="yes"/>
      <point x="765" y="1149"/>
      <point x="772" y="1171"/>
      <point x="805" y="1171" type="curve" smooth="yes"/>
    </contour>
  </outline>
</glyph>
<glyph name="Z" format="1">
  <advance width="1240"/>
  <unicode hex="005a"/>
  <outline>
    <contour>
      <point x="254" y="806" type="curve" smooth="yes"/>
      <point x="254" y="1116" type="line" smooth="no"/>
      <point x="255" y="1144"/>
      <point x="271" y="1171"/>
      <point x="322" y="1171" type="curve" smooth="yes"/>
      <point x="952" y="1171" type="line" smooth="yes"/>
      <point x="984" y="1171"/>
      <point x="1001" y="1144"/>
      <point x="1001" y="1116" type="curve" smooth="yes"/>
      <point x="1001" y="1104"/>
      <point x="998" y="1092"/>
      <point x="991" y="1081" type="curve" smooth="yes"/>
      <point x="369" y="86" type="line" smooth="no"/>
      <point x="942" y="86" type="line" smooth="no"/>
      <point x="942" y="384" type="line" smooth="no"/>
      <point x="944" y="416"/>
      <point x="970" y="435"/>
      <point x="993" y="435" type="curve" smooth="yes"/>
      <point x="1014" y="435"/>
      <point x="1034" y="420"/>
      <point x="1034" y="385" type="curve" smooth="no"/>
      <point x="1044" y="53" type="line" smooth="yes"/>
      <point x="1045" y="19"/>
      <point x="1022" y="0"/>
      <point x="993" y="0" type="curve" smooth="yes"/>
      <point x="271" y="0" type="line" smooth="yes"/>
      <point x="232" y="0"/>
      <point x="219" y="14"/>
      <point x="219" y="31" type="curve" smooth="yes"/>
      <point x="219" y="53"/>
      <point x="239" y="81"/>
      <point x="247" y="95" type="curve" smooth="yes"/>
      <point x="880" y="1085" type="line" smooth="no"/>
      <point x="366" y="1085" type="line" smooth="no"/>
      <point x="350" y="797" type="line" smooth="yes"/>
      <point x="349" y="770"/>
      <point x="327" y="757"/>
      <point x="305" y="757" type="curve" smooth="yes"/>
      <point x="280" y="757"/>
      <point x="254" y="774"/>
    </contour>
  </outline>
</glyph>
<glyph name="bracketleft" format="1">
  <advance width="1240"/>
  <unicode hex="005b"/>
  <outline>
    <contour>
      <point x="802" y="1331" type="line" smooth="yes"/>
      <point x="821" y="1331"/>
      <point x="830" y="1310"/>
      <point x="830" y="1289" type="curve" smooth="yes"/>
      <point x="830" y="1268"/>
      <point x="821" y="1247"/>
      <point x="802" y="1247" type="curve" smooth="yes"/>
      <point x="611" y="1247" type="line" smooth="no"/>
      <point x="611" y="-64" type="line" smooth="no"/>
      <point x="802" y="-64" type="line" smooth="yes"/>
      <point x="821" y="-64"/>
      <point x="830" y="-85"/>
      <point x="830" y="-106" type="curve" smooth="yes"/>
      <point x="830" y="-127"/>
      <point x="821" y="-148"/>
      <point x="802" y="-148" type="curve" smooth="yes"/>
      <point x="570" y="-148" type="line" smooth="yes"/>
      <point x="534" y="-148"/>
      <point x="515" y="-125"/>
      <point x="515" y="-90" type="curve" smooth="yes"/>
      <point x="515" y="1270" type="line" smooth="yes"/>
      <point x="515" y="1308"/>
      <point x="532" y="1331"/>
      <point x="570" y="1331" type="curve" smooth="yes"/>
    </contour>
  </outline>
</glyph>
<glyph name="backslash" format="1">
  <advance width="1240"/>
  <unicode hex="005c"/>
  <outline>
    <contour>
      <point x="991" y="-178" type="line" smooth="yes"/>
      <point x="994" y="-184"/>
      <point x="995" y="-189"/>
      <point x="995" y="-195" type="curve" smooth="yes"/>
      <point x="995" y="-219"/>
      <point x="972" y="-237"/>
      <point x="949" y="-237" type="curve" smooth="yes"/>
      <point x="935" y="-237"/>
      <point x="920" y="-230"/>
      <point x="911" y="-213" type="curve" smooth="yes"/>
      <point x="247" y="1113" type="line" smooth="yes"/>
      <point x="243" y="1121"/>
      <point x="242" y="1128"/>
      <point x="242" y="1134" type="curve" smooth="yes"/>
      <point x="242" y="1158"/>
      <point x="265" y="1173"/>
      <point x="288" y="1173" type="curve" smooth="yes"/>
      <point x="303" y="1173"/>
      <point x="317" y="1166"/>
      <point x="324" y="1152" type="curve" smooth="yes"/>
    </contour>
  </outline>
</glyph>
<glyph name="asciicircum" format="1">
  <advance width="1240"/>
  <unicode hex="005e"/>
  <outline>
    <contour>
      <point x="924" y="436" type="curve" smooth="yes"/>
      <point x="924" y="411"/>
      <point x="901" y="391"/>
      <point x="876" y="391" type="curve" smooth="yes"/>
      <point x="855" y="391"/>
      <point x="839" y="406"/>
      <point x="831" y="422" type="curve" smooth="yes"/>
      <point x="627" y="859" type="line" smooth="no"/>
      <point x="405" y="426" type="line" smooth="yes"/>
      <point x="393" y="402"/>
      <point x="374" y="391"/>
      <point x="356" y="391" type="curve" smooth="yes"/>
      <point x="334" y="391"/>
      <point x="316" y="408"/>
      <point x="316" y="436" type="curve" smooth="yes"/>
      <point x="316" y="448"/>
      <point x="318" y="462"/>
      <point x="326" y="477" type="curve" smooth="yes"/>
      <point x="566" y="964" type="line" smooth="yes"/>
      <point x="586" y="1005"/>
      <point x="606" y="1018"/>
      <point x="625" y="1018" type="curve" smooth="yes"/>
      <point x="643" y="1018"/>
      <point x="661" y="1009"/>
      <point x="680" y="969" type="curve" smooth="yes"/>
      <point x="918" y="460" type="line" smooth="yes"/>
      <point x="921" y="452"/>
      <point x="924" y="444"/>
    </contour>
  </outline>
</glyph>
<glyph name="underscore" format="1">
  <advance width="1240"/>
  <unicode hex="005f"/>
  <outline>
    <contour>
      <point x="1000" y="91" type="line" smooth="yes"/>
      <point x="1030" y="91"/>
      <point x="1045" y="68"/>
      <point x="1045" y="46" type="curve" smooth="yes"/>
      <point x="1045" y="23"/>
      <point x="1030" y="0"/>
      <point x="1000" y="0" type="curve" smooth="yes"/>
      <point x="241" y="0" type="line" smooth="yes"/>
      <point x="211" y="0"/>
      <point x="196" y="23"/>
      <point x="196" y="46" type="curve" smooth="yes"/>
      <point x="196" y="68"/>
      <point x="211" y="91"/>
      <point x="241" y="91" type="curve" smooth="yes"/>
    </contour>
  </outline>
</glyph>
<glyph name="a" format="1">
  <advance width="1240"/>
  <unicode hex="0061"/>
  <outline>
    <contour>
      <point x="814" y="401" type="line" smooth="no"/>
      <point x="525" y="373"/>
      <point x="350" y="364"/>
      <point x="350" y="210" type="curve" smooth="yes"/>
      <point x="350" y="103"/>
      <point x="417" y="65"/>
      <point x="502" y="65" type="curve" smooth="yes"/>
      <point x="621" y="65"/>
      <point x="742" y="113"/>
      <point x="814" y="189" type="curve" smooth="no"/>
    </contour>
    <contour>
      <point x="611" y="731" type="curve" smooth="yes"/>
      <point x="527" y="731"/>
      <point x="461" y="718"/>
      <point x="390" y="686" type="curve" smooth="no"/>
      <point x="385" y="593"/>
      <point x="372" y="531"/>
      <point x="324" y="531" type="curve" smooth="yes"/>
      <point x="283" y="531"/>
      <point x="264" y="563"/>
      <point x="264" y="603" type="curve" smooth="yes"/>
      <point x="264" y="725"/>
      <point x="405" y="813"/>
      <point x="612" y="813" type="curve" smooth="yes"/>
      <point x="849" y="813"/>
      <point x="910" y="674"/>
      <point x="910" y="444" type="curve" smooth="yes"/>
      <point x="910" y="132" type="line" smooth="yes"/>
      <point x="910" y="80"/>
      <point x="936" y="72"/>
      <point x="962" y="72" type="curve" smooth="yes"/>
      <point x="999" y="72"/>
      <point x="1043" y="99"/>
      <point x="1063" y="121" type="curve" smooth="yes"/>
      <point x="1070" y="129"/>
      <point x="1079" y="133"/>
      <point x="1087" y="133" type="curve" smooth="yes"/>
      <point x="1107" y="133"/>
      <point x="1124" y="112"/>
      <point x="1124" y="91" type="curve" smooth="yes"/>
      <point x="1124" y="82"/>
      <point x="1121" y="73"/>
      <point x="1114" y="66" type="curve" smooth="yes"/>
      <point x="1072" y="22"/>
      <point x="1015" y="-7"/>
      <point x="954" y="-7" type="curve" smooth="yes"/>
      <point x="898" y="-7"/>
      <point x="838" y="9"/>
      <point x="821" y="113" type="curve" smooth="no"/>
      <point x="760" y="44"/>
      <point x="637" y="-16"/>
      <point x="491" y="-16" type="curve" smooth="yes"/>
      <point x="340" y="-16"/>
      <point x="253" y="74"/>
      <point x="253" y="210" type="curve" smooth="yes"/>
      <point x="253" y="455"/>
      <point x="547" y="450"/>
      <point x="814" y="470" type="curve" smooth="no"/>
      <point x="814" y="490" type="line" smooth="yes"/>
      <point x="814" y="635"/>
      <point x="769" y="731"/>
    </contour>
  </outline>
</glyph>
<glyph name="b" format="1">
  <advance width="1240"/>
  <unicode hex="0062"/>
  <outline>
    <contour>
      <point x="386" y="1141" type="curve" smooth="yes"/>
      <point x="386" y="707" type="line" smooth="no"/>
      <point x="460" y="771"/>
      <point x="541" y="813"/>
      <point x="670" y="813" type="curve" smooth="yes"/>
      <point x="904" y="813"/>
      <point x="1048" y="636"/>
      <point x="1048" y="398" type="curve" smooth="yes"/>
      <point x="1048" y="156"/>
      <point x="909" y="-17"/>
      <point x="674" y="-17" type="curve" smooth="yes"/>
      <point x="547" y="-17"/>
      <point x="446" y="37"/>
      <point x="382" y="102" type="curve" smooth="no"/>
      <point x="382" y="0"/>
      <point x="356" y="-4"/>
      <point x="331" y="-4" type="curve" smooth="yes"/>
      <point x="310" y="-4"/>
      <point x="290" y="7"/>
      <point x="290" y="74" type="curve" smooth="yes"/>
      <point x="290" y="1091" type="line" smooth="no"/>
      <point x="162" y="1083" type="line" smooth="yes"/>
      <point x="155" y="1082"/>
      <point x="148" y="1080"/>
      <point x="142" y="1080" type="curve" smooth="yes"/>
      <point x="118" y="1080"/>
      <point x="103" y="1098"/>
      <point x="103" y="1118" type="curve" smooth="yes"/>
      <point x="103" y="1134"/>
      <point x="112" y="1154"/>
      <point x="136" y="1159" type="curve" smooth="no"/>
      <point x="325" y="1178" type="line" smooth="yes"/>
      <point x="333" y="1179"/>
      <point x="339" y="1180"/>
      <point x="345" y="1180" type="curve" smooth="yes"/>
      <point x="374" y="1180"/>
      <point x="386" y="1164"/>
    </contour>
    <contour>
      <point x="952" y="398" type="curve" smooth="yes"/>
      <point x="952" y="575"/>
      <point x="855" y="731"/>
      <point x="664" y="731" type="curve" smooth="yes"/>
      <point x="537" y="731"/>
      <point x="449" y="681"/>
      <point x="386" y="602" type="curve" smooth="no"/>
      <point x="386" y="210" type="line" smooth="no"/>
      <point x="444" y="127"/>
      <point x="537" y="65"/>
      <point x="672" y="65" type="curve" smooth="yes"/>
      <point x="858" y="65"/>
      <point x="952" y="219"/>
    </contour>
  </outline>
</glyph>
<glyph name="e" format="1">
  <advance width="1240"/>
  <unicode hex="0065"/>
  <outline>
    <contour>
      <point x="311" y="461" type="curve" smooth="no"/>
      <point x="929" y="465" type="line" smooth="no"/>
      <point x="923" y="563"/>
      <point x="893" y="731"/>
      <point x="656" y="731" type="curve" smooth="yes"/>
      <point x="461" y="731"/>
      <point x="335" y="631"/>
    </contour>
    <contour>
      <point x="654" y="813" type="curve" smooth="yes"/>
      <point x="860" y="813"/>
      <point x="1014" y="698"/>
      <point x="1014" y="479" type="curve" smooth="yes"/>
      <point x="1014" y="429"/>
      <point x="984" y="392"/>
      <point x="937" y="392" type="curve" smooth="yes"/>
      <point x="308" y="387" type="line" smooth="no"/>
      <point x="315" y="169"/>
      <point x="459" y="65"/>
      <point x="657" y="65" type="curve" smooth="yes"/>
      <point x="754" y="65"/>
      <point x="856" y="100"/>
      <point x="934" y="174" type="curve" smooth="no"/>
      <point x="949" y="186"/>
      <point x="963" y="191"/>
      <point x="975" y="191" type="curve" smooth="yes"/>
      <point x="999" y="191"/>
      <point x="1015" y="171"/>
      <point x="1015" y="147" type="curve" smooth="yes"/>
      <point x="1015" y="133"/>
      <point x="1009" y="118"/>
      <point x="997" y="105" type="curve" smooth="yes"/>
      <point x="923" y="25"/>
      <point x="769" y="-17"/>
      <point x="665" y="-17" type="curve" smooth="yes"/>
      <point x="398" y="-17"/>
      <point x="212" y="141"/>
      <point x="212" y="407" type="curve" smooth="yes"/>
      <point x="212" y="663"/>
      <point x="413" y="813"/>
    </contour>
  </outline>
</glyph>
<glyph name="f" format="1">
  <advance width="1240"/>
  <unicode hex="0066"/>
  <outline>
    <contour>
      <point x="1036" y="1020" type="line" smooth="yes"/>
      <point x="1036" y="982"/>
      <point x="1011" y="964"/>
      <point x="987" y="964" type="curve" smooth="yes"/>
      <point x="963" y="964"/>
      <point x="940" y="981"/>
      <point x="940" y="1016" type="curve" smooth="yes"/>
      <point x="940" y="1109" type="line" smooth="no"/>
      <point x="707" y="1093"/>
      <point x="641" y="1018"/>
      <point x="641" y="832" type="curve" smooth="yes"/>
      <point x="641" y="766" type="line" smooth="no"/>
      <point x="950" y="766" type="line" smooth="yes"/>
      <point x="977" y="766"/>
      <point x="990" y="745"/>
      <point x="990" y="725" type="curve" smooth="yes"/>
      <point x="990" y="704"/>
      <point x="976" y="684"/>
      <point x="949" y="684" type="curve" smooth="yes"/>
      <point x="640" y="684" type="line" smooth="no"/>
      <point x="641" y="82" type="line" smooth="no"/>
      <point x="1003" y="82" type="line" smooth="yes"/>
      <point x="1029" y="82"/>
      <point x="1042" y="61"/>
      <point x="1042" y="41" type="curve" smooth="yes"/>
      <point x="1042" y="20"/>
      <point x="1029" y="0"/>
      <point x="1002" y="0" type="curve" smooth="yes"/>
      <point x="327" y="0" type="line" smooth="yes"/>
      <point x="296" y="0"/>
      <point x="281" y="21"/>
      <point x="281" y="42" type="curve" smooth="yes"/>
      <point x="281" y="62"/>
      <point x="295" y="82"/>
      <point x="323" y="82" type="curve" smooth="yes"/>
      <point x="544" y="82" type="line" smooth="no"/>
      <point x="544" y="684" type="line" smooth="no"/>
      <point x="352" y="684" type="line" smooth="yes"/>
      <point x="321" y="684"/>
      <point x="306" y="705"/>
      <point x="306" y="726" type="curve" smooth="yes"/>
      <point x="306" y="746"/>
      <point x="320" y="766"/>
      <point x="348" y="766" type="curve" smooth="yes"/>
      <point x="544" y="766" type="line" smooth="no"/>
      <point x="544" y="838" type="line" smooth="yes"/>
      <point x="544" y="1079"/>
      <point x="705" y="1188"/>
      <point x="979" y="1188" type="curve" smooth="yes"/>
      <point x="1009" y="1188"/>
      <point x="1036" y="1169"/>
      <point x="1036" y="1137" type="curve" smooth="yes"/>
    </contour>
  </outline>
</glyph>
<glyph name="h" format="1">
  <advance width="1240"/>
  <unicode hex="0068"/>
  <outline>
    <contour>
      <point x="716" y="731" type="curve" smooth="yes"/>
      <point x="524" y="731"/>
      <point x="396" y="601"/>
      <point x="396" y="497" type="curve" smooth="yes"/>
      <point x="396" y="82" type="line" smooth="no"/>
      <point x="501" y="82" type="line" smooth="yes"/>
      <point x="533" y="82"/>
      <point x="549" y="62"/>
      <point x="549" y="42" type="curve" smooth="yes"/>
      <point x="549" y="21"/>
      <point x="532" y="0"/>
      <point x="499" y="0" type="curve" smooth="yes"/>
      <point x="196" y="0" type="line" smooth="yes"/>
      <point x="165" y="0"/>
      <point x="150" y="22"/>
      <point x="150" y="43" type="curve" smooth="yes"/>
      <point x="150" y="63"/>
      <point x="164" y="82"/>
      <point x="192" y="82" type="curve" smooth="yes"/>
      <point x="300" y="82" type="line" smooth="no"/>
      <point x="300" y="1091" type="line" smooth="no"/>
      <point x="152" y="1082" type="line" smooth="yes"/>
      <point x="128" y="1081"/>
      <point x="113" y="1098"/>
      <point x="113" y="1118" type="curve" smooth="yes"/>
      <point x="113" y="1134"/>
      <point x="122" y="1157"/>
      <point x="146" y="1159" type="curve" smooth="yes"/>
      <point x="335" y="1178" type="line" smooth="yes"/>
      <point x="343" y="1179"/>
      <point x="349" y="1180"/>
      <point x="355" y="1180" type="curve" smooth="yes"/>
      <point x="384" y="1180"/>
      <point x="396" y="1164"/>
      <point x="396" y="1141" type="curve" smooth="yes"/>
      <point x="396" y="639" type="line" smooth="no"/>
      <point x="446" y="737"/>
      <point x="573" y="813"/>
      <point x="711" y="813" type="curve" smooth="yes"/>
      <point x="904" y="813"/>
      <point x="992" y="707"/>
      <point x="992" y="533" type="curve" smooth="yes"/>
      <point x="992" y="82" type="line" smooth="no"/>
      <point x="1101" y="82" type="line" smooth="yes"/>
      <point x="1128" y="82"/>
      <point x="1141" y="62"/>
      <point x="1141" y="42" type="curve" smooth="yes"/>
      <point x="1141" y="21"/>
      <point x="1127" y="0"/>
      <point x="1099" y="0" type="curve" smooth="yes"/>
      <point x="754" y="0" type="line" smooth="yes"/>
      <point x="723" y="0"/>
      <point x="708" y="22"/>
      <point x="708" y="43" type="curve" smooth="yes"/>
      <point x="708" y="63"/>
      <point x="722" y="82"/>
      <point x="750" y="82" type="curve" smooth="yes"/>
      <point x="896" y="82" type="line" smooth="no"/>
      <point x="896" y="540" type="line" smooth="yes"/>
      <point x="896" y="659"/>
      <point x="837" y="731"/>
    </contour>
  </outline>
</glyph>
<glyph name="k" format="1">
  <advance width="1240"/>
  <unicode hex="006b"/>
  <outline>
    <contour>
      <point x="464" y="399" type="line" smooth="no"/>
      <point x="847" y="692" type="line" smooth="no"/>
      <point x="744" y="692" type="line" smooth="yes"/>
      <point x="716" y="692"/>
      <point x="702" y="712"/>
      <point x="702" y="733" type="curve" smooth="yes"/>
      <point x="702" y="754"/>
      <point x="717" y="775"/>
      <point x="748" y="775" type="curve" smooth="yes"/>
      <point x="1065" y="775" type="line" smooth="yes"/>
      <point x="1094" y="775"/>
      <point x="1106" y="753"/>
      <point x="1106" y="729" type="curve" smooth="yes"/>
      <point x="1106" y="711"/>
      <point x="1088" y="692"/>
      <point x="1066" y="692" type="curve" smooth="yes"/>
      <point x="977" y="692" type="line" smooth="no"/>
      <point x="660" y="446" type="line" smooth="no"/>
      <point x="1001" y="82" type="line" smooth="no"/>
      <point x="1088" y="82" type="line" smooth="yes"/>
      <point x="1115" y="82"/>
      <point x="1128" y="61"/>
      <point x="1128" y="41" type="curve" smooth="yes"/>
      <point x="1128" y="20"/>
      <point x="1114" y="0"/>
      <point x="1088" y="0" type="curve" smooth="yes"/>
      <point x="775" y="0" type="line" smooth="yes"/>
      <point x="747" y="0"/>
      <point x="733" y="21"/>
      <point x="733" y="41" type="curve" smooth="yes"/>
      <point x="733" y="62"/>
      <point x="748" y="82"/>
      <point x="779" y="82" type="curve" smooth="yes"/>
      <point x="889" y="82" type="line" smooth="no"/>
      <point x="590" y="400" type="line" smooth="no"/>
      <point x="464" y="308" type="line" smooth="no"/>
      <point x="464" y="82" type="line" smooth="no"/>
      <point x="535" y="82" type="line" smooth="yes"/>
      <point x="561" y="82"/>
      <point x="574" y="61"/>
      <point x="574" y="41" type="curve" smooth="yes"/>
      <point x="574" y="20"/>
      <point x="561" y="0"/>
      <point x="534" y="0" type="curve" smooth="yes"/>
      <point x="200" y="0" type="line" smooth="yes"/>
      <point x="170" y="0"/>
      <point x="154" y="21"/>
      <point x="154" y="42" type="curve" smooth="yes"/>
      <point x="154" y="62"/>
      <point x="168" y="82"/>
      <point x="196" y="82" type="curve" smooth="yes"/>
      <point x="368" y="82" type="line" smooth="no"/>
      <point x="368" y="1082" type="line" smooth="no"/>
      <point x="198" y="1058" type="line" smooth="yes"/>
      <point x="195" y="1057"/>
      <point x="193" y="1057"/>
      <point x="191" y="1057" type="curve" smooth="yes"/>
      <point x="164" y="1057"/>
      <point x="150" y="1078"/>
      <point x="150" y="1099" type="curve" smooth="yes"/>
      <point x="150" y="1118"/>
      <point x="160" y="1136"/>
      <point x="182" y="1139" type="curve" smooth="yes"/>
      <point x="416" y="1181" type="line" smooth="yes"/>
      <point x="418" y="1181"/>
      <point x="423" y="1182"/>
      <point x="428" y="1182" type="curve" smooth="yes"/>
      <point x="449" y="1182"/>
      <point x="464" y="1170"/>
      <point x="464" y="1150" type="curve" smooth="yes"/>
    </contour>
  </outline>
</glyph>
<glyph name="m" format="1">
  <advance width="1240"/>
  <unicode hex="006d"/>
  <outline>
    <contour>
      <point x="591" y="540" type="line" smooth="yes"/>
      <point x="591" y="678"/>
      <point x="546" y="731"/>
      <point x="486" y="731" type="curve" smooth="yes"/>
      <point x="399" y="731"/>
      <point x="312" y="621"/>
      <point x="307" y="503" type="curve" smooth="no"/>
      <point x="307" y="82" type="line" smooth="no"/>
      <point x="392" y="82" type="line" smooth="yes"/>
      <point x="424" y="82"/>
      <point x="440" y="62"/>
      <point x="440" y="42" type="curve" smooth="yes"/>
      <point x="440" y="21"/>
      <point x="423" y="0"/>
      <point x="390" y="0" type="curve" smooth="yes"/>
      <point x="107" y="0" type="line" smooth="yes"/>
      <point x="76" y="0"/>
      <point x="61" y="22"/>
      <point x="61" y="43" type="curve" smooth="yes"/>
      <point x="61" y="63"/>
      <point x="75" y="82"/>
      <point x="103" y="82" type="curve" smooth="yes"/>
      <point x="211" y="82" type="line" smooth="no"/>
      <point x="211" y="709" type="line" smooth="no"/>
      <point x="103" y="687" type="line" smooth="yes"/>
      <point x="96" y="685"/>
      <point x="89" y="684"/>
      <point x="83" y="684" type="curve" smooth="yes"/>
      <point x="59" y="684"/>
      <point x="44" y="702"/>
      <point x="44" y="722" type="curve" smooth="yes"/>
      <point x="44" y="738"/>
      <point x="53" y="757"/>
      <point x="77" y="763" type="curve" smooth="no"/>
      <point x="241" y="796" type="line" smooth="yes"/>
      <point x="248" y="797"/>
      <point x="254" y="798"/>
      <point x="259" y="798" type="curve" smooth="yes"/>
      <point x="286" y="798"/>
      <point x="297" y="782"/>
      <point x="298" y="759" type="curve" smooth="yes"/>
      <point x="303" y="639" type="line" smooth="no"/>
      <point x="342" y="750"/>
      <point x="411" y="813"/>
      <point x="496" y="813" type="curve" smooth="yes"/>
      <point x="572" y="813"/>
      <point x="640" y="763"/>
      <point x="671" y="654" type="curve" smooth="no"/>
      <point x="718" y="758"/>
      <point x="795" y="813"/>
      <point x="878" y="813" type="curve" smooth="yes"/>
      <point x="983" y="813"/>
      <point x="1067" y="724"/>
      <point x="1067" y="533" type="curve" smooth="yes"/>
      <point x="1067" y="82" type="line" smooth="no"/>
      <point x="1176" y="82" type="line" smooth="yes"/>
      <point x="1203" y="82"/>
      <point x="1216" y="62"/>
      <point x="1216" y="42" type="curve" smooth="yes"/>
      <point x="1216" y="21"/>
      <point x="1202" y="0"/>
      <point x="1174" y="0" type="curve" smooth="yes"/>
      <point x="1017" y="0" type="line" smooth="yes"/>
      <point x="986" y="0"/>
      <point x="971" y="22"/>
      <point x="971" y="43" type="curve" smooth="yes"/>
      <point x="971" y="540" type="line" smooth="yes"/>
      <point x="971" y="679"/>
      <point x="933" y="731"/>
      <point x="872" y="731" type="curve" smooth="yes"/>
      <point x="785" y="731"/>
      <point x="689" y="625"/>
      <point x="687" y="509" type="curve" smooth="no"/>
      <point x="687" y="82" type="line" smooth="no"/>
      <point x="805" y="82" type="line" smooth="yes"/>
      <point x="832" y="82"/>
      <point x="845" y="62"/>
      <point x="845" y="42" type="curve" smooth="yes"/>
      <point x="845" y="21"/>
      <point x="831" y="0"/>
      <point x="803" y="0" type="curve" smooth="yes"/>
      <point x="637" y="0" type="line" smooth="yes"/>
      <point x="606" y="0"/>
      <point x="591" y="22"/>
      <point x="591" y="43" type="curve" smooth="yes"/>
    </contour>
  </outline>
</glyph>
<glyph name="n" format="1">
  <advance width="1240"/>
  <unicode hex="006e"/>
  <outline>
    <contour>
      <point x="714" y="731" type="curve" smooth="yes"/>
      <point x="522" y="731"/>
      <point x="394" y="604"/>
      <point x="394" y="503" type="curve" smooth="yes"/>
      <point x="394" y="82" type="line" smooth="no"/>
      <point x="499" y="82" type="line" smooth="yes"/>
      <point x="531" y="82"/>
      <point x="547" y="62"/>
      <point x="547" y="42" type="curve" smooth="yes"/>
      <point x="547" y="21"/>
      <point x="530" y="0"/>
      <point x="497" y="0" type="curve" smooth="yes"/>
      <point x="194" y="0" type="line" smooth="yes"/>
      <point x="163" y="0"/>
      <point x="148" y="22"/>
      <point x="148" y="43" type="curve" smooth="yes"/>
      <point x="148" y="63"/>
      <point x="162" y="82"/>
      <point x="190" y="82" type="curve" smooth="yes"/>
      <point x="298" y="82" type="line" smooth="no"/>
      <point x="298" y="709" type="line" smooth="no"/>
      <point x="190" y="687" type="line" smooth="yes"/>
      <point x="183" y="685"/>
      <point x="176" y="684"/>
      <point x="170" y="684" type="curve" smooth="yes"/>
      <point x="146" y="684"/>
      <point x="131" y="702"/>
      <point x="131" y="722" type="curve" smooth="yes"/>
      <point x="131" y="738"/>
      <point x="140" y="757"/>
      <point x="164" y="763" type="curve" smooth="no"/>
      <point x="328" y="796" type="line" smooth="yes"/>
      <point x="335" y="797"/>
      <point x="341" y="798"/>
      <point x="346" y="798" type="curve" smooth="yes"/>
      <point x="373" y="798"/>
      <point x="384" y="782"/>
      <point x="385" y="759" type="curve" smooth="yes"/>
      <point x="390" y="639" type="line" smooth="no"/>
      <point x="440" y="737"/>
      <point x="570" y="813"/>
      <point x="709" y="813" type="curve" smooth="yes"/>
      <point x="902" y="813"/>
      <point x="990" y="707"/>
      <point x="990" y="533" type="curve" smooth="yes"/>
      <point x="990" y="82" type="line" smooth="no"/>
      <point x="1099" y="82" type="line" smooth="yes"/>
      <point x="1126" y="82"/>
      <point x="1139" y="62"/>
      <point x="1139" y="42" type="curve" smooth="yes"/>
      <point x="1139" y="21"/>
      <point x="1125" y="0"/>
      <point x="1097" y="0" type="curve" smooth="yes"/>
      <point x="752" y="0" type="line" smooth="yes"/>
      <point x="721" y="0"/>
      <point x="706" y="22"/>
      <point x="706" y="43" type="curve" smooth="yes"/>
      <point x="706" y="63"/>
      <point x="720" y="82"/>
      <point x="748" y="82" type="curve" smooth="yes"/>
      <point x="894" y="82" type="line" smooth="no"/>
      <point x="894" y="540" type="line" smooth="yes"/>
      <point x="894" y="659"/>
      <point x="835" y="731"/>
    </contour>
  </outline>
</glyph>
<glyph name="o" format="1">
  <advance width="1240"/>
  <unicode hex="006f"/>
  <outline>
    <contour>
      <point x="620" y="813" type="curve" smooth="yes"/>
      <point x="873" y="813"/>
      <point x="1044" y="654"/>
      <point x="1044" y="398" type="curve" smooth="yes"/>
      <point x="1044" y="145"/>
      <point x="873" y="-17"/>
      <point x="620" y="-17" type="curve" smooth="yes"/>
      <point x="367" y="-17"/>
      <point x="196" y="145"/>
      <point x="196" y="398" type="curve" smooth="yes"/>
      <point x="196" y="654"/>
      <point x="367" y="813"/>
    </contour>
    <contour>
      <point x="620" y="65" type="curve" smooth="yes"/>
      <point x="821" y="65"/>
      <point x="936" y="203"/>
      <point x="936" y="398" type="curve" smooth="yes"/>
      <point x="936" y="592"/>
      <point x="821" y="731"/>
      <point x="620" y="731" type="curve" smooth="yes"/>
      <point x="419" y="731"/>
      <point x="304" y="592"/>
      <point x="304" y="398" type="curve" smooth="yes"/>
      <point x="304" y="203"/>
      <point x="419" y="65"/>
    </contour>
  </outline>
</glyph>
<glyph name="p" format="1">
  <advance width="1240"/>
  <unicode hex="0070"/>
  <outline>
    <contour>
      <point x="399" y="690" type="line" smooth="no"/>
      <point x="463" y="755"/>
      <point x="566" y="813"/>
      <point x="693" y="813" type="curve" smooth="yes"/>
      <point x="928" y="813"/>
      <point x="1067" y="640"/>
      <point x="1067" y="398" type="curve" smooth="yes"/>
      <point x="1067" y="160"/>
      <point x="923" y="-17"/>
      <point x="689" y="-17" type="curve" smooth="yes"/>
      <point x="560" y="-17"/>
      <point x="479" y="25"/>
      <point x="405" y="89" type="curve" smooth="no"/>
      <point x="405" y="-288" type="line" smooth="no"/>
      <point x="621" y="-288" type="line" smooth="yes"/>
      <point x="649" y="-288"/>
      <point x="663" y="-307"/>
      <point x="663" y="-327" type="curve" smooth="yes"/>
      <point x="663" y="-348"/>
      <point x="648" y="-370"/>
      <point x="617" y="-370" type="curve" smooth="yes"/>
      <point x="221" y="-370" type="line" smooth="yes"/>
      <point x="193" y="-370"/>
      <point x="179" y="-349"/>
      <point x="179" y="-328" type="curve" smooth="yes"/>
      <point x="179" y="-308"/>
      <point x="192" y="-288"/>
      <point x="219" y="-288" type="curve" smooth="yes"/>
      <point x="309" y="-288" type="line" smooth="no"/>
      <point x="309" y="708" type="line" smooth="no"/>
      <point x="201" y="687" type="line" smooth="yes"/>
      <point x="194" y="686"/>
      <point x="187" y="684"/>
      <point x="181" y="684" type="curve" smooth="yes"/>
      <point x="157" y="684"/>
      <point x="142" y="702"/>
      <point x="142" y="722" type="curve" smooth="yes"/>
      <point x="142" y="738"/>
      <point x="151" y="757"/>
      <point x="175" y="763" type="curve" smooth="no"/>
      <point x="339" y="796" type="line" smooth="yes"/>
      <point x="346" y="797"/>
      <point x="352" y="798"/>
      <point x="357" y="798" type="curve" smooth="yes"/>
      <point x="384" y="798"/>
      <point x="395" y="782"/>
      <point x="396" y="759" type="curve" smooth="yes"/>
    </contour>
    <contour>
      <point x="971" y="398" type="curve" smooth="yes"/>
      <point x="971" y="577"/>
      <point x="877" y="731"/>
      <point x="691" y="731" type="curve" smooth="yes"/>
      <point x="556" y="731"/>
      <point x="463" y="669"/>
      <point x="405" y="586" type="curve" smooth="no"/>
      <point x="405" y="194" type="line" smooth="no"/>
      <point x="468" y="115"/>
      <point x="556" y="65"/>
      <point x="683" y="65" type="curve" smooth="yes"/>
      <point x="874" y="65"/>
      <point x="971" y="221"/>
    </contour>
  </outline>
</glyph>
<glyph name="q" format="1">
  <advance width="1240"/>
  <unicode hex="0071"/>
  <outline>
    <contour>
      <point x="958" y="-288" type="line" smooth="no"/>
      <point x="1048" y="-288" type="line" smooth="yes"/>
      <point x="1075" y="-288"/>
      <point x="1088" y="-308"/>
      <point x="1088" y="-328" type="curve" smooth="yes"/>
      <point x="1088" y="-349"/>
      <point x="1074" y="-370"/>
      <point x="1046" y="-370" type="curve" smooth="yes"/>
      <point x="650" y="-370" type="line" smooth="yes"/>
      <point x="619" y="-370"/>
      <point x="604" y="-348"/>
      <point x="604" y="-327" type="curve" smooth="yes"/>
      <point x="604" y="-307"/>
      <point x="618" y="-288"/>
      <point x="646" y="-288" type="curve" smooth="yes"/>
      <point x="862" y="-288" type="line" smooth="no"/>
      <point x="862" y="89" type="line" smooth="no"/>
      <point x="788" y="25"/>
      <point x="707" y="-17"/>
      <point x="578" y="-17" type="curve" smooth="yes"/>
      <point x="344" y="-17"/>
      <point x="200" y="160"/>
      <point x="200" y="398" type="curve" smooth="yes"/>
      <point x="200" y="640"/>
      <point x="339" y="813"/>
      <point x="574" y="813" type="curve" smooth="yes"/>
      <point x="701" y="813"/>
      <point x="802" y="759"/>
      <point x="866" y="694" type="curve" smooth="no"/>
      <point x="866" y="796"/>
      <point x="892" y="800"/>
      <point x="917" y="800" type="curve" smooth="yes"/>
      <point x="938" y="800"/>
      <point x="958" y="791"/>
      <point x="958" y="724" type="curve" smooth="yes"/>
    </contour>
    <contour>
      <point x="296" y="398" type="curve" smooth="yes"/>
      <point x="296" y="221"/>
      <point x="393" y="65"/>
      <point x="584" y="65" type="curve" smooth="yes"/>
      <point x="711" y="65"/>
      <point x="799" y="115"/>
      <point x="862" y="194" type="curve" smooth="no"/>
      <point x="862" y="586" type="line" smooth="no"/>
      <point x="804" y="669"/>
      <point x="711" y="731"/>
      <point x="576" y="731" type="curve" smooth="yes"/>
      <point x="390" y="731"/>
      <point x="296" y="577"/>
    </contour>
  </outline>
</glyph>
<glyph name="r" format="1">
  <advance width="1240"/>
  <unicode hex="0072"/>
  <outline>
    <contour>
      <point x="920" y="731" type="line" smooth="no"/>
      <point x="749" y="731"/>
      <point x="595" y="664"/>
      <point x="540" y="526" type="curve" smooth="no"/>
      <point x="540" y="82" type="line" smooth="no"/>
      <point x="876" y="82" type="line" smooth="yes"/>
      <point x="903" y="82"/>
      <point x="916" y="62"/>
      <point x="916" y="41" type="curve" smooth="yes"/>
      <point x="916" y="21"/>
      <point x="902" y="0"/>
      <point x="875" y="0" type="curve" smooth="yes"/>
      <point x="265" y="0" type="line" smooth="yes"/>
      <point x="234" y="0"/>
      <point x="219" y="21"/>
      <point x="219" y="42" type="curve" smooth="yes"/>
      <point x="219" y="62"/>
      <point x="233" y="82"/>
      <point x="261" y="82" type="curve" smooth="yes"/>
      <point x="444" y="82" type="line" smooth="no"/>
      <point x="444" y="709" type="line" smooth="no"/>
      <point x="322" y="684" type="line" smooth="yes"/>
      <point x="318" y="683"/>
      <point x="314" y="683"/>
      <point x="310" y="683" type="curve" smooth="yes"/>
      <point x="283" y="683"/>
      <point x="270" y="703"/>
      <point x="270" y="723" type="curve" smooth="yes"/>
      <point x="270" y="740"/>
      <point x="280" y="757"/>
      <point x="300" y="761" type="curve" smooth="yes"/>
      <point x="471" y="795" type="line" smooth="yes"/>
      <point x="480" y="797"/>
      <point x="488" y="798"/>
      <point x="494" y="798" type="curve" smooth="yes"/>
      <point x="526" y="798"/>
      <point x="531" y="775"/>
      <point x="532" y="742" type="curve" smooth="yes"/>
      <point x="536" y="638" type="line" smooth="no"/>
      <point x="607" y="747"/>
      <point x="732" y="813"/>
      <point x="928" y="813" type="curve" smooth="yes"/>
      <point x="994" y="813"/>
      <point x="1016" y="791"/>
      <point x="1016" y="753" type="curve" smooth="yes"/>
      <point x="1016" y="615" type="line" smooth="yes"/>
      <point x="1016" y="577"/>
      <point x="992" y="559"/>
      <point x="967" y="559" type="curve" smooth="yes"/>
      <point x="944" y="559"/>
      <point x="920" y="576"/>
      <point x="920" y="611" type="curve" smooth="yes"/>
    </contour>
  </outline>
</glyph>
<glyph name="w" format="1">
  <advance width="1240"/>
  <unicode hex="0077"/>
  <outline>
    <contour>
      <point x="765" y="774" type="line" smooth="yes"/>
      <point x="798" y="774"/>
      <point x="804" y="753"/>
      <point x="804" y="732" type="curve" smooth="yes"/>
      <point x="804" y="712"/>
      <point x="798" y="692"/>
      <point x="766" y="692" type="curve" smooth="yes"/>
      <point x="657" y="692" type="line" smooth="no"/>
      <point x="869" y="92" type="line" smooth="no"/>
      <point x="1038" y="692" type="line" smooth="no"/>
      <point x="973" y="692" type="line" smooth="yes"/>
      <point x="940" y="692"/>
      <point x="934" y="712"/>
      <point x="934" y="732" type="curve" smooth="yes"/>
      <point x="934" y="753"/>
      <point x="941" y="774"/>
      <point x="974" y="774" type="curve" smooth="yes"/>
      <point x="1195" y="774" type="line" smooth="yes"/>
      <point x="1233" y="774"/>
      <point x="1241" y="754"/>
      <point x="1241" y="733" type="curve" smooth="yes"/>
      <point x="1241" y="713"/>
      <point x="1234" y="692"/>
      <point x="1199" y="692" type="curve" smooth="yes"/>
      <point x="1130" y="692" type="line" smooth="no"/>
      <point x="938" y="54" type="line" smooth="yes"/>
      <point x="919" y="-8"/>
      <point x="893" y="-14"/>
      <point x="866" y="-14" type="curve" smooth="yes"/>
      <point x="839" y="-14"/>
      <point x="811" y="-8"/>
      <point x="786" y="59" type="curve" smooth="yes"/>
      <point x="651" y="433" type="line" smooth="no"/>
      <point x="507" y="54" type="line" smooth="yes"/>
      <point x="484" y="-8"/>
      <point x="462" y="-14"/>
      <point x="435" y="-14" type="curve" smooth="yes"/>
      <point x="408" y="-14"/>
      <point x="378" y="-9"/>
      <point x="355" y="59" type="curve" smooth="yes"/>
      <point x="146" y="692" type="line" smooth="no"/>
      <point x="68" y="692" type="line" smooth="yes"/>
      <point x="34" y="692"/>
      <point x="26" y="713"/>
      <point x="26" y="733" type="curve" smooth="yes"/>
      <point x="26" y="754"/>
      <point x="34" y="774"/>
      <point x="72" y="774" type="curve" smooth="yes"/>
      <point x="307" y="774" type="line" smooth="yes"/>
      <point x="340" y="774"/>
      <point x="346" y="753"/>
      <point x="346" y="732" type="curve" smooth="yes"/>
      <point x="346" y="712"/>
      <point x="340" y="692"/>
      <point x="308" y="692" type="curve" smooth="yes"/>
      <point x="256" y="692" type="line" smooth="no"/>
      <point x="438" y="92" type="line" smooth="no"/>
      <point x="607" y="555" type="line" smooth="no"/>
      <point x="558" y="692" type="line" smooth="no"/>
      <point x="507" y="692" type="line" smooth="yes"/>
      <point x="473" y="692"/>
      <point x="465" y="713"/>
      <point x="465" y="733" type="curve" smooth="yes"/>
      <point x="465" y="754"/>
      <point x="473" y="774"/>
      <point x="511" y="774" type="curve" smooth="yes"/>
    </contour>
  </outline>
</glyph>
<glyph name="x" format="1">
  <advance width="1240"/>
  <unicode hex="0078"/>
  <outline>
    <contour>
      <point x="778" y="0" type="line" smooth="yes"/>
      <point x="740" y="0"/>
      <point x="722" y="21"/>
      <point x="722" y="42" type="curve" smooth="yes"/>
      <point x="722" y="62"/>
      <point x="739" y="82"/>
      <point x="773" y="82" type="curve" smooth="yes"/>
      <point x="853" y="82" type="line" smooth="no"/>
      <point x="628" y="340" type="line" smooth="no"/>
      <point x="407" y="82" type="line" smooth="no"/>
      <point x="466" y="82" type="line" smooth="yes"/>
      <point x="498" y="82"/>
      <point x="504" y="62"/>
      <point x="504" y="42" type="curve" smooth="yes"/>
      <point x="504" y="21"/>
      <point x="497" y="0"/>
      <point x="464" y="0" type="curve" smooth="yes"/>
      <point x="217" y="0" type="line" smooth="yes"/>
      <point x="179" y="0"/>
      <point x="171" y="21"/>
      <point x="171" y="42" type="curve" smooth="yes"/>
      <point x="171" y="62"/>
      <point x="178" y="82"/>
      <point x="213" y="82" type="curve" smooth="yes"/>
      <point x="297" y="82" type="line" smooth="no"/>
      <point x="570" y="406" type="line" smooth="no"/>
      <point x="320" y="692" type="line" smooth="no"/>
      <point x="232" y="692" type="line" smooth="yes"/>
      <point x="194" y="692"/>
      <point x="186" y="713"/>
      <point x="186" y="734" type="curve" smooth="yes"/>
      <point x="186" y="754"/>
      <point x="193" y="774"/>
      <point x="228" y="774" type="curve" smooth="yes"/>
      <point x="465" y="774" type="line" smooth="yes"/>
      <point x="497" y="774"/>
      <point x="503" y="754"/>
      <point x="503" y="734" type="curve" smooth="yes"/>
      <point x="503" y="713"/>
      <point x="496" y="692"/>
      <point x="463" y="692" type="curve" smooth="yes"/>
      <point x="423" y="692" type="line" smooth="no"/>
      <point x="623" y="469" type="line" smooth="no"/>
      <point x="811" y="692" type="line" smooth="no"/>
      <point x="766" y="692" type="line" smooth="yes"/>
      <point x="728" y="692"/>
      <point x="720" y="713"/>
      <point x="720" y="734" type="curve" smooth="yes"/>
      <point x="720" y="754"/>
      <point x="727" y="774"/>
      <point x="762" y="774" type="curve" smooth="yes"/>
      <point x="1029" y="774" type="line" smooth="yes"/>
      <point x="1062" y="774"/>
      <point x="1068" y="754"/>
      <point x="1068" y="734" type="curve" smooth="yes"/>
      <point x="1068" y="713"/>
      <point x="1061" y="692"/>
      <point x="1027" y="692" type="curve" smooth="yes"/>
      <point x="929" y="692" type="line" smooth="no"/>
      <point x="682" y="403" type="line" smooth="no"/>
      <point x="970" y="82" type="line" smooth="no"/>
      <point x="1041" y="82" type="line" smooth="yes"/>
      <point x="1074" y="82"/>
      <point x="1090" y="62"/>
      <point x="1090" y="42" type="curve" smooth="yes"/>
      <point x="1090" y="21"/>
      <point x="1073" y="0"/>
      <point x="1039" y="0" type="curve" smooth="yes"/>
    </contour>
  </outline>
</glyph>
<glyph name="y" format="1">
  <advance width="1240"/>
  <unicode hex="0079"/>
  <outline>
    <contour>
      <point x="488" y="774" type="line" smooth="yes"/>
      <point x="522" y="774"/>
      <point x="529" y="753"/>
      <point x="529" y="732" type="curve" smooth="yes"/>
      <point x="529" y="712"/>
      <point x="523" y="692"/>
      <point x="490" y="692" type="curve" smooth="yes"/>
      <point x="388" y="692" type="line" smooth="no"/>
      <point x="643" y="95" type="line" smooth="no"/>
      <point x="871" y="692" type="line" smooth="no"/>
      <point x="782" y="692" type="line" smooth="yes"/>
      <point x="749" y="692"/>
      <point x="743" y="712"/>
      <point x="743" y="732" type="curve" smooth="yes"/>
      <point x="743" y="753"/>
      <point x="750" y="774"/>
      <point x="783" y="774" type="curve" smooth="yes"/>
      <point x="1048" y="774" type="line" smooth="yes"/>
      <point x="1086" y="774"/>
      <point x="1094" y="754"/>
      <point x="1094" y="733" type="curve" smooth="yes"/>
      <point x="1094" y="713"/>
      <point x="1087" y="692"/>
      <point x="1052" y="692" type="curve" smooth="yes"/>
      <point x="973" y="692" type="line" smooth="no"/>
      <point x="670" y="-83" type="line" smooth="yes"/>
      <point x="609" y="-239"/>
      <point x="524" y="-361"/>
      <point x="371" y="-361" type="curve" smooth="yes"/>
      <point x="313" y="-361"/>
      <point x="303" y="-335"/>
      <point x="303" y="-309" type="curve" smooth="yes"/>
      <point x="303" y="-284"/>
      <point x="317" y="-261"/>
      <point x="371" y="-261" type="curve" smooth="yes"/>
      <point x="447" y="-261"/>
      <point x="521" y="-199"/>
      <point x="543" y="-141" type="curve" smooth="yes"/>
      <point x="597" y="-2" type="line" smooth="no"/>
      <point x="488" y="225"/>
      <point x="389" y="461"/>
      <point x="284" y="692" type="curve" smooth="no"/>
      <point x="191" y="692" type="line" smooth="yes"/>
      <point x="157" y="692"/>
      <point x="150" y="712"/>
      <point x="150" y="732" type="curve" smooth="yes"/>
      <point x="150" y="753"/>
      <point x="158" y="774"/>
      <point x="196" y="774" type="curve" smooth="yes"/>
    </contour>
  </outline>
</glyph>
<glyph name="brokenbar" format="1">
  <advance width="1240"/>
  <unicode hex="00a6"/>
  <outline>
    <contour>
      <point x="664" y="704" type="line" smooth="yes"/>
      <point x="664" y="688"/>
      <point x="642" y="679"/>
      <point x="621" y="679" type="curve" smooth="yes"/>
      <point x="599" y="679"/>
      <point x="577" y="688"/>
      <point x="577" y="704" type="curve" smooth="yes"/>
      <point x="577" y="1172" type="line" smooth="yes"/>
      <point x="577" y="1193"/>
      <point x="599" y="1203"/>
      <point x="621" y="1203" type="curve" smooth="yes"/>
      <point x="642" y="1203"/>
      <point x="664" y="1193"/>
      <point x="664" y="1172" type="curve" smooth="yes"/>
    </contour>
    <contour>
      <point x="664" y="-56" type="line" smooth="yes"/>
      <point x="664" y="-73"/>
      <point x="642" y="-81"/>
      <point x="621" y="-81" type="curve" smooth="yes"/>
      <point x="599" y="-81"/>
      <point x="577" y="-73"/>
      <point x="577" y="-56" type="curve" smooth="yes"/>
      <point x="577" y="412" type="line" smooth="yes"/>
      <point x="577" y="433"/>
      <point x="599" y="443"/>
      <point x="621" y="443" type="curve" smooth="yes"/>
      <point x="642" y="443"/>
      <point x="664" y="433"/>
      <point x="664" y="412" type="curve" smooth="yes"/>
    </contour>
  </outline>
</glyph>
<glyph name="section" format="1">
  <advance width="1240"/>
  <unicode hex="00a7"/>
  <outline>
    <contour>
      <point x="536" y="782" type="curve" smooth="no"/>
      <point x="510" y="761"/>
      <point x="498" y="722"/>
      <point x="498" y="690" type="curve" smooth="yes"/>
      <point x="498" y="665"/>
      <point x="506" y="638"/>
      <point x="520" y="613" type="curve" smooth="yes"/>
      <point x="566" y="531"/>
      <point x="637" y="464"/>
      <point x="698" y="391" type="curve" smooth="no"/>
      <point x="723" y="411"/>
      <point x="736" y="451"/>
      <point x="736" y="484" type="curve" smooth="yes"/>
      <point x="736" y="509"/>
      <point x="728" y="534"/>
      <point x="713" y="560" type="curve" smooth="yes"/>
      <point x="667" y="642"/>
      <point x="597" y="707"/>
    </contour>
    <contour>
      <point x="428" y="1005" type="curve" smooth="yes"/>
      <point x="428" y="1113"/>
      <point x="513" y="1190"/>
      <point x="627" y="1190" type="curve" smooth="yes"/>
      <point x="725" y="1190"/>
      <point x="840" y="1133"/>
      <point x="840" y="1041" type="curve" smooth="yes"/>
      <point x="840" y="1017"/>
      <point x="823" y="1002"/>
      <point x="800" y="1002" type="curve" smooth="yes"/>
      <point x="777" y="1002"/>
      <point x="759" y="1015"/>
      <point x="753" y="1033" type="curve" smooth="yes"/>
      <point x="734" y="1083"/>
      <point x="692" y="1117"/>
      <point x="631" y="1117" type="curve" smooth="yes"/>
      <point x="572" y="1117"/>
      <point x="521" y="1078"/>
      <point x="521" y="1020" type="curve" smooth="yes"/>
      <point x="521" y="992"/>
      <point x="529" y="964"/>
      <point x="544" y="939" type="curve" smooth="yes"/>
      <point x="595" y="851"/>
      <point x="682" y="785"/>
      <point x="746" y="707" type="curve" smooth="no"/>
      <point x="784" y="659"/>
      <point x="825" y="601"/>
      <point x="825" y="522" type="curve" smooth="yes"/>
      <point x="825" y="447"/>
      <point x="793" y="374"/>
      <point x="734" y="346" type="curve" smooth="no"/>
      <point x="766" y="300"/>
      <point x="804" y="238"/>
      <point x="804" y="168" type="curve" smooth="yes"/>
      <point x="804" y="58"/>
      <point x="721" y="-17"/>
      <point x="607" y="-17" type="curve" smooth="yes"/>
      <point x="509" y="-17"/>
      <point x="394" y="39"/>
      <point x="394" y="131" type="curve" smooth="yes"/>
      <point x="394" y="155"/>
      <point x="411" y="171"/>
      <point x="435" y="171" type="curve" smooth="yes"/>
      <point x="457" y="171"/>
      <point x="474" y="159"/>
      <point x="481" y="140" type="curve" smooth="yes"/>
      <point x="500" y="90"/>
      <point x="540" y="56"/>
      <point x="601" y="56" type="curve" smooth="yes"/>
      <point x="661" y="56"/>
      <point x="712" y="95"/>
      <point x="712" y="152" type="curve" smooth="yes"/>
      <point x="712" y="181"/>
      <point x="705" y="208"/>
      <point x="690" y="234" type="curve" smooth="yes"/>
      <point x="638" y="322"/>
      <point x="551" y="387"/>
      <point x="488" y="465" type="curve" smooth="yes"/>
      <point x="449" y="513"/>
      <point x="408" y="572"/>
      <point x="408" y="651" type="curve" smooth="yes"/>
      <point x="408" y="726"/>
      <point x="440" y="799"/>
      <point x="500" y="827" type="curve" smooth="no"/>
      <point x="466" y="873"/>
      <point x="428" y="933"/>
    </contour>
  </outline>
</glyph>
<glyph name="copyright" format="1">
  <advance width="1240"/>
  <unicode hex="00a9"/>
  <outline>
    <contour>
      <point x="923" y="443" type="curve" smooth="yes"/>
      <point x="901" y="345"/>
      <point x="794" y="232"/>
      <point x="627" y="232" type="curve" smooth="yes"/>
      <point x="431" y="232"/>
      <point x="293" y="372"/>
      <point x="293" y="596" type="curve" smooth="yes"/>
      <point x="293" y="799"/>
      <point x="439" y="946"/>
      <point x="631" y="946" type="curve" smooth="yes"/>
      <point x="730" y="946"/>
      <point x="810" y="897"/>
      <point x="842" y="839" type="curve" smooth="no"/>
      <point x="842" y="909" type="line" smooth="yes"/>
      <point x="842" y="928"/>
      <point x="858" y="938"/>
      <point x="873" y="938" type="curve" smooth="yes"/>
      <point x="888" y="938"/>
      <point x="903" y="928"/>
      <point x="903" y="908" type="curve" smooth="yes"/>
      <point x="903" y="730" type="line" smooth="yes"/>
      <point x="903" y="712"/>
      <point x="889" y="703"/>
      <point x="875" y="703" type="curve" smooth="yes"/>
      <point x="860" y="703"/>
      <point x="850" y="714"/>
      <point x="845" y="730" type="curve" smooth="yes"/>
      <point x="812" y="837"/>
      <point x="742" y="884"/>
      <point x="631" y="884" type="curve" smooth="yes"/>
      <point x="473" y="884"/>
      <point x="373" y="759"/>
      <point x="373" y="597" type="curve" smooth="yes"/>
      <point x="373" y="405"/>
      <point x="481" y="298"/>
      <point x="627" y="298" type="curve" smooth="yes"/>
      <point x="747" y="298"/>
      <point x="826" y="356"/>
      <point x="866" y="456" type="curve" smooth="yes"/>
      <point x="872" y="470"/>
      <point x="883" y="476"/>
      <point x="894" y="476" type="curve" smooth="yes"/>
      <point x="909" y="476"/>
      <point x="924" y="465"/>
      <point x="924" y="449" type="curve" smooth="yes"/>
      <point x="924" y="447"/>
      <point x="923" y="445"/>
    </contour>
    <contour>
      <point x="1193" y="581" type="curve" smooth="yes"/>
      <point x="1193" y="218"/>
      <point x="981" y="13"/>
      <point x="620" y="13" type="curve" smooth="yes"/>
      <point x="259" y="13"/>
      <point x="48" y="218"/>
      <point x="48" y="581" type="curve" smooth="yes"/>
      <point x="48" y="944"/>
      <point x="258" y="1158"/>
      <point x="620" y="1158" type="curve" smooth="yes"/>
      <point x="982" y="1158"/>
      <point x="1193" y="944"/>
    </contour>
    <contour>
      <point x="128" y="583" type="curve" smooth="yes"/>
      <point x="128" y="265"/>
      <point x="296" y="83"/>
      <point x="620" y="83" type="curve" smooth="yes"/>
      <point x="944" y="83"/>
      <point x="1113" y="265"/>
      <point x="1113" y="583" type="curve" smooth="yes"/>
      <point x="1113" y="902"/>
      <point x="943" y="1089"/>
      <point x="620" y="1089" type="curve" smooth="yes"/>
      <point x="297" y="1089"/>
      <point x="128" y="900"/>
    </contour>
  </outline>
</glyph>
<glyph name="guillemotleft" format="1">
  <advance width="1240"/>
  <unicode hex="00ab"/>
  <outline>
    <contour>
      <point x="554" y="216" type="curve" smooth="yes"/>
      <point x="210" y="475" type="line" smooth="yes"/>
      <point x="185" y="494"/>
      <point x="172" y="512"/>
      <point x="172" y="530" type="curve" smooth="yes"/>
      <point x="172" y="548"/>
      <point x="185" y="567"/>
      <point x="210" y="586" type="curve" smooth="yes"/>
      <point x="544" y="841" type="line" smooth="yes"/>
      <point x="554" y="848"/>
      <point x="564" y="852"/>
      <point x="574" y="852" type="curve" smooth="yes"/>
      <point x="596" y="852"/>
      <point x="614" y="836"/>
      <point x="614" y="816" type="curve" smooth="yes"/>
      <point x="614" y="804"/>
      <point x="607" y="790"/>
      <point x="590" y="777" type="curve" smooth="yes"/>
      <point x="269" y="531" type="line" smooth="no"/>
      <point x="599" y="287" type="line" smooth="yes"/>
      <point x="621" y="271"/>
      <point x="630" y="253"/>
      <point x="630" y="238" type="curve" smooth="yes"/>
      <point x="630" y="218"/>
      <point x="614" y="202"/>
      <point x="592" y="202" type="curve" smooth="yes"/>
      <point x="581" y="202"/>
      <point x="567" y="206"/>
    </contour>
    <contour>
      <point x="918" y="216" type="curve" smooth="yes"/>
      <point x="574" y="475" type="line" smooth="yes"/>
      <point x="549" y="494"/>
      <point x="536" y="512"/>
      <point x="536" y="530" type="curve" smooth="yes"/>
      <point x="536" y="548"/>
      <point x="549" y="567"/>
      <point x="574" y="586" type="curve" smooth="yes"/>
      <point x="908" y="841" type="line" smooth="yes"/>
      <point x="918" y="848"/>
      <point x="928" y="852"/>
      <point x="938" y="852" type="curve" smooth="yes"/>
      <point x="960" y="852"/>
      <point x="978" y="836"/>
      <point x="978" y="816" type="curve" smooth="yes"/>
      <point x="978" y="804"/>
      <point x="971" y="790"/>
      <point x="954" y="777" type="curve" smooth="yes"/>
      <point x="633" y="531" type="line" smooth="no"/>
      <point x="963" y="287" type="line" smooth="yes"/>
      <point x="985" y="271"/>
      <point x="994" y="253"/>
      <point x="994" y="238" type="curve" smooth="yes"/>
      <point x="994" y="218"/>
      <point x="978" y="202"/>
      <point x="956" y="202" type="curve" smooth="yes"/>
      <point x="945" y="202"/>
      <point x="931" y="206"/>
    </contour>
  </outline>
</glyph>
<glyph name="logicalnot" format="1">
  <advance width="1240"/>
  <unicode hex="00ac"/>
  <outline>
    <contour>
      <point x="301" y="546" type="curve" smooth="yes"/>
      <point x="858" y="546" type="line" smooth="yes"/>
      <point x="896" y="546"/>
      <point x="918" y="526"/>
      <point x="918" y="488" type="curve" smooth="yes"/>
      <point x="918" y="214" type="line" smooth="yes"/>
      <point x="918" y="177"/>
      <point x="893" y="158"/>
      <point x="868" y="158" type="curve" smooth="yes"/>
      <point x="844" y="158"/>
      <point x="821" y="175"/>
      <point x="821" y="210" type="curve" smooth="yes"/>
      <point x="821" y="460" type="line" smooth="no"/>
      <point x="301" y="460" type="line" smooth="yes"/>
      <point x="265" y="460"/>
      <point x="252" y="481"/>
      <point x="252" y="502" type="curve" smooth="yes"/>
      <point x="252" y="524"/>
      <point x="266" y="546"/>
    </contour>
  </outline>
</glyph>
<glyph name="uni00AD" format="1">
  <advance width="1240"/>
  <unicode hex="00ad"/>
  <outline>
    <contour>
      <point x="895" y="533" type="line" smooth="yes"/>
      <point x="925" y="533"/>
      <point x="940" y="512"/>
      <point x="940" y="490" type="curve" smooth="yes"/>
      <point x="940" y="469"/>
      <point x="925" y="447"/>
      <point x="895" y="447" type="curve" smooth="yes"/>
      <point x="345" y="447" type="line" smooth="yes"/>
      <point x="315" y="447"/>
      <point x="300" y="469"/>
      <point x="300" y="490" type="curve" smooth="yes"/>
      <point x="300" y="512"/>
      <point x="315" y="533"/>
      <point x="345" y="533" type="curve" smooth="yes"/>
    </contour>
  </outline>
</glyph>
<glyph name="uni00B5" format="1">
  <advance width="1240"/>
  <unicode hex="00b5"/>
  <outline>
    <contour>
      <point x="562" y="65" type="curve" smooth="yes"/>
      <point x="680" y="65"/>
      <point x="821" y="137"/>
      <point x="866" y="231" type="curve" smooth="no"/>
      <point x="866" y="706" type="line" smooth="no"/>
      <point x="769" y="686" type="line" smooth="yes"/>
      <point x="763" y="684"/>
      <point x="757" y="683"/>
      <point x="751" y="683" type="curve" smooth="yes"/>
      <point x="722" y="683"/>
      <point x="704" y="705"/>
      <point x="704" y="726" type="curve" smooth="yes"/>
      <point x="704" y="743"/>
      <point x="716" y="760"/>
      <point x="742" y="765" type="curve" smooth="yes"/>
      <point x="916" y="800" type="line" smooth="yes"/>
      <point x="920" y="801"/>
      <point x="924" y="802"/>
      <point x="928" y="802" type="curve" smooth="yes"/>
      <point x="948" y="802"/>
      <point x="962" y="787"/>
      <point x="962" y="768" type="curve" smooth="yes"/>
      <point x="962" y="85" type="line" smooth="no"/>
      <point x="1110" y="96" type="line" smooth="no"/>
      <point x="1116" y="96" type="line" smooth="yes"/>
      <point x="1144" y="96"/>
      <point x="1156" y="79"/>
      <point x="1156" y="61" type="curve" smooth="yes"/>
      <point x="1156" y="42"/>
      <point x="1143" y="22"/>
      <point x="1118" y="17" type="curve" smooth="no"/>
      <point x="932" y="-3" type="line" smooth="no"/>
      <point x="925" y="-3" type="line" smooth="yes"/>
      <point x="899" y="-3"/>
      <point x="880" y="13"/>
      <point x="878" y="47" type="curve" smooth="yes"/>
      <point x="873" y="134" type="line" smooth="no"/>
      <point x="816" y="49"/>
      <point x="689" y="-17"/>
      <point x="561" y="-17" type="curve" smooth="yes"/>
      <point x="463" y="-17"/>
      <point x="387" y="16"/>
      <point x="337" y="71" type="curve" smooth="no"/>
      <point x="354" y="-52"/>
      <point x="377" y="-213"/>
      <point x="385" y="-257" type="curve" smooth="yes"/>
      <point x="386" y="-265"/>
      <point x="387" y="-272"/>
      <point x="387" y="-278" type="curve" smooth="yes"/>
      <point x="387" y="-325"/>
      <point x="355" y="-343"/>
      <point x="327" y="-343" type="curve" smooth="yes"/>
      <point x="291" y="-343"/>
      <point x="270" y="-310"/>
      <point x="270" y="-256" type="curve" smooth="yes"/>
      <point x="270" y="706" type="line" smooth="no"/>
      <point x="172" y="686" type="line" smooth="yes"/>
      <point x="166" y="684"/>
      <point x="160" y="684"/>
      <point x="155" y="684" type="curve" smooth="yes"/>
      <point x="127" y="684"/>
      <point x="109" y="706"/>
      <point x="109" y="727" type="curve" smooth="yes"/>
      <point x="109" y="744"/>
      <point x="120" y="760"/>
      <point x="145" y="765" type="curve" smooth="yes"/>
      <point x="320" y="800" type="line" smooth="yes"/>
      <point x="324" y="801"/>
      <point x="328" y="802"/>
      <point x="332" y="802" type="curve" smooth="yes"/>
      <point x="352" y="802"/>
      <point x="366" y="787"/>
      <point x="366" y="768" type="curve" smooth="yes"/>
      <point x="366" y="259" type="line" smooth="yes"/>
      <point x="366" y="148"/>
      <point x="428" y="65"/>
    </contour>
  </outline>
</glyph>
<glyph name="paragraph" format="1">
  <advance width="1240"/>
  <unicode hex="00b6"/>
  <outline>
    <contour>
      <point x="890" y="1171" type="line" smooth="no"/>
      <point x="892" y="82" type="line" smooth="no"/>
      <point x="1073" y="82" type="line" smooth="yes"/>
      <point x="1100" y="82"/>
      <point x="1112" y="63"/>
      <point x="1112" y="43" type="curve" smooth="yes"/>
      <point x="1112" y="22"/>
      <point x="1098" y="0"/>
      <point x="1071" y="0" type="curve" smooth="yes"/>
      <point x="333" y="0" type="line" smooth="yes"/>
      <point x="306" y="0"/>
      <point x="292" y="22"/>
      <point x="292" y="43" type="curve" smooth="yes"/>
      <point x="292" y="63"/>
      <point x="304" y="82"/>
      <point x="331" y="82" type="curve" smooth="yes"/>
      <point x="540" y="82" type="line" smooth="no"/>
      <point x="540" y="611" type="line" smooth="no"/>
      <point x="344" y="611"/>
      <point x="232" y="759"/>
      <point x="232" y="903" type="curve" smooth="yes"/>
      <point x="232" y="1039"/>
      <point x="332" y="1171"/>
      <point x="554" y="1171" type="curve" smooth="yes"/>
    </contour>
    <contour>
      <point x="636" y="82" type="line" smooth="no"/>
      <point x="794" y="82" type="line" smooth="no"/>
      <point x="794" y="1089" type="line" smooth="no"/>
      <point x="636" y="1089" type="line" smooth="no"/>
    </contour>
  </outline>
</glyph>
<glyph name="cedilla" format="1">
  <advance width="1240"/>
  <unicode hex="00b8"/>
  <outline>
    <contour>
      <point x="180" y="0" type="line" smooth="no"/>
      <point x="139" y="-321" type="line" smooth="yes"/>
      <point x="132" y="-382"/>
      <point x="103" y="-401"/>
      <point x="77" y="-401" type="curve" smooth="yes"/>
      <point x="46" y="-401"/>
      <point x="28" y="-380"/>
      <point x="28" y="-347" type="curve" smooth="yes"/>
      <point x="28" y="-335"/>
      <point x="31" y="-321"/>
      <point x="36" y="-306" type="curve" smooth="yes"/>
      <point x="143" y="0" type="line" smooth="no"/>
    </contour>
  </outline>
</glyph>
<glyph name="uni00B9" format="1">
  <advance width="1240"/>
  <unicode hex="00b9"/>
  <outline>
    <contour>
      <point x="658" y="1140" type="curve" smooth="yes"/>
      <point x="658" y="455" type="line" smooth="no"/>
      <point x="764" y="455" type="line" smooth="yes"/>
      <point x="783" y="455"/>
      <point x="792" y="439"/>
      <point x="792" y="425" type="curve" smooth="yes"/>
      <point x="792" y="410"/>
      <point x="782" y="396"/>
      <point x="763" y="396" type="curve" smooth="yes"/>
      <point x="468" y="396" type="line" smooth="yes"/>
      <point x="446" y="396"/>
      <point x="434" y="411"/>
      <point x="434" y="426" type="curve" smooth="yes"/>
      <point x="434" y="440"/>
      <point x="445" y="455"/>
      <point x="465" y="455" type="curve" smooth="yes"/>
      <point x="589" y="455" type="line" smooth="no"/>
      <point x="589" y="1096" type="line" smooth="no"/>
      <point x="465" y="1041" type="line" smooth="yes"/>
      <point x="461" y="1039"/>
      <point x="457" y="1038"/>
      <point x="453" y="1038" type="curve" smooth="yes"/>
      <point x="436" y="1038"/>
      <point x="424" y="1054"/>
      <point x="424" y="1070" type="curve" smooth="yes"/>
      <point x="424" y="1080"/>
      <point x="429" y="1090"/>
      <point x="441" y="1095" type="curve" smooth="yes"/>
      <point x="614" y="1171" type="line" smooth="yes"/>
      <point x="618" y="1173"/>
      <point x="623" y="1174"/>
      <point x="628" y="1174" type="curve" smooth="yes"/>
      <point x="643" y="1174"/>
      <point x="658" y="1165"/>
    </contour>
  </outline>
</glyph>
<glyph name="onequarter" format="1">
  <advance width="1240"/>
  <unicode hex="00bc"/>
  <outline>
    <contour>
      <point x="269" y="1085" type="curve" smooth="yes"/>
      <point x="269" y="399" type="line" smooth="no"/>
      <point x="375" y="399" type="line" smooth="yes"/>
      <point x="394" y="399"/>
      <point x="403" y="384"/>
      <point x="403" y="370" type="curve" smooth="yes"/>
      <point x="403" y="355"/>
      <point x="393" y="340"/>
      <point x="374" y="340" type="curve" smooth="yes"/>
      <point x="78" y="340" type="line" smooth="yes"/>
      <point x="56" y="340"/>
      <point x="45" y="356"/>
      <point x="45" y="371" type="curve" smooth="yes"/>
      <point x="45" y="385"/>
      <point x="55" y="399"/>
      <point x="75" y="399" type="curve" smooth="yes"/>
      <point x="199" y="399" type="line" smooth="no"/>
      <point x="199" y="1041" type="line" smooth="no"/>
      <point x="76" y="985" type="line" smooth="yes"/>
      <point x="72" y="983"/>
      <point x="68" y="982"/>
      <point x="64" y="982" type="curve" smooth="yes"/>
      <point x="47" y="982"/>
      <point x="34" y="999"/>
      <point x="34" y="1015" type="curve" smooth="yes"/>
      <point x="34" y="1025"/>
      <point x="39" y="1035"/>
      <point x="51" y="1040" type="curve" smooth="yes"/>
      <point x="225" y="1116" type="line" smooth="yes"/>
      <point x="229" y="1118"/>
      <point x="234" y="1119"/>
      <point x="239" y="1119" type="curve" smooth="yes"/>
      <point x="254" y="1119"/>
      <point x="269" y="1110"/>
    </contour>
    <contour>
      <point x="786" y="1" type="line" smooth="yes"/>
      <point x="768" y="1"/>
      <point x="759" y="16"/>
      <point x="759" y="32" type="curve" smooth="yes"/>
      <point x="759" y="47"/>
      <point x="768" y="63"/>
      <point x="785" y="63" type="curve" smooth="yes"/>
      <point x="961" y="63" type="line" smooth="no"/>
      <point x="961" y="245" type="line" smooth="no"/>
      <point x="690" y="245" type="line" smooth="yes"/>
      <point x="675" y="245"/>
      <point x="660" y="261"/>
      <point x="660" y="279" type="curve" smooth="yes"/>
      <point x="660" y="286"/>
      <point x="663" y="293"/>
      <point x="668" y="301" type="curve" smooth="yes"/>
      <point x="977" y="794" type="line" smooth="yes"/>
      <point x="979" y="798"/>
      <point x="992" y="804"/>
      <point x="1005" y="804" type="curve" smooth="yes"/>
      <point x="1020" y="804"/>
      <point x="1036" y="795"/>
      <point x="1036" y="762" type="curve" smooth="yes"/>
      <point x="1036" y="301" type="line" smooth="no"/>
      <point x="1155" y="301" type="line" smooth="yes"/>
      <point x="1173" y="301"/>
      <point x="1182" y="287"/>
      <point x="1182" y="273" type="curve" smooth="yes"/>
      <point x="1182" y="259"/>
      <point x="1172" y="245"/>
      <point x="1153" y="245" type="curve" smooth="yes"/>
      <point x="1036" y="245" type="line" smooth="no"/>
      <point x="1036" y="63" type="line" smooth="no"/>
      <point x="1160" y="63" type="line" smooth="yes"/>
      <point x="1179" y="63"/>
      <point x="1188" y="48"/>
      <point x="1188" y="33" type="curve" smooth="yes"/>
      <point x="1188" y="17"/>
      <point x="1178" y="1"/>
      <point x="1159" y="1" type="curve" smooth="yes"/>
    </contour>
    <contour>
      <point x="961" y="667" type="line" smooth="no"/>
      <point x="743" y="301" type="line" smooth="no"/>
      <point x="961" y="301" type="line" smooth="no"/>
    </contour>
    <contour>
      <point x="322" y="79" type="curve" smooth="yes"/>
      <point x="934" y="1099" type="line" smooth="yes"/>
      <point x="940" y="1110"/>
      <point x="950" y="1115"/>
      <point x="961" y="1115" type="curve" smooth="yes"/>
      <point x="978" y="1115"/>
      <point x="996" y="1104"/>
      <point x="996" y="1086" type="curve" smooth="yes"/>
      <point x="996" y="1081"/>
      <point x="995" y="1076"/>
      <point x="992" y="1070" type="curve" smooth="yes"/>
      <point x="382" y="52" type="line" smooth="yes"/>
      <point x="374" y="39"/>
      <point x="365" y="34"/>
      <point x="354" y="34" type="curve" smooth="yes"/>
      <point x="336" y="34"/>
      <point x="319" y="47"/>
      <point x="319" y="65" type="curve" smooth="yes"/>
      <point x="319" y="69"/>
      <point x="319" y="74"/>
    </contour>
  </outline>
</glyph>
<glyph name="onehalf" format="1">
  <advance width="1240"/>
  <unicode hex="00bd"/>
  <outline>
    <contour>
      <point x="1167" y="552" type="curve" smooth="yes"/>
      <point x="1167" y="347"/>
      <point x="884" y="269"/>
      <point x="837" y="65" type="curve" smooth="no"/>
      <point x="1118" y="65" type="line" smooth="no"/>
      <point x="1125" y="169" type="line" smooth="yes"/>
      <point x="1126" y="191"/>
      <point x="1141" y="204"/>
      <point x="1156" y="204" type="curve" smooth="yes"/>
      <point x="1170" y="204"/>
      <point x="1183" y="193"/>
      <point x="1183" y="164" type="curve" smooth="yes"/>
      <point x="1183" y="40" type="line" smooth="yes"/>
      <point x="1183" y="15"/>
      <point x="1170" y="0"/>
      <point x="1151" y="0" type="curve" smooth="yes"/>
      <point x="769" y="0" type="line" smooth="no"/>
      <point x="767" y="9"/>
      <point x="765" y="17"/>
      <point x="765" y="29" type="curve" smooth="yes"/>
      <point x="765" y="268"/>
      <point x="1096" y="385"/>
      <point x="1096" y="546" type="curve" smooth="yes"/>
      <point x="1096" y="633"/>
      <point x="1034" y="679"/>
      <point x="955" y="679" type="curve" smooth="yes"/>
      <point x="917" y="679"/>
      <point x="875" y="668"/>
      <point x="835" y="646" type="curve" smooth="no"/>
      <point x="826" y="550"/>
      <point x="825" y="507"/>
      <point x="796" y="507" type="curve" smooth="yes"/>
      <point x="771" y="507"/>
      <point x="760" y="534"/>
      <point x="760" y="570" type="curve" smooth="yes"/>
      <point x="760" y="679"/>
      <point x="854" y="732"/>
      <point x="952" y="732" type="curve" smooth="yes"/>
      <point x="1057" y="732"/>
      <point x="1167" y="671"/>
    </contour>
    <contour>
      <point x="269" y="1085" type="curve" smooth="yes"/>
      <point x="269" y="399" type="line" smooth="no"/>
      <point x="375" y="399" type="line" smooth="yes"/>
      <point x="394" y="399"/>
      <point x="403" y="384"/>
      <point x="403" y="370" type="curve" smooth="yes"/>
      <point x="403" y="355"/>
      <point x="393" y="340"/>
      <point x="374" y="340" type="curve" smooth="yes"/>
      <point x="78" y="340" type="line" smooth="yes"/>
      <point x="56" y="340"/>
      <point x="45" y="356"/>
      <point x="45" y="371" type="curve" smooth="yes"/>
      <point x="45" y="385"/>
      <point x="55" y="399"/>
      <point x="75" y="399" type="curve" smooth="yes"/>
      <point x="199" y="399" type="line" smooth="no"/>
      <point x="199" y="1041" type="line" smooth="no"/>
      <point x="76" y="985" type="line" smooth="yes"/>
      <point x="72" y="983"/>
      <point x="68" y="982"/>
      <point x="64" y="982" type="curve" smooth="yes"/>
      <point x="47" y="982"/>
      <point x="34" y="999"/>
      <point x="34" y="1015" type="curve" smooth="yes"/>
      <point x="34" y="1025"/>
      <point x="39" y="1035"/>
      <point x="51" y="1040" type="curve" smooth="yes"/>
      <point x="225" y="1116" type="line" smooth="yes"/>
      <point x="229" y="1118"/>
      <point x="234" y="1119"/>
      <point x="239" y="1119" type="curve" smooth="yes"/>
      <point x="254" y="1119"/>
      <point x="269" y="1110"/>
    </contour>
    <contour>
      <point x="295" y="79" type="curve" smooth="yes"/>
      <point x="907" y="1099" type="line" smooth="yes"/>
      <point x="913" y="1110"/>
      <point x="923" y="1115"/>
      <point x="934" y="1115" type="curve" smooth="yes"/>
      <point x="951" y="1115"/>
      <point x="969" y="1104"/>
      <point x="969" y="1086" type="curve" smooth="yes"/>
      <point x="969" y="1081"/>
      <point x="968" y="1076"/>
      <point x="965" y="1070" type="curve" smooth="yes"/>
      <point x="355" y="52" type="line" smooth="yes"/>
      <point x="347" y="39"/>
      <point x="338" y="34"/>
      <point x="327" y="34" type="curve" smooth="yes"/>
      <point x="309" y="34"/>
      <point x="292" y="47"/>
      <point x="292" y="65" type="curve" smooth="yes"/>
      <point x="292" y="69"/>
      <point x="292" y="74"/>
    </contour>
  </outline>
</glyph>
<glyph name="threequarters" format="1">
  <advance width="1240"/>
  <unicode hex="00be"/>
  <outline>
    <contour>
      <point x="810" y="1" type="line" smooth="yes"/>
      <point x="792" y="1"/>
      <point x="783" y="16"/>
      <point x="783" y="32" type="curve" smooth="yes"/>
      <point x="783" y="47"/>
      <point x="792" y="63"/>
      <point x="809" y="63" type="curve" smooth="yes"/>
      <point x="985" y="63" type="line" smooth="no"/>
      <point x="985" y="245" type="line" smooth="no"/>
      <point x="714" y="245" type="line" smooth="yes"/>
      <point x="699" y="245"/>
      <point x="684" y="261"/>
      <point x="684" y="279" type="curve" smooth="yes"/>
      <point x="684" y="286"/>
      <point x="687" y="293"/>
      <point x="692" y="301" type="curve" smooth="yes"/>
      <point x="1001" y="794" type="line" smooth="yes"/>
      <point x="1003" y="798"/>
      <point x="1016" y="804"/>
      <point x="1029" y="804" type="curve" smooth="yes"/>
      <point x="1044" y="804"/>
      <point x="1060" y="795"/>
      <point x="1060" y="762" type="curve" smooth="yes"/>
      <point x="1060" y="301" type="line" smooth="no"/>
      <point x="1179" y="301" type="line" smooth="yes"/>
      <point x="1197" y="301"/>
      <point x="1206" y="287"/>
      <point x="1206" y="273" type="curve" smooth="yes"/>
      <point x="1206" y="259"/>
      <point x="1196" y="245"/>
      <point x="1177" y="245" type="curve" smooth="yes"/>
      <point x="1060" y="245" type="line" smooth="no"/>
      <point x="1060" y="63" type="line" smooth="no"/>
      <point x="1184" y="63" type="line" smooth="yes"/>
      <point x="1203" y="63"/>
      <point x="1212" y="48"/>
      <point x="1212" y="33" type="curve" smooth="yes"/>
      <point x="1212" y="17"/>
      <point x="1202" y="1"/>
      <point x="1183" y="1" type="curve" smooth="yes"/>
    </contour>
    <contour>
      <point x="985" y="667" type="line" smooth="no"/>
      <point x="767" y="301" type="line" smooth="no"/>
      <point x="985" y="301" type="line" smooth="no"/>
    </contour>
    <contour>
      <point x="341" y="79" type="curve" smooth="yes"/>
      <point x="953" y="1099" type="line" smooth="yes"/>
      <point x="959" y="1110"/>
      <point x="969" y="1115"/>
      <point x="980" y="1115" type="curve" smooth="yes"/>
      <point x="997" y="1115"/>
      <point x="1015" y="1104"/>
      <point x="1015" y="1086" type="curve" smooth="yes"/>
      <point x="1015" y="1081"/>
      <point x="1014" y="1076"/>
      <point x="1011" y="1070" type="curve" smooth="yes"/>
      <point x="401" y="52" type="line" smooth="yes"/>
      <point x="393" y="39"/>
      <point x="384" y="34"/>
      <point x="373" y="34" type="curve" smooth="yes"/>
      <point x="355" y="34"/>
      <point x="338" y="47"/>
      <point x="338" y="65" type="curve" smooth="yes"/>
      <point x="338" y="69"/>
      <point x="338" y="74"/>
    </contour>
    <contour>
      <point x="180" y="725" type="curve" smooth="yes"/>
      <point x="163" y="725"/>
      <point x="152" y="735"/>
      <point x="152" y="753" type="curve" smooth="yes"/>
      <point x="152" y="763"/>
      <point x="159" y="774"/>
      <point x="174" y="783" type="curve" smooth="yes"/>
      <point x="281" y="849"/>
      <point x="368" y="886"/>
      <point x="368" y="967" type="curve" smooth="yes"/>
      <point x="368" y="1014"/>
      <point x="335" y="1059"/>
      <point x="254" y="1059" type="curve" smooth="yes"/>
      <point x="105" y="1059"/>
      <point x="149" y="994"/>
      <point x="76" y="994" type="curve" smooth="yes"/>
      <point x="56" y="994"/>
      <point x="46" y="1007"/>
      <point x="46" y="1019" type="curve" smooth="yes"/>
      <point x="46" y="1087"/>
      <point x="187" y="1122"/>
      <point x="256" y="1122" type="curve" smooth="yes"/>
      <point x="358" y="1122"/>
      <point x="439" y="1066"/>
      <point x="439" y="967" type="curve" smooth="yes"/>
      <point x="439" y="866"/>
      <point x="328" y="806"/>
      <point x="275" y="780" type="curve" smooth="no"/>
      <point x="410" y="775"/>
      <point x="484" y="688"/>
      <point x="484" y="568" type="curve" smooth="yes"/>
      <point x="484" y="419"/>
      <point x="362" y="313"/>
      <point x="208" y="313" type="curve" smooth="yes"/>
      <point x="117" y="313"/>
      <point x="16" y="355"/>
      <point x="16" y="400" type="curve" smooth="yes"/>
      <point x="16" y="409"/>
      <point x="28" y="425"/>
      <point x="45" y="425" type="curve" smooth="yes"/>
      <point x="106" y="425"/>
      <point x="97" y="377"/>
      <point x="210" y="377" type="curve" smooth="yes"/>
      <point x="336" y="377"/>
      <point x="413" y="460"/>
      <point x="413" y="572" type="curve" smooth="yes"/>
      <point x="413" y="671"/>
      <point x="349" y="731"/>
      <point x="247" y="731" type="curve" smooth="yes"/>
      <point x="228" y="731"/>
      <point x="189" y="725"/>
    </contour>
  </outline>
</glyph>
<glyph name="AE" format="1">
  <advance width="1240"/>
  <unicode hex="00c6"/>
  <outline>
    <contour>
      <point x="88" y="0" type="line" smooth="yes"/>
      <point x="55" y="0"/>
      <point x="38" y="21"/>
      <point x="38" y="43" type="curve" smooth="yes"/>
      <point x="38" y="64"/>
      <point x="54" y="86"/>
      <point x="87" y="86" type="curve" smooth="yes"/>
      <point x="138" y="86" type="line" smooth="no"/>
      <point x="463" y="1085" type="line" smooth="no"/>
      <point x="301" y="1085" type="line" smooth="yes"/>
      <point x="268" y="1085"/>
      <point x="251" y="1106"/>
      <point x="251" y="1128" type="curve" smooth="yes"/>
      <point x="251" y="1149"/>
      <point x="267" y="1171"/>
      <point x="300" y="1171" type="curve" smooth="yes"/>
      <point x="1050" y="1171" type="line" smooth="yes"/>
      <point x="1083" y="1171"/>
      <point x="1106" y="1151"/>
      <point x="1106" y="1117" type="curve" smooth="yes"/>
      <point x="1106" y="893" type="line" smooth="yes"/>
      <point x="1106" y="863"/>
      <point x="1086" y="849"/>
      <point x="1066" y="849" type="curve" smooth="yes"/>
      <point x="1046" y="849"/>
      <point x="1028" y="862"/>
      <point x="1027" y="887" type="curve" smooth="yes"/>
      <point x="1013" y="1085" type="line" smooth="no"/>
      <point x="729" y="1085" type="line" smooth="no"/>
      <point x="729" y="637" type="line" smooth="no"/>
      <point x="871" y="637" type="line" smooth="no"/>
      <point x="884" y="740" type="line" smooth="yes"/>
      <point x="887" y="770"/>
      <point x="906" y="785"/>
      <point x="924" y="785" type="curve" smooth="yes"/>
      <point x="943" y="785"/>
      <point x="962" y="769"/>
      <point x="962" y="732" type="curve" smooth="yes"/>
      <point x="962" y="460" type="line" smooth="yes"/>
      <point x="962" y="425"/>
      <point x="943" y="409"/>
      <point x="924" y="409" type="curve" smooth="yes"/>
      <point x="905" y="409"/>
      <point x="886" y="424"/>
      <point x="884" y="452" type="curve" smooth="no"/>
      <point x="871" y="560" type="line" smooth="no"/>
      <point x="729" y="560" type="line" smooth="no"/>
      <point x="729" y="85" type="line" smooth="no"/>
      <point x="1016" y="85" type="line" smooth="no"/>
      <point x="1032" y="296" type="line" smooth="yes"/>
      <point x="1033" y="320"/>
      <point x="1052" y="335"/>
      <point x="1073" y="335" type="curve" smooth="yes"/>
      <point x="1094" y="335"/>
      <point x="1115" y="319"/>
      <point x="1115" y="283" type="curve" smooth="yes"/>
      <point x="1115" y="53" type="line" smooth="yes"/>
      <point x="1115" y="19"/>
      <point x="1092" y="0"/>
      <point x="1059" y="0" type="curve" smooth="yes"/>
      <point x="613" y="0" type="line" smooth="yes"/>
      <point x="579" y="0"/>
      <point x="562" y="22"/>
      <point x="562" y="43" type="curve" smooth="yes"/>
      <point x="562" y="64"/>
      <point x="579" y="85"/>
      <point x="612" y="85" type="curve" smooth="yes"/>
      <point x="642" y="85" type="line" smooth="no"/>
      <point x="642" y="392" type="line" smooth="no"/>
      <point x="327" y="392" type="line" smooth="no"/>
      <point x="231" y="86" type="line" smooth="no"/>
      <point x="398" y="86" type="line" smooth="yes"/>
      <point x="431" y="86"/>
      <point x="448" y="64"/>
      <point x="448" y="43" type="curve" smooth="yes"/>
      <point x="448" y="21"/>
      <point x="431" y="0"/>
      <point x="397" y="0" type="curve" smooth="yes"/>
    </contour>
    <contour>
      <point x="642" y="475" type="line" smooth="no"/>
      <point x="642" y="1085" type="line" smooth="no"/>
      <point x="545" y="1085" type="line" smooth="no"/>
      <point x="354" y="475" type="line" smooth="no"/>
    </contour>
  </outline>
</glyph>
<glyph name="Eth" format="1">
  <advance width="1240"/>
  <unicode hex="00d0"/>
  <outline>
    <contour>
      <point x="172" y="572" type="line" smooth="yes"/>
      <point x="135" y="572"/>
      <point x="126" y="592"/>
      <point x="126" y="611" type="curve" smooth="yes"/>
      <point x="126" y="630"/>
      <point x="133" y="648"/>
      <point x="168" y="648" type="curve" smooth="yes"/>
      <point x="314" y="648" type="line" smooth="no"/>
      <point x="314" y="1085" type="line" smooth="no"/>
      <point x="155" y="1085" type="line" smooth="yes"/>
      <point x="123" y="1085"/>
      <point x="107" y="1106"/>
      <point x="107" y="1127" type="curve" smooth="yes"/>
      <point x="107" y="1149"/>
      <point x="124" y="1171"/>
      <point x="157" y="1171" type="curve" smooth="yes"/>
      <point x="515" y="1171" type="line" smooth="yes"/>
      <point x="858" y="1171"/>
      <point x="1084" y="993"/>
      <point x="1084" y="591" type="curve" smooth="yes"/>
      <point x="1084" y="168"/>
      <point x="874" y="0"/>
      <point x="513" y="0" type="curve" smooth="yes"/>
      <point x="152" y="0" type="line" smooth="yes"/>
      <point x="118" y="0"/>
      <point x="101" y="21"/>
      <point x="101" y="43" type="curve" smooth="yes"/>
      <point x="101" y="64"/>
      <point x="118" y="86"/>
      <point x="151" y="86" type="curve" smooth="yes"/>
      <point x="314" y="86" type="line" smooth="no"/>
      <point x="314" y="572" type="line" smooth="no"/>
    </contour>
    <contour>
      <point x="978" y="591" type="curve" smooth="yes"/>
      <point x="978" y="907"/>
      <point x="827" y="1085"/>
      <point x="534" y="1085" type="curve" smooth="yes"/>
      <point x="420" y="1085" type="line" smooth="no"/>
      <point x="420" y="648" type="line" smooth="no"/>
      <point x="607" y="648" type="line" smooth="yes"/>
      <point x="640" y="648"/>
      <point x="646" y="630"/>
      <point x="646" y="611" type="curve" smooth="yes"/>
      <point x="646" y="592"/>
      <point x="638" y="572"/>
      <point x="605" y="572" type="curve" smooth="yes"/>
      <point x="420" y="572" type="line" smooth="no"/>
      <point x="420" y="86" type="line" smooth="no"/>
      <point x="520" y="86" type="line" smooth="yes"/>
      <point x="851" y="86"/>
      <point x="978" y="256"/>
    </contour>
  </outline>
</glyph>
<glyph name="Thorn" format="1">
  <advance width="1240"/>
  <unicode hex="00de"/>
  <outline>
    <contour>
      <point x="971" y="626" type="curve" smooth="yes"/>
      <point x="971" y="802"/>
      <point x="856" y="851"/>
      <point x="429" y="851" type="curve" smooth="no"/>
      <point x="429" y="392" type="line" smooth="no"/>
      <point x="830" y="392"/>
      <point x="971" y="433"/>
    </contour>
    <contour>
      <point x="1067" y="619" type="curve" smooth="yes"/>
      <point x="1067" y="321"/>
      <point x="724" y="318"/>
      <point x="429" y="318" type="curve" smooth="no"/>
      <point x="429" y="82" type="line" smooth="no"/>
      <point x="656" y="82" type="line" smooth="yes"/>
      <point x="689" y="82"/>
      <point x="695" y="61"/>
      <point x="695" y="41" type="curve" smooth="yes"/>
      <point x="695" y="20"/>
      <point x="688" y="0"/>
      <point x="655" y="0" type="curve" smooth="yes"/>
      <point x="109" y="0" type="line" smooth="yes"/>
      <point x="75" y="0"/>
      <point x="68" y="20"/>
      <point x="68" y="41" type="curve" smooth="yes"/>
      <point x="68" y="61"/>
      <point x="75" y="82"/>
      <point x="108" y="82" type="curve" smooth="yes"/>
      <point x="333" y="82" type="line" smooth="no"/>
      <point x="333" y="1085" type="line" smooth="no"/>
      <point x="121" y="1085" type="line" smooth="yes"/>
      <point x="88" y="1085"/>
      <point x="82" y="1106"/>
      <point x="82" y="1127" type="curve" smooth="yes"/>
      <point x="82" y="1149"/>
      <point x="89" y="1171"/>
      <point x="123" y="1171" type="curve" smooth="yes"/>
      <point x="600" y="1171" type="line" smooth="yes"/>
      <point x="627" y="1171"/>
      <point x="631" y="1151"/>
      <point x="631" y="1130" type="curve" smooth="yes"/>
      <point x="631" y="1108"/>
      <point x="625" y="1085"/>
      <point x="592" y="1085" type="curve" smooth="yes"/>
      <point x="429" y="1085" type="line" smooth="no"/>
      <point x="429" y="928" type="line" smooth="no"/>
      <point x="743" y="928"/>
      <point x="1067" y="927"/>
    </contour>
  </outline>
</glyph>
<glyph name="eth" format="1">
  <advance width="1240"/>
  <unicode hex="00f0"/>
  <outline>
    <contour>
      <point x="602" y="65" type="curve" smooth="yes"/>
      <point x="801" y="65"/>
      <point x="914" y="192"/>
      <point x="914" y="391" type="curve" smooth="yes"/>
      <point x="914" y="617"/>
      <point x="770" y="731"/>
      <point x="608" y="731" type="curve" smooth="yes"/>
      <point x="414" y="731"/>
      <point x="308" y="607"/>
      <point x="308" y="391" type="curve" smooth="yes"/>
      <point x="308" y="182"/>
      <point x="433" y="65"/>
    </contour>
    <contour>
      <point x="703" y="1116" type="line" smooth="no"/>
      <point x="944" y="892"/>
      <point x="1010" y="670"/>
      <point x="1010" y="453" type="curve" smooth="yes"/>
      <point x="1010" y="167"/>
      <point x="881" y="-17"/>
      <point x="602" y="-17" type="curve" smooth="yes"/>
      <point x="366" y="-17"/>
      <point x="212" y="144"/>
      <point x="212" y="394" type="curve" smooth="yes"/>
      <point x="212" y="643"/>
      <point x="360" y="813"/>
      <point x="607" y="813" type="curve" smooth="yes"/>
      <point x="701" y="813"/>
      <point x="832" y="780"/>
      <point x="919" y="615" type="curve" smooth="no"/>
      <point x="869" y="809"/>
      <point x="741" y="962"/>
      <point x="629" y="1065" type="curve" smooth="no"/>
      <point x="492" y="971" type="line" smooth="yes"/>
      <point x="485" y="966"/>
      <point x="478" y="964"/>
      <point x="471" y="964" type="curve" smooth="yes"/>
      <point x="449" y="964"/>
      <point x="430" y="986"/>
      <point x="430" y="1008" type="curve" smooth="yes"/>
      <point x="430" y="1019"/>
      <point x="435" y="1030"/>
      <point x="446" y="1038" type="curve" smooth="yes"/>
      <point x="565" y="1121" type="line" smooth="no"/>
      <point x="501" y="1174"/>
      <point x="449" y="1206"/>
      <point x="434" y="1218" type="curve" smooth="yes"/>
      <point x="430" y="1221"/>
      <point x="428" y="1225"/>
      <point x="428" y="1231" type="curve" smooth="yes"/>
      <point x="428" y="1253"/>
      <point x="453" y="1288"/>
      <point x="474" y="1288" type="curve" smooth="yes"/>
      <point x="477" y="1288"/>
      <point x="480" y="1287"/>
      <point x="483" y="1285" type="curve" smooth="yes"/>
      <point x="541" y="1248"/>
      <point x="592" y="1210"/>
      <point x="638" y="1172" type="curve" smooth="no"/>
      <point x="777" y="1269" type="line" smooth="yes"/>
      <point x="783" y="1273"/>
      <point x="789" y="1275"/>
      <point x="795" y="1275" type="curve" smooth="yes"/>
      <point x="818" y="1275"/>
      <point x="839" y="1249"/>
      <point x="839" y="1226" type="curve" smooth="yes"/>
      <point x="839" y="1216"/>
      <point x="835" y="1206"/>
      <point x="825" y="1199" type="curve" smooth="yes"/>
    </contour>
  </outline>
</glyph>
<glyph name="divide" format="1">
  <advance width="1240"/>
  <unicode hex="00f7"/>
  <outline>
    <contour>
      <point x="533.514" y="277" type="curve" smooth="yes"/>
      <point x="533.514" y="323"/>
      <point x="571.514" y="359"/>
      <point x="617.514" y="359" type="curve" smooth="yes"/>
      <point x="663.514" y="359"/>
      <point x="699.514" y="323"/>
      <point x="699.514" y="277" type="curve" smooth="yes"/>
      <point x="699.514" y="231"/>
      <point x="663.514" y="193"/>
      <point x="617.514" y="193" type="curve" smooth="yes"/>
      <point x="571.514" y="193"/>
      <point x="533.514" y="231"/>
    </contour>
    <contour>
      <point x="533.514" y="823" type="curve" smooth="yes"/>
      <point x="533.514" y="869"/>
      <point x="571.514" y="905"/>
      <point x="617.514" y="905" type="curve" smooth="yes"/>
      <point x="663.514" y="905"/>
      <point x="699.514" y="869"/>
      <point x="699.514" y="823" type="curve" smooth="yes"/>
      <point x="699.514" y="777"/>
      <point x="663.514" y="741"/>
      <point x="617.514" y="741" type="curve" smooth="yes"/>
      <point x="571.514" y="741"/>
      <point x="533.514" y="777"/>
    </contour>
    <contour>
      <point x="346.514" y="596" type="curve" smooth="yes"/>
      <point x="893.514" y="596" type="line" smooth="yes"/>
      <point x="924" y="596"/>
      <point x="939.264" y="574"/>
      <point x="939.264" y="549" type="curve" smooth="yes"/>
      <point x="939.264" y="524"/>
      <point x="924" y="502"/>
      <point x="893.514" y="502" type="curve" smooth="yes"/>
      <point x="346.514" y="502" type="line" smooth="yes"/>
      <point x="317" y="502"/>
      <point x="300.736" y="525.242"/>
      <point x="300.736" y="550.841" type="curve" smooth="yes"/>
      <point x="300.736" y="575.212"/>
      <point x="315" y="596"/>
    </contour>
  </outline>
</glyph>
<glyph name="thorn" format="1">
  <advance width="1240"/>
  <unicode hex="00fe"/>
  <outline>
    <contour>
      <point x="409" y="1150" type="curve" smooth="yes"/>
      <point x="409" y="690" type="line" smooth="no"/>
      <point x="473" y="755"/>
      <point x="570" y="813"/>
      <point x="697" y="813" type="curve" smooth="yes"/>
      <point x="932" y="813"/>
      <point x="1071" y="640"/>
      <point x="1071" y="398" type="curve" smooth="yes"/>
      <point x="1071" y="160"/>
      <point x="927" y="-17"/>
      <point x="693" y="-17" type="curve" smooth="yes"/>
      <point x="564" y="-17"/>
      <point x="483" y="25"/>
      <point x="409" y="89" type="curve" smooth="no"/>
      <point x="409" y="-288" type="line" smooth="no"/>
      <point x="625" y="-288" type="line" smooth="yes"/>
      <point x="653" y="-288"/>
      <point x="667" y="-307"/>
      <point x="667" y="-327" type="curve" smooth="yes"/>
      <point x="667" y="-348"/>
      <point x="652" y="-370"/>
      <point x="621" y="-370" type="curve" smooth="yes"/>
      <point x="225" y="-370" type="line" smooth="yes"/>
      <point x="197" y="-370"/>
      <point x="183" y="-349"/>
      <point x="183" y="-328" type="curve" smooth="yes"/>
      <point x="183" y="-308"/>
      <point x="196" y="-288"/>
      <point x="223" y="-288" type="curve" smooth="yes"/>
      <point x="313" y="-288" type="line" smooth="no"/>
      <point x="313" y="1082" type="line" smooth="no"/>
      <point x="144" y="1058" type="line" smooth="yes"/>
      <point x="140" y="1058"/>
      <point x="138" y="1057"/>
      <point x="136" y="1057" type="curve" smooth="yes"/>
      <point x="109" y="1057"/>
      <point x="96" y="1078"/>
      <point x="96" y="1099" type="curve" smooth="yes"/>
      <point x="96" y="1118"/>
      <point x="106" y="1136"/>
      <point x="128" y="1139" type="curve" smooth="yes"/>
      <point x="362" y="1181" type="line" smooth="yes"/>
      <point x="364" y="1181"/>
      <point x="368" y="1182"/>
      <point x="373" y="1182" type="curve" smooth="yes"/>
      <point x="394" y="1182"/>
      <point x="409" y="1170"/>
    </contour>
    <contour>
      <point x="975" y="398" type="curve" smooth="yes"/>
      <point x="975" y="577"/>
      <point x="881" y="731"/>
      <point x="695" y="731" type="curve" smooth="yes"/>
      <point x="560" y="731"/>
      <point x="467" y="669"/>
      <point x="409" y="586" type="curve" smooth="no"/>
      <point x="409" y="194" type="line" smooth="no"/>
      <point x="472" y="115"/>
      <point x="560" y="65"/>
      <point x="687" y="65" type="curve" smooth="yes"/>
      <point x="878" y="65"/>
      <point x="975" y="221"/>
    </contour>
  </outline>
</glyph>
<glyph name="hbar" format="1">
  <advance width="1240"/>
  <unicode hex="0127"/>
  <outline>
    <component base="h"/>
    <contour>
      <point x="542" y="907" type="curve" smooth="yes"/>
      <point x="180" y="907" type="line" smooth="yes"/>
      <point x="142" y="907"/>
      <point x="129" y="917"/>
      <point x="129" y="944" type="curve" smooth="yes"/>
      <point x="129" y="971"/>
      <point x="145" y="979"/>
      <point x="179" y="979" type="curve" smooth="yes"/>
      <point x="540" y="979" type="line" smooth="yes"/>
      <point x="573" y="979"/>
      <point x="589" y="971"/>
      <point x="589" y="944" type="curve" smooth="yes"/>
      <point x="589" y="917"/>
      <point x="575" y="907"/>
    </contour>
  </outline>
</glyph>
<glyph name="dotlessi" format="1">
  <advance width="1240"/>
  <unicode hex="0131"/>
  <outline>
    <contour>
      <point x="299" y="0" type="line" smooth="yes"/>
      <point x="268" y="0"/>
      <point x="253" y="22"/>
      <point x="253" y="43" type="curve" smooth="yes"/>
      <point x="253" y="63"/>
      <point x="267" y="82"/>
      <point x="295" y="82" type="curve" smooth="yes"/>
      <point x="667" y="82" type="line" smooth="no"/>
      <point x="667" y="719" type="line" smooth="no"/>
      <point x="334" y="674" type="line" smooth="yes"/>
      <point x="331" y="674"/>
      <point x="329" y="673"/>
      <point x="327" y="673" type="curve" smooth="yes"/>
      <point x="300" y="673"/>
      <point x="286" y="694"/>
      <point x="286" y="715" type="curve" smooth="yes"/>
      <point x="286" y="734"/>
      <point x="296" y="752"/>
      <point x="318" y="755" type="curve" smooth="yes"/>
      <point x="716" y="810" type="line" smooth="yes"/>
      <point x="719" y="811"/>
      <point x="722" y="811"/>
      <point x="727" y="811" type="curve" smooth="yes"/>
      <point x="748" y="811"/>
      <point x="763" y="799"/>
      <point x="763" y="779" type="curve" smooth="yes"/>
      <point x="763" y="82" type="line" smooth="no"/>
      <point x="1096" y="82" type="line" smooth="yes"/>
      <point x="1123" y="82"/>
      <point x="1136" y="61"/>
      <point x="1136" y="41" type="curve" smooth="yes"/>
      <point x="1136" y="20"/>
      <point x="1122" y="0"/>
      <point x="1095" y="0" type="curve" smooth="yes"/>
    </contour>
  </outline>
</glyph>
<glyph name="IJ" format="1">
  <advance width="1240"/>
  <unicode hex="0132"/>
  <outline>
    <contour>
      <point x="1040" y="307" type="line" smooth="yes"/>
      <point x="1040" y="74"/>
      <point x="963" y="0"/>
      <point x="676" y="-0" type="curve" smooth="yes"/>
      <point x="655" y="0"/>
      <point x="644" y="20"/>
      <point x="644" y="41" type="curve" smooth="yes"/>
      <point x="644" y="61"/>
      <point x="654" y="81"/>
      <point x="676" y="81" type="curve" smooth="yes"/>
      <point x="919" y="81"/>
      <point x="944" y="125"/>
      <point x="944" y="304" type="curve" smooth="yes"/>
      <point x="944" y="1085" type="line" smooth="no"/>
      <point x="348" y="1085" type="line" smooth="no"/>
      <point x="348" y="86" type="line" smooth="no"/>
      <point x="479" y="86" type="line" smooth="yes"/>
      <point x="512" y="86"/>
      <point x="528" y="64"/>
      <point x="528" y="43" type="curve" smooth="yes"/>
      <point x="528" y="21"/>
      <point x="511" y="0"/>
      <point x="478" y="0" type="curve" smooth="yes"/>
      <point x="118" y="0" type="line" smooth="yes"/>
      <point x="85" y="0"/>
      <point x="67" y="21"/>
      <point x="67" y="43" type="curve" smooth="yes"/>
      <point x="67" y="64"/>
      <point x="84" y="86"/>
      <point x="117" y="86" type="curve" smooth="yes"/>
      <point x="252" y="86" type="line" smooth="no"/>
      <point x="252" y="1085" type="line" smooth="no"/>
      <point x="97" y="1085" type="line" smooth="yes"/>
      <point x="64" y="1085"/>
      <point x="47" y="1106"/>
      <point x="47" y="1127" type="curve" smooth="yes"/>
      <point x="47" y="1149"/>
      <point x="65" y="1171"/>
      <point x="98" y="1171" type="curve" smooth="yes"/>
      <point x="1142" y="1171" type="line" smooth="yes"/>
      <point x="1175" y="1171"/>
      <point x="1192" y="1150"/>
      <point x="1192" y="1128" type="curve" smooth="yes"/>
      <point x="1192" y="1107"/>
      <point x="1176" y="1085"/>
      <point x="1143" y="1085" type="curve" smooth="yes"/>
      <point x="1040" y="1085" type="line" smooth="no"/>
    </contour>
  </outline>
</glyph>
<glyph name="kgreenlandic" format="1">
  <advance width="1240"/>
  <unicode hex="0138"/>
  <outline>
    <contour>
      <point x="464" y="373" type="line" smooth="no"/>
      <point x="851" y="692" type="line" smooth="no"/>
      <point x="744" y="692" type="line" smooth="yes"/>
      <point x="716" y="692"/>
      <point x="702" y="712"/>
      <point x="702" y="733" type="curve" smooth="yes"/>
      <point x="702" y="754"/>
      <point x="717" y="775"/>
      <point x="748" y="775" type="curve" smooth="yes"/>
      <point x="1065" y="775" type="line" smooth="yes"/>
      <point x="1094" y="775"/>
      <point x="1106" y="753"/>
      <point x="1106" y="729" type="curve" smooth="yes"/>
      <point x="1106" y="711"/>
      <point x="1088" y="692"/>
      <point x="1066" y="692" type="curve" smooth="yes"/>
      <point x="971" y="692" type="line" smooth="no"/>
      <point x="662" y="433" type="line" smooth="no"/>
      <point x="1001" y="82" type="line" smooth="no"/>
      <point x="1088" y="82" type="line" smooth="yes"/>
      <point x="1115" y="82"/>
      <point x="1128" y="61"/>
      <point x="1128" y="41" type="curve" smooth="yes"/>
      <point x="1128" y="20"/>
      <point x="1114" y="0"/>
      <point x="1088" y="0" type="curve" smooth="yes"/>
      <point x="775" y="0" type="line" smooth="yes"/>
      <point x="747" y="0"/>
      <point x="733" y="21"/>
      <point x="733" y="41" type="curve" smooth="yes"/>
      <point x="733" y="62"/>
      <point x="748" y="82"/>
      <point x="779" y="82" type="curve" smooth="yes"/>
      <point x="889" y="82" type="line" smooth="no"/>
      <point x="597" y="387" type="line" smooth="no"/>
      <point x="464" y="287" type="line" smooth="no"/>
      <point x="464" y="82" type="line" smooth="no"/>
      <point x="535" y="82" type="line" smooth="yes"/>
      <point x="561" y="82"/>
      <point x="574" y="61"/>
      <point x="574" y="41" type="curve" smooth="yes"/>
      <point x="574" y="20"/>
      <point x="561" y="0"/>
      <point x="534" y="0" type="curve" smooth="yes"/>
      <point x="200" y="0" type="line" smooth="yes"/>
      <point x="170" y="0"/>
      <point x="154" y="21"/>
      <point x="154" y="42" type="curve" smooth="yes"/>
      <point x="154" y="62"/>
      <point x="168" y="82"/>
      <point x="196" y="82" type="curve" smooth="yes"/>
      <point x="368" y="82" type="line" smooth="no"/>
      <point x="368" y="692" type="line" smooth="no"/>
      <point x="193" y="692" type="line" smooth="yes"/>
      <point x="160" y="692"/>
      <point x="150" y="713"/>
      <point x="150" y="734" type="curve" smooth="yes"/>
      <point x="150" y="753"/>
      <point x="162" y="774"/>
      <point x="189" y="774" type="curve" smooth="yes"/>
      <point x="428" y="774" type="line" smooth="yes"/>
      <point x="449" y="774"/>
      <point x="464" y="760"/>
      <point x="464" y="736" type="curve" smooth="yes"/>
    </contour>
  </outline>
</glyph>
<glyph name="Lslash" format="1">
  <advance width="1240"/>
  <unicode hex="0141"/>
  <outline>
    <component base="L"/>
    <contour>
      <point x="777" y="768" type="curve" smooth="yes"/>
      <point x="802" y="768"/>
      <point x="818" y="750"/>
      <point x="818" y="722" type="curve" smooth="yes"/>
      <point x="818" y="703"/>
      <point x="806" y="692"/>
      <point x="780" y="685" type="curve" smooth="yes"/>
      <point x="245" y="551" type="line" smooth="yes"/>
      <point x="237" y="549"/>
      <point x="229" y="548"/>
      <point x="223" y="548" type="curve" smooth="yes"/>
      <point x="198" y="548"/>
      <point x="183" y="566"/>
      <point x="183" y="594" type="curve" smooth="yes"/>
      <point x="183" y="613"/>
      <point x="196" y="627"/>
      <point x="223" y="634" type="curve" smooth="yes"/>
      <point x="758" y="765" type="line" smooth="yes"/>
      <point x="765" y="767"/>
      <point x="771" y="768"/>
    </contour>
  </outline>
</glyph>
<glyph name="lslash" format="1">
  <advance width="1240"/>
  <unicode hex="0142"/>
  <outline>
    <component base="l"/>
    <contour>
      <point x="896" y="796" type="line" smooth="yes"/>
      <point x="902" y="798"/>
      <point x="907" y="799"/>
      <point x="912" y="799" type="curve" smooth="yes"/>
      <point x="934" y="799"/>
      <point x="949" y="778"/>
      <point x="949" y="757" type="curve" smooth="yes"/>
      <point x="949" y="744"/>
      <point x="943" y="731"/>
      <point x="929" y="725" type="curve" smooth="yes"/>
      <point x="435" y="523" type="line" smooth="yes"/>
      <point x="429" y="521"/>
      <point x="423" y="519"/>
      <point x="418" y="519" type="curve" smooth="yes"/>
      <point x="394" y="519"/>
      <point x="376" y="541"/>
      <point x="376" y="562" type="curve" smooth="yes"/>
      <point x="376" y="575"/>
      <point x="383" y="588"/>
      <point x="400" y="595" type="curve" smooth="yes"/>
    </contour>
  </outline>
</glyph>
<glyph name="Eng" format="1">
  <advance width="1240"/>
  <unicode hex="014a"/>
  <outline>
    <contour>
      <point x="629" y="-401" type="curve" smooth="yes"/>
      <point x="603" y="-401"/>
      <point x="589" y="-380"/>
      <point x="589" y="-359" type="curve" smooth="yes"/>
      <point x="589" y="-339"/>
      <point x="602" y="-320"/>
      <point x="630" y="-320" type="curve" smooth="yes"/>
      <point x="782" y="-320"/>
      <point x="943" y="-211"/>
      <point x="943" y="-32" type="curve" smooth="yes"/>
      <point x="943" y="52" type="line" smooth="no"/>
      <point x="875" y="177"/>
      <point x="506" y="844"/>
      <point x="381" y="1084" type="curve" smooth="no"/>
      <point x="381" y="86" type="line" smooth="no"/>
      <point x="519" y="86" type="line" smooth="yes"/>
      <point x="552" y="86"/>
      <point x="568" y="64"/>
      <point x="568" y="43" type="curve" smooth="yes"/>
      <point x="568" y="21"/>
      <point x="551" y="0"/>
      <point x="518" y="0" type="curve" smooth="yes"/>
      <point x="160" y="0" type="line" smooth="yes"/>
      <point x="127" y="0"/>
      <point x="110" y="21"/>
      <point x="110" y="43" type="curve" smooth="yes"/>
      <point x="110" y="64"/>
      <point x="126" y="86"/>
      <point x="159" y="86" type="curve" smooth="yes"/>
      <point x="285" y="86" type="line" smooth="no"/>
      <point x="285" y="1085" type="line" smooth="no"/>
      <point x="129" y="1085" type="line" smooth="yes"/>
      <point x="96" y="1085"/>
      <point x="80" y="1106"/>
      <point x="80" y="1127" type="curve" smooth="yes"/>
      <point x="80" y="1149"/>
      <point x="97" y="1171"/>
      <point x="130" y="1171" type="curve" smooth="yes"/>
      <point x="407" y="1171" type="line" smooth="yes"/>
      <point x="429" y="1171"/>
      <point x="439" y="1163"/>
      <point x="447" y="1147" type="curve" smooth="yes"/>
      <point x="943" y="224" type="line" smooth="no"/>
      <point x="943" y="1085" type="line" smooth="no"/>
      <point x="794" y="1085" type="line" smooth="yes"/>
      <point x="761" y="1085"/>
      <point x="745" y="1106"/>
      <point x="745" y="1127" type="curve" smooth="yes"/>
      <point x="745" y="1149"/>
      <point x="762" y="1171"/>
      <point x="796" y="1171" type="curve" smooth="yes"/>
      <point x="1133" y="1171" type="line" smooth="yes"/>
      <point x="1166" y="1171"/>
      <point x="1183" y="1149"/>
      <point x="1183" y="1127" type="curve" smooth="yes"/>
      <point x="1183" y="1106"/>
      <point x="1167" y="1085"/>
      <point x="1135" y="1085" type="curve" smooth="yes"/>
      <point x="1039" y="1085" type="line" smooth="no"/>
      <point x="1039" y="-19" type="line" smooth="yes"/>
      <point x="1039" y="-252"/>
      <point x="841" y="-401"/>
    </contour>
  </outline>
</glyph>
<glyph name="uni01C4" format="1">
  <advance width="1240"/>
  <unicode hex="01c4"/>
  <outline>
    <contour>
      <point x="235" y="86" type="line" smooth="no"/>
      <point x="496" y="86"/>
      <point x="553" y="256"/>
      <point x="553" y="591" type="curve" smooth="yes"/>
      <point x="553" y="907"/>
      <point x="488" y="1085"/>
      <point x="235" y="1085" type="curve" smooth="no"/>
    </contour>
    <contour>
      <point x="1111" y="0" type="curve" smooth="yes"/>
      <point x="739" y="0" type="line" smooth="yes"/>
      <point x="715" y="0"/>
      <point x="704" y="14"/>
      <point x="704" y="39" type="curve" smooth="yes"/>
      <point x="704" y="54"/>
      <point x="708" y="73"/>
      <point x="715" y="95" type="curve" smooth="yes"/>
      <point x="1038" y="1085" type="line" smooth="no"/>
      <point x="818" y="1085" type="line" smooth="no"/>
      <point x="818" y="857" type="line" smooth="yes"/>
      <point x="818" y="830"/>
      <point x="795" y="817"/>
      <point x="773" y="817" type="curve" smooth="yes"/>
      <point x="748" y="817"/>
      <point x="732" y="834"/>
      <point x="732" y="866" type="curve" smooth="yes"/>
      <point x="732" y="1116" type="line" smooth="no"/>
      <point x="733" y="1144"/>
      <point x="739" y="1171"/>
      <point x="790" y="1171" type="curve" smooth="yes"/>
      <point x="1090" y="1171" type="line" smooth="yes"/>
      <point x="1125" y="1171"/>
      <point x="1132" y="1137"/>
      <point x="1132" y="1111" type="curve" smooth="yes"/>
      <point x="1132" y="1097"/>
      <point x="1130" y="1085"/>
      <point x="1129" y="1081" type="curve" smooth="yes"/>
      <point x="811" y="86" type="line" smooth="no"/>
      <point x="1070" y="86" type="line" smooth="no"/>
      <point x="1070" y="314" type="line" smooth="no"/>
      <point x="1072" y="346"/>
      <point x="1093" y="363"/>
      <point x="1116" y="363" type="curve" smooth="yes"/>
      <point x="1137" y="363"/>
      <point x="1162" y="350"/>
      <point x="1162" y="315" type="curve" smooth="yes"/>
      <point x="1162" y="53" type="line" smooth="no"/>
      <point x="1163" y="19"/>
      <point x="1140" y="0"/>
    </contour>
    <contour>
      <point x="228" y="0" type="curve" smooth="yes"/>
      <point x="115" y="0" type="line" smooth="yes"/>
      <point x="81" y="0"/>
      <point x="64" y="21"/>
      <point x="64" y="43" type="curve" smooth="yes"/>
      <point x="64" y="64"/>
      <point x="81" y="86"/>
      <point x="114" y="86" type="curve" smooth="yes"/>
      <point x="139" y="86" type="line" smooth="no"/>
      <point x="139" y="1085" type="line" smooth="no"/>
      <point x="118" y="1085" type="line" smooth="yes"/>
      <point x="86" y="1085"/>
      <point x="70" y="1106"/>
      <point x="70" y="1127" type="curve" smooth="yes"/>
      <point x="70" y="1149"/>
      <point x="87" y="1171"/>
      <point x="120" y="1171" type="curve" smooth="yes"/>
      <point x="230" y="1171" type="line" smooth="yes"/>
      <point x="525" y="1171"/>
      <point x="649" y="993"/>
      <point x="649" y="591" type="curve" smooth="yes"/>
      <point x="649" y="168"/>
      <point x="519" y="0"/>
    </contour>
    <contour>
      <point x="985" y="1320" type="line" smooth="no"/>
      <point x="980" y="1312"/>
      <point x="966" y="1309"/>
      <point x="953" y="1309" type="curve" smooth="yes"/>
      <point x="940" y="1309"/>
      <point x="927" y="1312"/>
      <point x="922" y="1320" type="curve" smooth="yes"/>
      <point x="758" y="1603" type="line" smooth="no"/>
      <point x="753" y="1608"/>
      <point x="751" y="1615"/>
      <point x="751" y="1620" type="curve" smooth="yes"/>
      <point x="751" y="1636"/>
      <point x="770" y="1650"/>
      <point x="788" y="1650" type="curve" smooth="yes"/>
      <point x="796" y="1650"/>
      <point x="806" y="1649"/>
      <point x="811" y="1641" type="curve" smooth="yes"/>
      <point x="953" y="1432" type="line" smooth="no"/>
      <point x="1066" y="1641" type="line" smooth="yes"/>
      <point x="1071" y="1649"/>
      <point x="1081" y="1650"/>
      <point x="1089" y="1650" type="curve" smooth="yes"/>
      <point x="1107" y="1650"/>
      <point x="1126" y="1636"/>
      <point x="1126" y="1620" type="curve" smooth="yes"/>
      <point x="1126" y="1615"/>
      <point x="1124" y="1608"/>
      <point x="1119" y="1603" type="curve" smooth="no"/>
    </contour>
  </outline>
</glyph>
<glyph name="uni01C8" format="1">
  <advance width="1240"/>
  <unicode hex="01c8"/>
  <outline>
    <contour>
      <point x="1022" y="1171" type="curve" smooth="yes"/>
      <point x="1068" y="1171"/>
      <point x="1104" y="1134"/>
      <point x="1104" y="1088" type="curve" smooth="yes"/>
      <point x="1104" y="1042"/>
      <point x="1068" y="1006"/>
      <point x="1022" y="1006" type="curve" smooth="yes"/>
      <point x="976" y="1006"/>
      <point x="939" y="1042"/>
      <point x="939" y="1088" type="curve" smooth="yes"/>
      <point x="939" y="1134"/>
      <point x="976" y="1171"/>
    </contour>
    <contour>
      <point x="464" y="1171" type="line" smooth="yes"/>
      <point x="498" y="1171"/>
      <point x="515" y="1149"/>
      <point x="515" y="1127" type="curve" smooth="yes"/>
      <point x="515" y="1106"/>
      <point x="498" y="1085"/>
      <point x="465" y="1085" type="curve" smooth="yes"/>
      <point x="353" y="1085" type="line" smooth="no"/>
      <point x="353" y="86" type="line" smooth="no"/>
      <point x="645" y="86" type="line" smooth="no"/>
      <point x="667" y="88"/>
      <point x="683" y="92"/>
      <point x="686" y="123" type="curve" smooth="yes"/>
      <point x="720" y="399" type="line" smooth="yes"/>
      <point x="724" y="428"/>
      <point x="747" y="442"/>
      <point x="770" y="442" type="curve" smooth="yes"/>
      <point x="796" y="442"/>
      <point x="821" y="425"/>
      <point x="821" y="393" type="curve" smooth="yes"/>
      <point x="821" y="387" type="line" smooth="no"/>
      <point x="791" y="66" type="line" smooth="no"/>
      <point x="786" y="29"/>
      <point x="762" y="0"/>
      <point x="719" y="0" type="curve" smooth="yes"/>
      <point x="113" y="0" type="line" smooth="yes"/>
      <point x="79" y="0"/>
      <point x="62" y="21"/>
      <point x="62" y="43" type="curve" smooth="yes"/>
      <point x="62" y="64"/>
      <point x="79" y="86"/>
      <point x="112" y="86" type="curve" smooth="yes"/>
      <point x="257" y="86" type="line" smooth="no"/>
      <point x="257" y="1085" type="line" smooth="no"/>
      <point x="154" y="1085" type="line" smooth="yes"/>
      <point x="121" y="1085"/>
      <point x="105" y="1106"/>
      <point x="105" y="1127" type="curve" smooth="yes"/>
      <point x="105" y="1149"/>
      <point x="122" y="1171"/>
      <point x="155" y="1171" type="curve" smooth="yes"/>
    </contour>
    <contour>
      <point x="728" y="-309" type="curve" smooth="yes"/>
      <point x="695" y="-309"/>
      <point x="677" y="-287"/>
      <point x="677" y="-265" type="curve" smooth="yes"/>
      <point x="677" y="-243"/>
      <point x="696" y="-220"/>
      <point x="735" y="-220" type="curve" smooth="yes"/>
      <point x="910" y="-220"/>
      <point x="1020" y="-155"/>
      <point x="1020" y="0" type="curve" smooth="yes"/>
      <point x="1020" y="732" type="line" smooth="no"/>
      <point x="754" y="732" type="line" smooth="yes"/>
      <point x="725" y="732"/>
      <point x="710" y="754"/>
      <point x="710" y="775" type="curve" smooth="yes"/>
      <point x="710" y="795"/>
      <point x="724" y="814"/>
      <point x="750" y="814" type="curve" smooth="yes"/>
      <point x="1080" y="814" type="line" smooth="yes"/>
      <point x="1100" y="814"/>
      <point x="1116" y="806"/>
      <point x="1116" y="785" type="curve" smooth="yes"/>
      <point x="1116" y="-10" type="line" smooth="yes"/>
      <point x="1116" y="-198"/>
      <point x="973" y="-309"/>
    </contour>
  </outline>
</glyph>
<glyph name="uni01C9" format="1">
  <advance width="1240"/>
  <unicode hex="01c9"/>
  <outline>
    <contour>
      <point x="999" y="1171" type="curve" smooth="yes"/>
      <point x="1045" y="1171"/>
      <point x="1081" y="1134"/>
      <point x="1081" y="1088" type="curve" smooth="yes"/>
      <point x="1081" y="1042"/>
      <point x="1045" y="1006"/>
      <point x="999" y="1006" type="curve" smooth="yes"/>
      <point x="953" y="1006"/>
      <point x="916" y="1042"/>
      <point x="916" y="1088" type="curve" smooth="yes"/>
      <point x="916" y="1134"/>
      <point x="953" y="1171"/>
    </contour>
    <contour>
      <point x="678" y="-309" type="curve" smooth="yes"/>
      <point x="645" y="-309"/>
      <point x="627" y="-287"/>
      <point x="627" y="-265" type="curve" smooth="yes"/>
      <point x="627" y="-243"/>
      <point x="646" y="-220"/>
      <point x="685" y="-220" type="curve" smooth="yes"/>
      <point x="860" y="-220"/>
      <point x="970" y="-155"/>
      <point x="970" y="0" type="curve" smooth="yes"/>
      <point x="970" y="732" type="line" smooth="no"/>
      <point x="704" y="732" type="line" smooth="yes"/>
      <point x="675" y="732"/>
      <point x="660" y="754"/>
      <point x="660" y="775" type="curve" smooth="yes"/>
      <point x="660" y="795"/>
      <point x="674" y="814"/>
      <point x="700" y="814" type="curve" smooth="yes"/>
      <point x="1030" y="814" type="line" smooth="yes"/>
      <point x="1050" y="814"/>
      <point x="1066" y="806"/>
      <point x="1066" y="785" type="curve" smooth="yes"/>
      <point x="1066" y="-10" type="line" smooth="yes"/>
      <point x="1066" y="-198"/>
      <point x="923" y="-309"/>
    </contour>
    <contour>
      <point x="476" y="1150" type="curve" smooth="yes"/>
      <point x="476" y="82" type="line" smooth="no"/>
      <point x="696" y="82" type="line" smooth="yes"/>
      <point x="722" y="82"/>
      <point x="735" y="61"/>
      <point x="735" y="41" type="curve" smooth="yes"/>
      <point x="735" y="20"/>
      <point x="722" y="0"/>
      <point x="695" y="0" type="curve" smooth="yes"/>
      <point x="146" y="0" type="line" smooth="yes"/>
      <point x="115" y="0"/>
      <point x="100" y="21"/>
      <point x="100" y="42" type="curve" smooth="yes"/>
      <point x="100" y="62"/>
      <point x="114" y="82"/>
      <point x="142" y="82" type="curve" smooth="yes"/>
      <point x="380" y="82" type="line" smooth="no"/>
      <point x="380" y="1090" type="line" smooth="no"/>
      <point x="146" y="1061" type="line" smooth="yes"/>
      <point x="143" y="1061"/>
      <point x="141" y="1060"/>
      <point x="139" y="1060" type="curve" smooth="yes"/>
      <point x="112" y="1060"/>
      <point x="98" y="1081"/>
      <point x="98" y="1102" type="curve" smooth="yes"/>
      <point x="98" y="1121"/>
      <point x="108" y="1139"/>
      <point x="130" y="1142" type="curve" smooth="yes"/>
      <point x="429" y="1181" type="line" smooth="yes"/>
      <point x="432" y="1181"/>
      <point x="435" y="1182"/>
      <point x="440" y="1182" type="curve" smooth="yes"/>
      <point x="461" y="1182"/>
      <point x="476" y="1170"/>
    </contour>
  </outline>
</glyph>
<glyph name="uni01CA" format="1">
  <advance width="1240"/>
  <unicode hex="01ca"/>
  <outline>
    <contour>
      <point x="79" y="1085" type="line" smooth="yes"/>
      <point x="46" y="1085"/>
      <point x="30" y="1106"/>
      <point x="30" y="1127" type="curve" smooth="yes"/>
      <point x="30" y="1149"/>
      <point x="47" y="1171"/>
      <point x="80" y="1171" type="curve" smooth="yes"/>
      <point x="262" y="1171" type="line" smooth="yes"/>
      <point x="284" y="1171"/>
      <point x="296" y="1164"/>
      <point x="302" y="1147" type="curve" smooth="yes"/>
      <point x="583" y="282" type="line" smooth="no"/>
      <point x="583" y="1085" type="line" smooth="no"/>
      <point x="504" y="1085" type="line" smooth="yes"/>
      <point x="471" y="1085"/>
      <point x="455" y="1106"/>
      <point x="455" y="1127" type="curve" smooth="yes"/>
      <point x="455" y="1149"/>
      <point x="472" y="1171"/>
      <point x="506" y="1171" type="curve" smooth="yes"/>
      <point x="1224" y="1171" type="line" smooth="yes"/>
      <point x="1257" y="1171"/>
      <point x="1274" y="1150"/>
      <point x="1274" y="1128" type="curve" smooth="yes"/>
      <point x="1274" y="1107"/>
      <point x="1258" y="1085"/>
      <point x="1225" y="1085" type="curve" smooth="yes"/>
      <point x="1154" y="1085" type="line" smooth="no"/>
      <point x="1154" y="307" type="line" smooth="yes"/>
      <point x="1154" y="48"/>
      <point x="1055" y="-14"/>
      <point x="951" y="-14" type="curve" smooth="yes"/>
      <point x="876" y="-14"/>
      <point x="787" y="48"/>
      <point x="787" y="181" type="curve" smooth="yes"/>
      <point x="787" y="233" type="line" smooth="yes"/>
      <point x="787" y="262"/>
      <point x="812" y="278"/>
      <point x="836" y="278" type="curve" smooth="yes"/>
      <point x="860" y="278"/>
      <point x="883" y="263"/>
      <point x="883" y="233" type="curve" smooth="yes"/>
      <point x="883" y="180" type="line" smooth="yes"/>
      <point x="883" y="86"/>
      <point x="933" y="68"/>
      <point x="964" y="68" type="curve" smooth="yes"/>
      <point x="1015" y="68"/>
      <point x="1058" y="103"/>
      <point x="1058" y="304" type="curve" smooth="yes"/>
      <point x="1058" y="1085" type="line" smooth="no"/>
      <point x="679" y="1085" type="line" smooth="no"/>
      <point x="679" y="47" type="line" smooth="yes"/>
      <point x="679" y="4"/>
      <point x="656" y="-16"/>
      <point x="630" y="-16" type="curve" smooth="yes"/>
      <point x="609" y="-16"/>
      <point x="583" y="-3"/>
      <point x="574" y="22" type="curve" smooth="yes"/>
      <point x="231" y="1064" type="line" smooth="no"/>
      <point x="231" y="86" type="line" smooth="no"/>
      <point x="299" y="86" type="line" smooth="yes"/>
      <point x="332" y="86"/>
      <point x="348" y="64"/>
      <point x="348" y="43" type="curve" smooth="yes"/>
      <point x="348" y="21"/>
      <point x="331" y="0"/>
      <point x="298" y="0" type="curve" smooth="yes"/>
      <point x="100" y="0" type="line" smooth="yes"/>
      <point x="67" y="0"/>
      <point x="50" y="21"/>
      <point x="50" y="43" type="curve" smooth="yes"/>
      <point x="50" y="64"/>
      <point x="66" y="86"/>
      <point x="99" y="86" type="curve" smooth="yes"/>
      <point x="135" y="86" type="line" smooth="no"/>
      <point x="135" y="1085" type="line" smooth="no"/>
    </contour>
  </outline>
</glyph>
<glyph name="uni01CC" format="1">
  <advance width="1240"/>
  <unicode hex="01cc"/>
  <outline>
    <contour>
      <point x="1044" y="1171" type="curve" smooth="yes"/>
      <point x="1090" y="1171"/>
      <point x="1126" y="1134"/>
      <point x="1126" y="1088" type="curve" smooth="yes"/>
      <point x="1126" y="1042"/>
      <point x="1090" y="1006"/>
      <point x="1044" y="1006" type="curve" smooth="yes"/>
      <point x="998" y="1006"/>
      <point x="961" y="1042"/>
      <point x="961" y="1088" type="curve" smooth="yes"/>
      <point x="961" y="1134"/>
      <point x="998" y="1171"/>
    </contour>
    <contour>
      <point x="748" y="-309" type="curve" smooth="yes"/>
      <point x="715" y="-309"/>
      <point x="697" y="-287"/>
      <point x="697" y="-265" type="curve" smooth="yes"/>
      <point x="697" y="-243"/>
      <point x="716" y="-220"/>
      <point x="755" y="-220" type="curve" smooth="yes"/>
      <point x="930" y="-220"/>
      <point x="1040" y="-155"/>
      <point x="1040" y="0" type="curve" smooth="yes"/>
      <point x="1040" y="732" type="line" smooth="no"/>
      <point x="854" y="732" type="line" smooth="yes"/>
      <point x="825" y="732"/>
      <point x="810" y="754"/>
      <point x="810" y="775" type="curve" smooth="yes"/>
      <point x="810" y="795"/>
      <point x="824" y="814"/>
      <point x="850" y="814" type="curve" smooth="yes"/>
      <point x="1100" y="814" type="line" smooth="yes"/>
      <point x="1120" y="814"/>
      <point x="1136" y="806"/>
      <point x="1136" y="785" type="curve" smooth="yes"/>
      <point x="1136" y="-10" type="line" smooth="yes"/>
      <point x="1136" y="-198"/>
      <point x="993" y="-309"/>
    </contour>
    <contour>
      <point x="478" y="731" type="curve" smooth="yes"/>
      <point x="286" y="731"/>
      <point x="238" y="604"/>
      <point x="238" y="503" type="curve" smooth="yes"/>
      <point x="238" y="82" type="line" smooth="no"/>
      <point x="313" y="82" type="line" smooth="yes"/>
      <point x="345" y="82"/>
      <point x="361" y="62"/>
      <point x="361" y="42" type="curve" smooth="yes"/>
      <point x="361" y="21"/>
      <point x="344" y="0"/>
      <point x="311" y="0" type="curve" smooth="yes"/>
      <point x="88" y="0" type="line" smooth="yes"/>
      <point x="57" y="0"/>
      <point x="42" y="22"/>
      <point x="42" y="43" type="curve" smooth="yes"/>
      <point x="42" y="63"/>
      <point x="56" y="82"/>
      <point x="84" y="82" type="curve" smooth="yes"/>
      <point x="142" y="82" type="line" smooth="no"/>
      <point x="142" y="709" type="line" smooth="no"/>
      <point x="84" y="699" type="line" smooth="yes"/>
      <point x="77" y="697"/>
      <point x="70" y="696"/>
      <point x="64" y="696" type="curve" smooth="yes"/>
      <point x="40" y="696"/>
      <point x="25" y="714"/>
      <point x="25" y="734" type="curve" smooth="yes"/>
      <point x="25" y="750"/>
      <point x="34" y="769"/>
      <point x="58" y="775" type="curve" smooth="no"/>
      <point x="172" y="796" type="line" smooth="yes"/>
      <point x="179" y="797"/>
      <point x="185" y="798"/>
      <point x="190" y="798" type="curve" smooth="yes"/>
      <point x="217" y="798"/>
      <point x="228" y="782"/>
      <point x="229" y="759" type="curve" smooth="yes"/>
      <point x="234" y="639" type="line" smooth="no"/>
      <point x="284" y="737"/>
      <point x="334" y="813"/>
      <point x="473" y="813" type="curve" smooth="yes"/>
      <point x="666" y="813"/>
      <point x="734" y="707"/>
      <point x="734" y="533" type="curve" smooth="yes"/>
      <point x="734" y="82" type="line" smooth="no"/>
      <point x="783" y="82" type="line" smooth="yes"/>
      <point x="810" y="82"/>
      <point x="823" y="62"/>
      <point x="823" y="42" type="curve" smooth="yes"/>
      <point x="823" y="21"/>
      <point x="809" y="0"/>
      <point x="781" y="0" type="curve" smooth="yes"/>
      <point x="556" y="0" type="line" smooth="yes"/>
      <point x="525" y="0"/>
      <point x="510" y="22"/>
      <point x="510" y="43" type="curve" smooth="yes"/>
      <point x="510" y="63"/>
      <point x="524" y="82"/>
      <point x="552" y="82" type="curve" smooth="yes"/>
      <point x="638" y="82" type="line" smooth="no"/>
      <point x="638" y="540" type="line" smooth="yes"/>
      <point x="638" y="659"/>
      <point x="599" y="731"/>
    </contour>
  </outline>
</glyph>
<glyph name="uni01F2" format="1">
  <advance width="1240"/>
  <unicode hex="01f2"/>
  <outline>
    <contour>
      <point x="1089" y="772" type="line" smooth="yes"/>
      <point x="1135" y="772"/>
      <point x="1150" y="750"/>
      <point x="1150" y="727" type="curve" smooth="yes"/>
      <point x="1150" y="710"/>
      <point x="1138" y="695"/>
      <point x="1132" y="682" type="curve" smooth="yes"/>
      <point x="860" y="82" type="line" smooth="no"/>
      <point x="1065" y="82" type="line" smooth="no"/>
      <point x="1076" y="259" type="line" smooth="yes"/>
      <point x="1077" y="283"/>
      <point x="1099" y="297"/>
      <point x="1120" y="297" type="curve" smooth="yes"/>
      <point x="1141" y="297"/>
      <point x="1161" y="284"/>
      <point x="1161" y="255" type="curve" smooth="yes"/>
      <point x="1161" y="46" type="line" smooth="yes"/>
      <point x="1161" y="21"/>
      <point x="1134" y="0"/>
      <point x="1110" y="0" type="curve" smooth="yes"/>
      <point x="806" y="0" type="line" smooth="yes"/>
      <point x="768" y="0"/>
      <point x="750" y="24"/>
      <point x="750" y="59" type="curve" smooth="yes"/>
      <point x="750" y="81"/>
      <point x="761" y="97"/>
      <point x="767" y="109" type="curve" smooth="yes"/>
      <point x="1034" y="692" type="line" smooth="no"/>
      <point x="831" y="692" type="line" smooth="no"/>
      <point x="823" y="535" type="line" smooth="yes"/>
      <point x="822" y="505"/>
      <point x="802" y="490"/>
      <point x="781" y="490" type="curve" smooth="yes"/>
      <point x="759" y="490"/>
      <point x="736" y="507"/>
      <point x="736" y="540" type="curve" smooth="yes"/>
      <point x="736" y="726" type="line" smooth="yes"/>
      <point x="736" y="750"/>
      <point x="758" y="772"/>
      <point x="782" y="772" type="curve" smooth="yes"/>
    </contour>
    <contour>
      <point x="235" y="86" type="line" smooth="no"/>
      <point x="496" y="86"/>
      <point x="553" y="256"/>
      <point x="553" y="591" type="curve" smooth="yes"/>
      <point x="553" y="907"/>
      <point x="488" y="1085"/>
      <point x="235" y="1085" type="curve" smooth="no"/>
    </contour>
    <contour>
      <point x="228" y="0" type="curve" smooth="yes"/>
      <point x="115" y="0" type="line" smooth="yes"/>
      <point x="81" y="0"/>
      <point x="64" y="21"/>
      <point x="64" y="43" type="curve" smooth="yes"/>
      <point x="64" y="64"/>
      <point x="81" y="86"/>
      <point x="114" y="86" type="curve" smooth="yes"/>
      <point x="139" y="86" type="line" smooth="no"/>
      <point x="139" y="1085" type="line" smooth="no"/>
      <point x="118" y="1085" type="line" smooth="yes"/>
      <point x="86" y="1085"/>
      <point x="70" y="1106"/>
      <point x="70" y="1127" type="curve" smooth="yes"/>
      <point x="70" y="1149"/>
      <point x="87" y="1171"/>
      <point x="120" y="1171" type="curve" smooth="yes"/>
      <point x="230" y="1171" type="line" smooth="yes"/>
      <point x="525" y="1171"/>
      <point x="649" y="993"/>
      <point x="649" y="591" type="curve" smooth="yes"/>
      <point x="649" y="168"/>
      <point x="519" y="0"/>
    </contour>
  </outline>
</glyph>
<glyph name="uni0237" format="1">
  <advance width="1240"/>
  <unicode hex="0237"/>
  <outline>
    <contour>
      <point x="367" y="-310" type="curve" smooth="yes"/>
      <point x="334" y="-310"/>
      <point x="316" y="-288"/>
      <point x="316" y="-266" type="curve" smooth="yes"/>
      <point x="316" y="-244"/>
      <point x="335" y="-221"/>
      <point x="374" y="-221" type="curve" smooth="yes"/>
      <point x="549" y="-221"/>
      <point x="799" y="-156"/>
      <point x="799" y="-1" type="curve" smooth="yes"/>
      <point x="799" y="731" type="line" smooth="no"/>
      <point x="343" y="731" type="line" smooth="yes"/>
      <point x="314" y="731"/>
      <point x="299" y="753"/>
      <point x="299" y="774" type="curve" smooth="yes"/>
      <point x="299" y="794"/>
      <point x="313" y="813"/>
      <point x="339" y="813" type="curve" smooth="yes"/>
      <point x="859" y="813" type="line" smooth="yes"/>
      <point x="879" y="813"/>
      <point x="895" y="805"/>
      <point x="895" y="784" type="curve" smooth="yes"/>
      <point x="895" y="-11" type="line" smooth="yes"/>
      <point x="895" y="-199"/>
      <point x="612" y="-310"/>
    </contour>
  </outline>
</glyph>
<glyph name="uni0307" format="1">
  <advance width="1240"/>
  <unicode hex="0307"/>
  <outline>
    <contour>
      <point x="644" y="813" type="curve" smooth="yes"/>
      <point x="690" y="813"/>
      <point x="726" y="776"/>
      <point x="726" y="730" type="curve" smooth="yes"/>
      <point x="726" y="684"/>
      <point x="690" y="648"/>
      <point x="644" y="648" type="curve" smooth="yes"/>
      <point x="598" y="648"/>
      <point x="561" y="684"/>
      <point x="561" y="730" type="curve" smooth="yes"/>
      <point x="561" y="776"/>
      <point x="598" y="813"/>
    </contour>
  </outline>
</glyph>
<glyph name="uni030F" format="1">
  <advance width="1240"/>
  <unicode hex="030f"/>
  <outline>
    <contour>
      <point x="314" y="1144" type="line" smooth="yes"/>
      <point x="304" y="1151"/>
      <point x="300" y="1162"/>
      <point x="300" y="1172" type="curve" smooth="yes"/>
      <point x="300" y="1200"/>
      <point x="330" y="1233"/>
      <point x="361" y="1233" type="curve" smooth="yes"/>
      <point x="372" y="1233"/>
      <point x="383" y="1229"/>
      <point x="393" y="1219" type="curve" smooth="yes"/>
      <point x="664" y="943" type="line" smooth="yes"/>
      <point x="669" y="938"/>
      <point x="670" y="933"/>
      <point x="670" y="928" type="curve" smooth="yes"/>
      <point x="670" y="916"/>
      <point x="659" y="906"/>
      <point x="647" y="906" type="curve" smooth="yes"/>
      <point x="643" y="906"/>
      <point x="639" y="907"/>
      <point x="636" y="910" type="curve" smooth="yes"/>
    </contour>
    <contour>
      <point x="624" y="1164" type="line" smooth="no"/>
      <point x="614" y="1171"/>
      <point x="610" y="1182"/>
      <point x="610" y="1192" type="curve" smooth="yes"/>
      <point x="610" y="1220"/>
      <point x="640" y="1253"/>
      <point x="671" y="1253" type="curve" smooth="yes"/>
      <point x="682" y="1253"/>
      <point x="693" y="1249"/>
      <point x="703" y="1239" type="curve" smooth="no"/>
      <point x="934" y="943" type="line" smooth="yes"/>
      <point x="939" y="938"/>
      <point x="940" y="933"/>
      <point x="940" y="928" type="curve" smooth="yes"/>
      <point x="940" y="916"/>
      <point x="929" y="906"/>
      <point x="917" y="906" type="curve" smooth="yes"/>
      <point x="913" y="906"/>
      <point x="909" y="907"/>
      <point x="906" y="910" type="curve" smooth="yes"/>
    </contour>
  </outline>
</glyph>
<glyph name="uni0311" format="1">
  <advance width="1240"/>
  <unicode hex="0311"/>
  <outline>
    <contour>
      <point x="620" y="1090" type="curve" smooth="yes"/>
      <point x="560" y="1090"/>
      <point x="501" y="1054"/>
      <point x="490" y="986" type="curve" smooth="no"/>
      <point x="486" y="974"/>
      <point x="477" y="970"/>
      <point x="467" y="970" type="curve" smooth="yes"/>
      <point x="451" y="970"/>
      <point x="433" y="982"/>
      <point x="433" y="994" type="curve" smooth="yes"/>
      <point x="433" y="1119"/>
      <point x="559" y="1148"/>
      <point x="620" y="1148" type="curve" smooth="yes"/>
      <point x="681" y="1148"/>
      <point x="807" y="1119"/>
      <point x="807" y="994" type="curve" smooth="yes"/>
      <point x="807" y="982"/>
      <point x="789" y="970"/>
      <point x="773" y="970" type="curve" smooth="yes"/>
      <point x="763" y="970"/>
      <point x="754" y="974"/>
      <point x="750" y="986" type="curve" smooth="no"/>
      <point x="739" y="1054"/>
      <point x="680" y="1090"/>
    </contour>
  </outline>
</glyph>
